<svg id="Lag_1" data-name="Lag 1" xmlns="http://www.w3.org/2000/svg" xmlns:xlink="http://www.w3.org/1999/xlink" width="210mm" height="297mm" viewBox="0 0 595.28 841.89"><defs><style>.cls-1{filter:url(#AI_Skygge_1);}.cls-2{fill:#bccedd;}.cls-3{fill:#646463;}.cls-4{fill:#1d1d1b;}.cls-5{fill:#88a0aa;}.cls-6{fill:#667c84;}</style><filter id="AI_Skygge_1" name="AI_Skygge_1"><feGaussianBlur result="blur" stdDeviation="2" in="SourceAlpha"/><feOffset result="offsetBlurredAlpha" dx="4" dy="4" in="blur"/><feMerge><feMergeNode in="offsetBlurredAlpha"/><feMergeNode in="SourceGraphic"/></feMerge></filter></defs><title>ani_book</title><g class="cls-1"><rect class="cls-2" width="595.28" height="841.89"/></g><path class="cls-3" d="M100.84,162.64v8.25a12,12,0,0,1-3.46,1.75,13.58,13.58,0,0,1-4,.58,13.05,13.05,0,0,1-4.68-.8,10.4,10.4,0,0,1-3.56-2.25,9.82,9.82,0,0,1-2.27-3.48,12.06,12.06,0,0,1-.8-4.45,12.63,12.63,0,0,1,.77-4.49,10,10,0,0,1,2.2-3.47A9.71,9.71,0,0,1,88.48,152a12.47,12.47,0,0,1,4.56-.8,14.59,14.59,0,0,1,2.37.19,11.67,11.67,0,0,1,2,.54,9.62,9.62,0,0,1,1.73.86,10.16,10.16,0,0,1,1.48,1.13l-.82,1.32a.87.87,0,0,1-.51.38.85.85,0,0,1-.68-.14l-.82-.51a7.51,7.51,0,0,0-1.14-.58A9.53,9.53,0,0,0,95.1,154a10.35,10.35,0,0,0-2.15-.2,8.84,8.84,0,0,0-3.29.59,6.94,6.94,0,0,0-2.5,1.7,7.59,7.59,0,0,0-1.59,2.67,11.47,11.47,0,0,0,0,7.14,7.55,7.55,0,0,0,1.65,2.72,7,7,0,0,0,2.6,1.7,9.59,9.59,0,0,0,3.44.58,9.38,9.38,0,0,0,2.66-.34,11.3,11.3,0,0,0,2.27-.93v-4.73H94.87a.63.63,0,0,1-.46-.16.53.53,0,0,1-.17-.41v-1.65Z"/><path class="cls-3" d="M121.18,173H118.6a1.28,1.28,0,0,1-1.17-.62l-5.58-7.68a1.62,1.62,0,0,0-.55-.51,2,2,0,0,0-.91-.16h-2.2v9h-2.9v-21.5h6.08a13,13,0,0,1,3.52.42,6.6,6.6,0,0,1,2.45,1.19,4.71,4.71,0,0,1,1.44,1.88,6.32,6.32,0,0,1,.46,2.47,6.19,6.19,0,0,1-.36,2.13,5.78,5.78,0,0,1-1,1.78,6.35,6.35,0,0,1-1.67,1.34,8.13,8.13,0,0,1-2.22.84,2.86,2.86,0,0,1,1,.91Zm-9.93-11.09a7.13,7.13,0,0,0,2.22-.31,4.33,4.33,0,0,0,1.62-.87,3.53,3.53,0,0,0,1-1.34,4.36,4.36,0,0,0,.33-1.72,3.44,3.44,0,0,0-1.26-2.9,6.12,6.12,0,0,0-3.78-1h-3.18v8.11Z"/><path class="cls-3" d="M132.26,170.67a6,6,0,0,0,2.39-.45,4.93,4.93,0,0,0,1.77-1.26,5.38,5.38,0,0,0,1.11-1.94,7.48,7.48,0,0,0,.39-2.47V151.48h2.89v13.07a9.92,9.92,0,0,1-.59,3.45,8,8,0,0,1-1.7,2.75,7.76,7.76,0,0,1-2.69,1.82,10,10,0,0,1-7.14,0,7.71,7.71,0,0,1-4.4-4.57,9.69,9.69,0,0,1-.59-3.45V151.48h2.89v13.05A7.82,7.82,0,0,0,127,167a5.65,5.65,0,0,0,1.11,1.93,5,5,0,0,0,1.79,1.27A5.86,5.86,0,0,0,132.26,170.67Z"/><path class="cls-3" d="M163.45,151.48V173H162a1.28,1.28,0,0,1-.58-.12,1.52,1.52,0,0,1-.45-.41l-12.44-16.2c0,.25,0,.5,0,.74s0,.46,0,.67V173H146v-21.5h1.5l.33,0a.85.85,0,0,1,.24.08,1.37,1.37,0,0,1,.21.15,3,3,0,0,1,.23.25L161,168.16c0-.26,0-.51-.05-.75s0-.48,0-.7V151.48Z"/><path class="cls-3" d="M187.57,162.24a12.08,12.08,0,0,1-.77,4.39,9.52,9.52,0,0,1-5.51,5.58A11.83,11.83,0,0,1,177,173h-8v-21.5h8a11.83,11.83,0,0,1,4.33.77,9.74,9.74,0,0,1,3.35,2.19,9.88,9.88,0,0,1,2.16,3.4A12.13,12.13,0,0,1,187.57,162.24Zm-3,0a10.79,10.79,0,0,0-.54-3.54,7.46,7.46,0,0,0-1.53-2.64,6.53,6.53,0,0,0-2.4-1.65,8.34,8.34,0,0,0-3.15-.57h-5.11v16.78H177a8.34,8.34,0,0,0,3.15-.57,6.62,6.62,0,0,0,2.4-1.64,7.33,7.33,0,0,0,1.53-2.63A10.79,10.79,0,0,0,184.58,162.24Z"/><path class="cls-3" d="M204,170.53V173h-12.2v-21.5h2.9v19.05Z"/><path class="cls-3" d="M231,170.61l0,2.37H219.41l-.73-5.88h-8.34l-2.7,5.2a1.22,1.22,0,0,1-.44.49,1.15,1.15,0,0,1-.67.19h-2.21l11.34-21.5H231v2.37H219.77l.89,7.14H229v2.28h-8.09l.9,7.34ZM218.42,165,217,153.66c-.13.42-.27.8-.41,1.15s-.28.69-.42,1L211.42,165Z"/><path class="cls-3" d="M252.07,162.64v8.25a12,12,0,0,1-3.46,1.75,13.58,13.58,0,0,1-4,.58,13.05,13.05,0,0,1-4.68-.8,10.4,10.4,0,0,1-3.56-2.25,9.82,9.82,0,0,1-2.27-3.48,12.06,12.06,0,0,1-.8-4.45,12.63,12.63,0,0,1,.77-4.49,10,10,0,0,1,2.2-3.47,9.71,9.71,0,0,1,3.47-2.24,12.47,12.47,0,0,1,4.56-.8,14.59,14.59,0,0,1,2.37.19,11.67,11.67,0,0,1,2,.54,9.62,9.62,0,0,1,1.73.86,10.16,10.16,0,0,1,1.48,1.13l-.82,1.32a.87.87,0,0,1-.51.38.85.85,0,0,1-.68-.14L249,155a7.51,7.51,0,0,0-1.14-.58,9.53,9.53,0,0,0-1.57-.47,10.35,10.35,0,0,0-2.15-.2,8.84,8.84,0,0,0-3.29.59,6.94,6.94,0,0,0-2.5,1.7,7.59,7.59,0,0,0-1.59,2.67,11.47,11.47,0,0,0,0,7.14,7.55,7.55,0,0,0,1.65,2.72,7,7,0,0,0,2.6,1.7,9.59,9.59,0,0,0,3.44.58,9.38,9.38,0,0,0,2.66-.34,11.3,11.3,0,0,0,2.27-.93v-4.73H246.1a.63.63,0,0,1-.46-.16.53.53,0,0,1-.17-.41v-1.65Z"/><path class="cls-3" d="M274,162.64v8.25a11.88,11.88,0,0,1-3.46,1.75,13.46,13.46,0,0,1-4,.58,13.05,13.05,0,0,1-4.68-.8,10.54,10.54,0,0,1-3.57-2.25,10,10,0,0,1-2.27-3.48,12.06,12.06,0,0,1-.79-4.45,12.41,12.41,0,0,1,.77-4.49,9.89,9.89,0,0,1,2.2-3.47,9.67,9.67,0,0,1,3.46-2.24,12.47,12.47,0,0,1,4.56-.8,14.59,14.59,0,0,1,2.37.19,11.79,11.79,0,0,1,2,.54,9.53,9.53,0,0,1,1.72.86,10.25,10.25,0,0,1,1.49,1.13l-.83,1.32a.88.88,0,0,1-.5.38.84.84,0,0,1-.68-.14L271,155a7.86,7.86,0,0,0-1.13-.58,9.66,9.66,0,0,0-1.58-.47,10.28,10.28,0,0,0-2.15-.2,8.79,8.79,0,0,0-3.28.59,7,7,0,0,0-2.51,1.7,7.59,7.59,0,0,0-1.59,2.67,10.53,10.53,0,0,0-.55,3.52,10.74,10.74,0,0,0,.57,3.62,7.84,7.84,0,0,0,1.65,2.72,7.16,7.16,0,0,0,2.61,1.7,9.53,9.53,0,0,0,3.43.58,9.34,9.34,0,0,0,2.66-.34,11.15,11.15,0,0,0,2.28-.93v-4.73H268a.65.65,0,0,1-.46-.16.57.57,0,0,1-.17-.41v-1.65Z"/><path class="cls-3" d="M291.7,170.61l0,2.37H278.44v-21.5h13.24v2.37H281.35V161h8.37v2.28h-8.37v7.34Z"/><path class="cls-3" d="M313.18,151.48V173h-1.46a1.28,1.28,0,0,1-.58-.12,1.52,1.52,0,0,1-.45-.41l-12.44-16.2c0,.25,0,.5.05.74s0,.46,0,.67V173h-2.55v-21.5h1.5l.33,0a.85.85,0,0,1,.24.08,1.37,1.37,0,0,1,.21.15,3,3,0,0,1,.23.25l12.43,16.18c0-.26,0-.51-.05-.75s0-.48,0-.7V151.48Z"/><path class="cls-3" d="M337.29,162.24a12.08,12.08,0,0,1-.76,4.39,9.52,9.52,0,0,1-5.51,5.58,11.83,11.83,0,0,1-4.33.77h-8v-21.5h8a11.83,11.83,0,0,1,4.33.77,9.74,9.74,0,0,1,3.35,2.19,9.88,9.88,0,0,1,2.16,3.4A12.13,12.13,0,0,1,337.29,162.24Zm-3,0a10.79,10.79,0,0,0-.54-3.54,7.46,7.46,0,0,0-1.53-2.64,6.53,6.53,0,0,0-2.4-1.65,8.34,8.34,0,0,0-3.15-.57h-5.11v16.78h5.11a8.34,8.34,0,0,0,3.15-.57,6.62,6.62,0,0,0,2.4-1.64,7.33,7.33,0,0,0,1.53-2.63A10.79,10.79,0,0,0,334.31,162.24Z"/><path class="cls-3" d="M354.74,170.61V173H341.48v-21.5h13.25v2.37H344.39V161h8.37v2.28h-8.37v7.34Z"/><path class="cls-3" d="M383,173h-2.25a1,1,0,0,1-.63-.2,1.18,1.18,0,0,1-.36-.49l-2-5.19h-9.65l-2,5.19a1,1,0,0,1-.34.48,1,1,0,0,1-.63.21h-2.25l8.59-21.5h2.94Zm-6.06-8-3.38-8.75c-.1-.26-.2-.56-.31-.9s-.22-.72-.32-1.11a16.53,16.53,0,0,1-.64,2L368.87,165Z"/><path class="cls-3" d="M403.21,151.48V173h-1.46a1.28,1.28,0,0,1-.58-.12,1.68,1.68,0,0,1-.46-.41l-12.43-16.2c0,.25,0,.5.05.74s0,.46,0,.67V173h-2.55v-21.5h1.5l.33,0a.85.85,0,0,1,.24.08,1.37,1.37,0,0,1,.21.15l.22.25,12.44,16.18c0-.26,0-.51-.05-.75s0-.48,0-.7V151.48Z"/><path class="cls-3" d="M411.6,173h-2.91v-21.5h2.91Z"/><path class="cls-3" d="M439.46,151.48V173h-2.55v-15.8c0-.21,0-.43,0-.67s0-.49.05-.74l-7.38,13.44a1.12,1.12,0,0,1-1.05.68h-.42a1.12,1.12,0,0,1-1.05-.68l-7.53-13.5a13.13,13.13,0,0,1,.09,1.47V173h-2.55v-21.5h2.15a1.84,1.84,0,0,1,.6.08.86.86,0,0,1,.4.42l7.43,13.23c.12.24.24.49.35.75s.22.52.32.79c.1-.27.21-.53.32-.8s.23-.52.36-.76L436.31,152a.78.78,0,0,1,.4-.42,1.84,1.84,0,0,1,.6-.08Z"/><path class="cls-3" d="M462.42,173h-2.25a1,1,0,0,1-.63-.2,1.08,1.08,0,0,1-.35-.49l-2-5.19h-9.64l-2,5.19a1.07,1.07,0,0,1-.35.48,1,1,0,0,1-.63.21h-2.25l8.6-21.5h2.94Zm-6.05-8L453,156.25c-.1-.26-.2-.56-.32-.9s-.21-.72-.31-1.11a16.37,16.37,0,0,1-.65,2L448.34,165Z"/><path class="cls-3" d="M477.68,153.93h-7v19h-2.9v-19h-7v-2.45h16.83Z"/><path class="cls-3" d="M483.77,173h-2.91v-21.5h2.91Z"/><path class="cls-3" d="M509.12,162.24a12.37,12.37,0,0,1-.77,4.43,10.09,10.09,0,0,1-2.16,3.47,9.54,9.54,0,0,1-3.35,2.26,12.09,12.09,0,0,1-8.65,0,9.59,9.59,0,0,1-3.34-2.26,10.09,10.09,0,0,1-2.16-3.47,13.13,13.13,0,0,1,0-8.86,10.14,10.14,0,0,1,2.16-3.48,9.64,9.64,0,0,1,3.34-2.28,12,12,0,0,1,8.65,0,9.58,9.58,0,0,1,3.35,2.28,10.14,10.14,0,0,1,2.16,3.48A12.37,12.37,0,0,1,509.12,162.24Zm-3,0a10.69,10.69,0,0,0-.54-3.56,7.55,7.55,0,0,0-1.53-2.66,6.57,6.57,0,0,0-2.4-1.67,8.65,8.65,0,0,0-6.28,0A6.7,6.7,0,0,0,493,156a7.57,7.57,0,0,0-1.54,2.66,12,12,0,0,0,0,7.11,7.52,7.52,0,0,0,1.54,2.65,6.55,6.55,0,0,0,2.41,1.66,8.79,8.79,0,0,0,6.28,0,6.43,6.43,0,0,0,2.4-1.66,7.51,7.51,0,0,0,1.53-2.65A10.63,10.63,0,0,0,506.13,162.24Z"/><path class="cls-3" d="M530.69,151.48V173h-1.46a1.2,1.2,0,0,1-.57-.12,1.43,1.43,0,0,1-.46-.41l-12.44-16.2c0,.25,0,.5,0,.74s0,.46,0,.67V173h-2.55v-21.5h1.5l.33,0a.85.85,0,0,1,.24.08,1.37,1.37,0,0,1,.21.15,3,3,0,0,1,.23.25l12.43,16.18c0-.26,0-.51-.05-.75s0-.48,0-.7V151.48Z"/><path class="cls-4" d="M99.84,162v8.25A12,12,0,0,1,96.38,172a13.26,13.26,0,0,1-4,.58,13.05,13.05,0,0,1-4.68-.8,10.4,10.4,0,0,1-3.56-2.25,9.78,9.78,0,0,1-2.27-3.47,12.12,12.12,0,0,1-.8-4.46,12.57,12.57,0,0,1,.77-4.48,10.08,10.08,0,0,1,2.2-3.48,9.85,9.85,0,0,1,3.47-2.24,12.47,12.47,0,0,1,4.56-.79,14.63,14.63,0,0,1,2.37.18,11.67,11.67,0,0,1,2,.54,9.62,9.62,0,0,1,1.73.86,10.16,10.16,0,0,1,1.48,1.13l-.82,1.32a.83.83,0,0,1-.51.38.85.85,0,0,1-.68-.14l-.82-.51a7.51,7.51,0,0,0-1.14-.58,9.53,9.53,0,0,0-1.57-.47,10.41,10.41,0,0,0-2.15-.19,8.65,8.65,0,0,0-3.29.59,6.92,6.92,0,0,0-2.5,1.69,7.59,7.59,0,0,0-1.59,2.67,11.47,11.47,0,0,0,0,7.14A7.47,7.47,0,0,0,86.24,168a7,7,0,0,0,2.6,1.7,9.58,9.58,0,0,0,3.44.59,9.76,9.76,0,0,0,2.66-.34,12,12,0,0,0,2.27-.94v-4.72H93.87a.64.64,0,0,1-.46-.17.51.51,0,0,1-.17-.4V162Z"/><path class="cls-4" d="M120.18,172.37H117.6a1.27,1.27,0,0,1-1.17-.61l-5.58-7.68a1.66,1.66,0,0,0-.55-.52,2,2,0,0,0-.91-.16h-2.2v9h-2.9V150.88h6.08a13,13,0,0,1,3.52.41,6.6,6.6,0,0,1,2.45,1.19,4.78,4.78,0,0,1,1.44,1.88,6.32,6.32,0,0,1,.46,2.47,6.19,6.19,0,0,1-.36,2.13,5.78,5.78,0,0,1-1,1.78,6.35,6.35,0,0,1-1.67,1.34,8.13,8.13,0,0,1-2.22.84,2.89,2.89,0,0,1,1,.92Zm-9.93-11.08a7.44,7.44,0,0,0,2.22-.31,4.64,4.64,0,0,0,1.62-.87,3.61,3.61,0,0,0,1-1.34,4.41,4.41,0,0,0,.33-1.73,3.42,3.42,0,0,0-1.26-2.89,6.12,6.12,0,0,0-3.78-1h-3.18v8.12Z"/><path class="cls-4" d="M131.26,170.06a6,6,0,0,0,2.39-.45,4.93,4.93,0,0,0,1.77-1.26,5.34,5.34,0,0,0,1.11-1.93,7.54,7.54,0,0,0,.39-2.48V150.88h2.89v13.06a9.92,9.92,0,0,1-.59,3.45,8,8,0,0,1-1.7,2.75,7.64,7.64,0,0,1-2.69,1.83,10,10,0,0,1-7.14,0,7.76,7.76,0,0,1-4.4-4.58,9.69,9.69,0,0,1-.59-3.45V150.88h2.89v13.05a7.76,7.76,0,0,0,.38,2.47,5.69,5.69,0,0,0,1.11,1.94,5,5,0,0,0,1.79,1.26A5.86,5.86,0,0,0,131.26,170.06Z"/><path class="cls-4" d="M162.45,150.88v21.49H161a1.28,1.28,0,0,1-.58-.12,1.47,1.47,0,0,1-.45-.4l-12.44-16.2c0,.25,0,.49,0,.73s0,.47,0,.68v15.31H145V150.88h1.5a1.62,1.62,0,0,1,.33,0,.84.84,0,0,1,.24.07,1.37,1.37,0,0,1,.21.15,3,3,0,0,1,.23.25L160,167.56c0-.26,0-.52-.05-.76s0-.48,0-.7V150.88Z"/><path class="cls-4" d="M186.57,161.63a12.13,12.13,0,0,1-.77,4.4,9.47,9.47,0,0,1-5.51,5.57,11.83,11.83,0,0,1-4.33.77h-8V150.88h8a11.62,11.62,0,0,1,4.33.77,9.46,9.46,0,0,1,3.35,2.19,9.79,9.79,0,0,1,2.16,3.4A12.08,12.08,0,0,1,186.57,161.63Zm-3,0a10.79,10.79,0,0,0-.54-3.54,7.46,7.46,0,0,0-1.53-2.64,6.53,6.53,0,0,0-2.4-1.65,8.34,8.34,0,0,0-3.15-.57h-5.11V170H176a8.34,8.34,0,0,0,3.15-.57,6.53,6.53,0,0,0,2.4-1.65,7.33,7.33,0,0,0,1.53-2.63A10.79,10.79,0,0,0,183.58,161.63Z"/><path class="cls-4" d="M203,169.93v2.44h-12.2V150.88h2.9v19.05Z"/><path class="cls-4" d="M230,170l0,2.37H218.41l-.73-5.88h-8.34l-2.7,5.21a1.2,1.2,0,0,1-.44.48,1.15,1.15,0,0,1-.67.19h-2.21l11.34-21.49H230v2.37H218.77l.89,7.14H228v2.28h-8.09l.9,7.33Zm-12.59-5.61L216,153.05c-.13.42-.27.81-.41,1.16s-.28.68-.42,1l-4.75,9.18Z"/><path class="cls-4" d="M251.07,162v8.25a12,12,0,0,1-3.46,1.74,13.26,13.26,0,0,1-4,.58,13.05,13.05,0,0,1-4.68-.8,10.4,10.4,0,0,1-3.56-2.25,9.78,9.78,0,0,1-2.27-3.47,12.12,12.12,0,0,1-.8-4.46,12.57,12.57,0,0,1,.77-4.48,10.08,10.08,0,0,1,2.2-3.48,9.85,9.85,0,0,1,3.47-2.24,12.47,12.47,0,0,1,4.56-.79,14.63,14.63,0,0,1,2.37.18,11.67,11.67,0,0,1,2,.54,9.62,9.62,0,0,1,1.73.86,10.16,10.16,0,0,1,1.48,1.13l-.82,1.32a.83.83,0,0,1-.51.38.85.85,0,0,1-.68-.14l-.82-.51a7.51,7.51,0,0,0-1.14-.58,9.53,9.53,0,0,0-1.57-.47,10.41,10.41,0,0,0-2.15-.19,8.65,8.65,0,0,0-3.29.59,6.92,6.92,0,0,0-2.5,1.69,7.59,7.59,0,0,0-1.59,2.67,11.47,11.47,0,0,0,0,7.14,7.47,7.47,0,0,0,1.65,2.72,7,7,0,0,0,2.6,1.7,9.58,9.58,0,0,0,3.44.59,9.76,9.76,0,0,0,2.66-.34,12,12,0,0,0,2.27-.94v-4.72H245.1a.64.64,0,0,1-.46-.17.51.51,0,0,1-.17-.4V162Z"/><path class="cls-4" d="M273,162v8.25a11.85,11.85,0,0,1-3.46,1.74,14.15,14.15,0,0,1-8.7-.22,10.54,10.54,0,0,1-3.57-2.25,9.91,9.91,0,0,1-2.27-3.47,12.12,12.12,0,0,1-.79-4.46,12.36,12.36,0,0,1,.77-4.48,9.93,9.93,0,0,1,2.2-3.48,9.81,9.81,0,0,1,3.46-2.24,12.47,12.47,0,0,1,4.56-.79,14.63,14.63,0,0,1,2.37.18,11.79,11.79,0,0,1,2,.54,9.53,9.53,0,0,1,1.72.86,10.25,10.25,0,0,1,1.49,1.13l-.83,1.32a.8.8,0,0,1-1.18.24l-.83-.51a7.86,7.86,0,0,0-1.13-.58,9.66,9.66,0,0,0-1.58-.47,10.34,10.34,0,0,0-2.15-.19,8.59,8.59,0,0,0-3.28.59,7,7,0,0,0-2.51,1.69,7.59,7.59,0,0,0-1.59,2.67,10.53,10.53,0,0,0-.55,3.52,10.7,10.7,0,0,0,.57,3.62,7.75,7.75,0,0,0,1.65,2.72,7.16,7.16,0,0,0,2.61,1.7,9.53,9.53,0,0,0,3.43.59,9.71,9.71,0,0,0,2.66-.34,11.79,11.79,0,0,0,2.28-.94v-4.72H267a.65.65,0,0,1-.46-.17.54.54,0,0,1-.17-.4V162Z"/><path class="cls-4" d="M290.7,170l0,2.37H277.44V150.88h13.24v2.37H280.35v7.14h8.37v2.28h-8.37V170Z"/><path class="cls-4" d="M312.18,150.88v21.49h-1.46a1.28,1.28,0,0,1-.58-.12,1.47,1.47,0,0,1-.45-.4l-12.44-16.2c0,.25,0,.49.05.73s0,.47,0,.68v15.31h-2.55V150.88h1.5a1.62,1.62,0,0,1,.33,0,.84.84,0,0,1,.24.07,1.37,1.37,0,0,1,.21.15,3,3,0,0,1,.23.25l12.43,16.19c0-.26,0-.52-.05-.76s0-.48,0-.7V150.88Z"/><path class="cls-4" d="M336.29,161.63a12.13,12.13,0,0,1-.76,4.4A9.47,9.47,0,0,1,330,171.6a11.83,11.83,0,0,1-4.33.77h-8V150.88h8a11.62,11.62,0,0,1,4.33.77,9.46,9.46,0,0,1,3.35,2.19,9.79,9.79,0,0,1,2.16,3.4A12.08,12.08,0,0,1,336.29,161.63Zm-3,0a10.79,10.79,0,0,0-.54-3.54,7.46,7.46,0,0,0-1.53-2.64,6.53,6.53,0,0,0-2.4-1.65,8.34,8.34,0,0,0-3.15-.57h-5.11V170h5.11a8.34,8.34,0,0,0,3.15-.57,6.53,6.53,0,0,0,2.4-1.65,7.33,7.33,0,0,0,1.53-2.63A10.79,10.79,0,0,0,333.31,161.63Z"/><path class="cls-4" d="M353.74,170v2.37H340.48V150.88h13.25v2.37H343.39v7.14h8.37v2.28h-8.37V170Z"/><path class="cls-4" d="M382,172.37h-2.25a1,1,0,0,1-.63-.19,1.22,1.22,0,0,1-.36-.5l-2-5.19h-9.65l-2,5.19a1,1,0,0,1-.34.48,1,1,0,0,1-.63.21h-2.25l8.59-21.49h2.94Zm-6.06-8-3.38-8.74c-.1-.26-.2-.57-.31-.91s-.22-.71-.32-1.1a16.32,16.32,0,0,1-.64,2l-3.38,8.73Z"/><path class="cls-4" d="M402.21,150.88v21.49h-1.46a1.28,1.28,0,0,1-.58-.12,1.62,1.62,0,0,1-.46-.4l-12.43-16.2c0,.25,0,.49.05.73s0,.47,0,.68v15.31h-2.55V150.88h1.5a1.62,1.62,0,0,1,.33,0,.84.84,0,0,1,.24.07,1.37,1.37,0,0,1,.21.15l.22.25,12.44,16.19c0-.26,0-.52-.05-.76s0-.48,0-.7V150.88Z"/><path class="cls-4" d="M410.6,172.37h-2.91V150.88h2.91Z"/><path class="cls-4" d="M438.46,150.88v21.49h-2.55V156.58c0-.21,0-.44,0-.68s0-.48.05-.73l-7.38,13.44a1.11,1.11,0,0,1-1.05.67h-.42a1.11,1.11,0,0,1-1.05-.67l-7.53-13.5a13.13,13.13,0,0,1,.09,1.47v15.79h-2.55V150.88h2.15a1.89,1.89,0,0,1,.6.07.86.86,0,0,1,.4.42l7.43,13.23c.12.24.24.49.35.75s.22.53.32.8c.1-.27.21-.54.32-.81s.23-.51.36-.75l7.29-13.22a.78.78,0,0,1,.4-.42,1.89,1.89,0,0,1,.6-.07Z"/><path class="cls-4" d="M461.42,172.37h-2.25a1,1,0,0,1-.63-.19,1.11,1.11,0,0,1-.35-.5l-2-5.19h-9.64l-2,5.19a1.07,1.07,0,0,1-.35.48,1,1,0,0,1-.63.21h-2.25l8.6-21.49h2.94Zm-6.05-8L452,155.65c-.1-.26-.2-.57-.32-.91s-.21-.71-.31-1.1a16.16,16.16,0,0,1-.65,2l-3.37,8.73Z"/><path class="cls-4" d="M476.68,153.32h-7v19.05h-2.9V153.32h-7v-2.44h16.83Z"/><path class="cls-4" d="M482.77,172.37h-2.91V150.88h2.91Z"/><path class="cls-4" d="M508.12,161.63a12.37,12.37,0,0,1-.77,4.43,10.14,10.14,0,0,1-2.16,3.48,9.51,9.51,0,0,1-3.35,2.25,12,12,0,0,1-8.65,0,9.56,9.56,0,0,1-3.34-2.25,10.14,10.14,0,0,1-2.16-3.48,13.13,13.13,0,0,1,0-8.86,10.14,10.14,0,0,1,2.16-3.48,9.61,9.61,0,0,1,3.34-2.27,12,12,0,0,1,8.65,0,9.56,9.56,0,0,1,3.35,2.27,10.14,10.14,0,0,1,2.16,3.48A12.37,12.37,0,0,1,508.12,161.63Zm-3,0a10.63,10.63,0,0,0-.54-3.55,7.6,7.6,0,0,0-1.53-2.67,6.69,6.69,0,0,0-2.4-1.67,8.79,8.79,0,0,0-6.28,0,6.82,6.82,0,0,0-2.41,1.67,7.62,7.62,0,0,0-1.54,2.67,11.94,11.94,0,0,0,0,7.1,7.52,7.52,0,0,0,1.54,2.65,6.7,6.7,0,0,0,2.41,1.67,8.79,8.79,0,0,0,6.28,0,6.57,6.57,0,0,0,2.4-1.67,7.51,7.51,0,0,0,1.53-2.65A10.63,10.63,0,0,0,505.13,161.63Z"/><path class="cls-4" d="M529.69,150.88v21.49h-1.46a1.2,1.2,0,0,1-.57-.12,1.39,1.39,0,0,1-.46-.4l-12.44-16.2c0,.25,0,.49,0,.73s0,.47,0,.68v15.31h-2.55V150.88h1.5a1.62,1.62,0,0,1,.33,0,.84.84,0,0,1,.24.07,1.37,1.37,0,0,1,.21.15,3,3,0,0,1,.23.25l12.43,16.19c0-.26,0-.52-.05-.76s0-.48,0-.7V150.88Z"/><rect class="cls-4" x="73.57" y="193.43" width="463.19" height="2.61"/><rect class="cls-5" x="28.82" width="6.63" height="841.89"/><rect class="cls-6" x="31.24" width="2.29" height="841.89"/></svg>
