<svg id="Lag_1" data-name="Lag 1" xmlns="http://www.w3.org/2000/svg" xmlns:xlink="http://www.w3.org/1999/xlink" width="210mm" height="297mm" viewBox="0 0 595.28 841.89"><defs><style>.cls-1{filter:url(#AI_Skygge_1);}.cls-2{fill:#b3b7ac;}.cls-3{fill:#646463;}.cls-4{fill:#1d1d1b;}.cls-5{fill:#839276;}.cls-6{fill:#3e443c;}</style><filter id="AI_Skygge_1" name="AI_Skygge_1"><feGaussianBlur result="blur" stdDeviation="2" in="SourceAlpha"/><feOffset result="offsetBlurredAlpha" dx="4" dy="4" in="blur"/><feMerge><feMergeNode in="offsetBlurredAlpha"/><feMergeNode in="SourceGraphic"/></feMerge></filter></defs><title>Tegnebræt 15</title><g class="cls-1"><rect class="cls-2" width="595.28" height="841.89"/></g><path class="cls-3" d="M296.42,175a.58.58,0,0,1,.43.2L298,176.5a9.44,9.44,0,0,1-3.31,2.46,11.26,11.26,0,0,1-4.7.89,11,11,0,0,1-4.34-.83,9.63,9.63,0,0,1-3.33-2.33,10.55,10.55,0,0,1-2.14-3.59,13.29,13.29,0,0,1-.76-4.6,12.84,12.84,0,0,1,.79-4.6,10.48,10.48,0,0,1,2.23-3.6,9.8,9.8,0,0,1,3.43-2.33,11.25,11.25,0,0,1,4.41-.83,10.69,10.69,0,0,1,4.19.76A10.35,10.35,0,0,1,297.7,160l-1,1.38a.72.72,0,0,1-.24.25.67.67,0,0,1-.39.11,1.27,1.27,0,0,1-.69-.31,10.39,10.39,0,0,0-1.05-.67,8.52,8.52,0,0,0-1.63-.68,8.26,8.26,0,0,0-2.4-.3,8,8,0,0,0-3.15.6,6.75,6.75,0,0,0-2.45,1.73,7.83,7.83,0,0,0-1.61,2.76,11,11,0,0,0-.57,3.67,10.64,10.64,0,0,0,.6,3.7,8.16,8.16,0,0,0,1.62,2.76,7,7,0,0,0,2.44,1.71,7.76,7.76,0,0,0,3,.59,12.1,12.1,0,0,0,1.79-.12,7.9,7.9,0,0,0,1.47-.36,6.36,6.36,0,0,0,1.25-.63,8.55,8.55,0,0,0,1.16-.91A.81.81,0,0,1,296.42,175Z"/><path class="cls-3" d="M319.59,157.39l-9,22.21h-2.7l-9-22.21h2.4a1,1,0,0,1,.65.2,1.13,1.13,0,0,1,.37.51l6.27,15.67c.13.35.26.73.39,1.15s.25.84.35,1.3c.1-.46.21-.89.33-1.3a9.73,9.73,0,0,1,.37-1.15l6.24-15.67a1.2,1.2,0,0,1,.37-.49,1,1,0,0,1,.66-.22Z"/><path class="cls-4" d="M296.42,174.45a.55.55,0,0,1,.43.2l1.19,1.28a9.35,9.35,0,0,1-3.31,2.47,11.27,11.27,0,0,1-4.7.88,10.87,10.87,0,0,1-4.34-.83,9.47,9.47,0,0,1-3.33-2.32,10.55,10.55,0,0,1-2.14-3.59,13.29,13.29,0,0,1-.76-4.6,12.9,12.9,0,0,1,.79-4.61,10.53,10.53,0,0,1,2.23-3.59,10,10,0,0,1,3.43-2.34,11.43,11.43,0,0,1,4.41-.82,10.88,10.88,0,0,1,4.19.75,10.57,10.57,0,0,1,3.19,2.07l-1,1.38a.82.82,0,0,1-.24.25.67.67,0,0,1-.39.1,1.25,1.25,0,0,1-.69-.3,8.88,8.88,0,0,0-1.05-.67,7.92,7.92,0,0,0-1.63-.68,8.26,8.26,0,0,0-2.4-.3,8,8,0,0,0-3.15.6,6.73,6.73,0,0,0-2.45,1.72,8,8,0,0,0-1.61,2.76,11.11,11.11,0,0,0-.57,3.68,10.64,10.64,0,0,0,.6,3.7,8.11,8.11,0,0,0,1.62,2.75,7,7,0,0,0,2.44,1.72,7.75,7.75,0,0,0,3,.58,12.19,12.19,0,0,0,1.79-.11,7.19,7.19,0,0,0,1.47-.37,5.83,5.83,0,0,0,1.25-.62,9.42,9.42,0,0,0,1.16-.91A.76.76,0,0,1,296.42,174.45Z"/><path class="cls-4" d="M319.59,156.82l-9,22.21h-2.7l-9-22.21h2.4a1,1,0,0,1,.65.21,1.13,1.13,0,0,1,.37.51l6.27,15.67q.19.53.39,1.14c.13.42.25.85.35,1.31.1-.46.21-.89.33-1.31a10.18,10.18,0,0,1,.37-1.14l6.24-15.67a1.2,1.2,0,0,1,.37-.49,1,1,0,0,1,.66-.23Z"/><rect class="cls-4" x="73.57" y="193.43" width="463.19" height="2.61"/><rect class="cls-5" x="28.82" width="6.63" height="841.89"/><rect class="cls-6" x="31.24" width="2.29" height="841.89"/></svg>
