<svg id="Lag_1" data-name="Lag 1" xmlns="http://www.w3.org/2000/svg" xmlns:xlink="http://www.w3.org/1999/xlink" width="210mm" height="297mm" viewBox="0 0 595.28 841.89"><defs><style>.cls-1{filter:url(#AI_Skygge_1);}.cls-2{fill:#b3b7ac;}.cls-3{fill:#646463;}.cls-4{fill:#1d1d1b;}.cls-5{fill:#839276;}.cls-6{fill:#3e443c;}</style><filter id="AI_Skygge_1" name="AI_Skygge_1"><feGaussianBlur result="blur" stdDeviation="2" in="SourceAlpha"/><feOffset result="offsetBlurredAlpha" dx="4" dy="4" in="blur"/><feMerge><feMergeNode in="offsetBlurredAlpha"/><feMergeNode in="SourceGraphic"/></feMerge></filter></defs><title>cv_book</title><g class="cls-1"><rect class="cls-2" width="595.28" height="841.89"/></g><path class="cls-3" d="M301.17,179.73a.73.73,0,0,1,.55.25l1.5,1.62a12,12,0,0,1-4.16,3.1,14.31,14.31,0,0,1-5.92,1.11,14,14,0,0,1-5.46-1,11.92,11.92,0,0,1-4.19-2.93,13,13,0,0,1-2.69-4.51,16.83,16.83,0,0,1-1-5.79,16.38,16.38,0,0,1,1-5.8,13.43,13.43,0,0,1,2.8-4.52,12.39,12.39,0,0,1,4.32-2.93,14.31,14.31,0,0,1,5.56-1,13.45,13.45,0,0,1,5.26,1,13.09,13.09,0,0,1,4,2.59l-1.25,1.74a1,1,0,0,1-.3.32.9.9,0,0,1-.5.13,1.54,1.54,0,0,1-.85-.38,11.61,11.61,0,0,0-1.33-.85,10.31,10.31,0,0,0-2.05-.85,10.43,10.43,0,0,0-3-.38,10.2,10.2,0,0,0-4,.75,8.62,8.62,0,0,0-3.09,2.17,10,10,0,0,0-2,3.47,13.93,13.93,0,0,0-.72,4.63,13.52,13.52,0,0,0,.75,4.66,10.22,10.22,0,0,0,2.05,3.46,8.55,8.55,0,0,0,3.06,2.15,9.66,9.66,0,0,0,3.81.74,16.84,16.84,0,0,0,2.25-.14,9.37,9.37,0,0,0,1.86-.46,8,8,0,0,0,1.58-.79,12,12,0,0,0,1.45-1.14A1,1,0,0,1,301.17,179.73Z"/><path class="cls-3" d="M330.32,157.55,318.94,185.5h-3.4l-11.38-27.95h3a1.26,1.26,0,0,1,.82.26,1.59,1.59,0,0,1,.47.64l7.87,19.72c.17.44.34.92.5,1.44s.31,1.07.44,1.64c.13-.57.27-1.12.41-1.64a14.33,14.33,0,0,1,.47-1.44L326,158.45a1.4,1.4,0,0,1,.45-.61,1.27,1.27,0,0,1,.83-.29Z"/><path class="cls-4" d="M300.17,179.16a.74.74,0,0,1,.55.26l1.5,1.61a12,12,0,0,1-4.16,3.11,14.28,14.28,0,0,1-5.92,1.11,13.77,13.77,0,0,1-5.46-1.05,11.89,11.89,0,0,1-4.19-2.92,13.09,13.09,0,0,1-2.69-4.52,16.75,16.75,0,0,1-1-5.79,16.37,16.37,0,0,1,1-5.79,13.43,13.43,0,0,1,2.8-4.52,12.55,12.55,0,0,1,4.32-2.94,14.49,14.49,0,0,1,5.56-1,13.64,13.64,0,0,1,5.26.95,13.31,13.31,0,0,1,4,2.6L300.54,162a1,1,0,0,1-.3.33.9.9,0,0,1-.5.12,1.47,1.47,0,0,1-.85-.38,15.2,15.2,0,0,0-1.33-.85,10.33,10.33,0,0,0-2.05-.84,11.37,11.37,0,0,0-7,.37,8.62,8.62,0,0,0-3.09,2.17,10.14,10.14,0,0,0-2,3.47,13.91,13.91,0,0,0-.72,4.62,13.48,13.48,0,0,0,.75,4.66,10.12,10.12,0,0,0,2.05,3.46,8.45,8.45,0,0,0,3.06,2.16,9.84,9.84,0,0,0,3.81.74,15.47,15.47,0,0,0,2.26-.15,9.45,9.45,0,0,0,1.85-.45,8.64,8.64,0,0,0,1.58-.79,12,12,0,0,0,1.45-1.14A1,1,0,0,1,300.17,179.16Z"/><path class="cls-4" d="M329.32,157l-11.38,27.94h-3.4L303.16,157h3a1.31,1.31,0,0,1,.82.25,1.63,1.63,0,0,1,.47.65l7.87,19.71c.17.44.34.93.5,1.45s.31,1.06.44,1.63c.13-.57.27-1.11.41-1.63a14.55,14.55,0,0,1,.47-1.45L325,157.89a1.43,1.43,0,0,1,.45-.62,1.32,1.32,0,0,1,.83-.28Z"/><rect class="cls-4" x="73.57" y="193.43" width="463.19" height="2.61"/><rect class="cls-5" x="28.82" width="6.63" height="841.89"/><rect class="cls-6" x="31.24" width="2.29" height="841.89"/></svg>
