<svg id="Lag_1" data-name="Lag 1" xmlns="http://www.w3.org/2000/svg" xmlns:xlink="http://www.w3.org/1999/xlink" width="670" height="688" viewBox="0 0 670 688"><defs><style>.cls-1{filter:url(#AI_Skygge_1);}.cls-2,.cls-4{fill:#fff;}.cls-2,.cls-3,.cls-4,.cls-5,.cls-6,.cls-7,.cls-8{stroke:#000;stroke-miterlimit:10;}.cls-3{fill:#cffff8;}.cls-4{stroke-width:4px;}.cls-5,.cls-8{fill:none;}.cls-5{stroke-width:3px;}.cls-6{fill:#ffe98a;}.cls-8{stroke-width:2px;}</style><filter id="AI_Skygge_1" name="AI_Skygge_1"><feGaussianBlur result="blur" stdDeviation="2" in="SourceAlpha"/><feOffset result="offsetBlurredAlpha" dx="4" dy="4" in="blur"/><feMerge><feMergeNode in="offsetBlurredAlpha"/><feMergeNode in="SourceGraphic"/></feMerge></filter></defs><title>karakter</title><g class="cls-1"><path class="cls-2" d="M370.71,233.44m-.42,0,.32-19.95"/><path class="cls-3" d="M626.93,263.85c-6.78,99.87-81.08,152.53-213.16,166.85-87.51,9.48-151.51-10.79-181.24-58.3q-2.59-4.14-4.82-8.49c-14.12-27.61-12.89-61.07-7.72-100.06,12.11-91.34,43.76-177.49,192.7-199.4C631.35,32.28,632.46,182.39,626.93,263.85Z"/><path class="cls-3" d="M216.76,327.94c-49.53-6.1-87.2,26.46-99,27.47s-21.53-2-60.29-38.66S84.89,386,107,383.9c20.8-2,120-4.49,145.33,10.17"/><path class="cls-3" d="M516,407.3c1.91-2.66,25.17,39,40.5,37.47s8.62-40.26-1.74-56.8C556.14,390.75,514.41,409.58,516,407.3Z"/><ellipse class="cls-4" cx="372.86" cy="218.58" rx="77.51" ry="81.9"/><ellipse class="cls-4" cx="528.96" cy="199.76" rx="67.82" ry="77.32"/><polyline class="cls-5" points="295.35 333.03 323.34 363.55 341.64 333.03 382.55 375.76 409.46 333.03 461.14 354.4 477.29 319.81 517.12 333.03 551.57 299.46 569.87 299.46 584.94 270.97"/><path class="cls-6" d="M482.13,552.23c0,41.23-49.26,66.89-111.84,66.89s-114.78-25.66-114.78-66.89c0-39.9,47.15-66.77,106.94-68.83,2-.07-2,0,0,0C425,483.4,482.13,511,482.13,552.23Z"/><ellipse class="cls-6" cx="369.07" cy="551.68" rx="89.33" ry="67.88"/><ellipse class="cls-6" cx="368.57" cy="551.68" rx="56.53" ry="67.88"/><ellipse class="cls-6" cx="368.57" cy="552.56" rx="23.22" ry="67.88"/><polygon class="cls-7" points="312.04 548.24 334.42 510.08 361 561.32 312.04 548.24"/><polygon class="cls-7" points="432.16 547.38 410.71 511.83 385.23 559.57 432.16 547.38"/><polygon class="cls-7" points="304.98 573.14 315.07 593.28 335.26 579.27 348.38 597.66 363.52 585.4 375.64 597.66 394.81 585.4 405.92 597.66 432.16 585.4 411.98 585.4 394.81 573.14 377.65 585.4 363.52 573.14 348.38 585.4 331.22 568.76 318.8 580.22 304.98 573.14"/><path class="cls-3" d="M343.41,407.71c2.93,37.2,8.61,57,26.92,67.15s29.11-36.3,34.45-59"/><path class="cls-8" d="M333,490.51c34-45.27,65-45.85,92.33,6"/></g></svg>
