<svg id="Lag_1" data-name="Lag 1" xmlns="http://www.w3.org/2000/svg" xmlns:xlink="http://www.w3.org/1999/xlink" width="210mm" height="297mm" viewBox="0 0 595.28 841.89"><defs><style>.cls-1{filter:url(#AI_Skygge_1);}.cls-2{fill:#bba2ba;}.cls-3{fill:#646463;}.cls-4{fill:#1d1d1b;}.cls-5{fill:#a882a3;}.cls-6{fill:#7a647a;}</style><filter id="AI_Skygge_1" name="AI_Skygge_1"><feGaussianBlur result="blur" stdDeviation="2" in="SourceAlpha"/><feOffset result="offsetBlurredAlpha" dx="4" dy="4" in="blur"/><feMerge><feMergeNode in="offsetBlurredAlpha"/><feMergeNode in="SourceGraphic"/></feMerge></filter></defs><title>Tegnebræt 11</title><g class="cls-1"><rect class="cls-2" width="595.28" height="841.89"/></g><path class="cls-3" d="M105.51,169v8.52a12.53,12.53,0,0,1-3.57,1.81,14.13,14.13,0,0,1-4.16.59,13.25,13.25,0,0,1-4.84-.83,10.54,10.54,0,0,1-3.68-2.32,10.14,10.14,0,0,1-2.35-3.59,12.42,12.42,0,0,1-.82-4.6,13,13,0,0,1,.8-4.64,10.32,10.32,0,0,1,2.27-3.59,10.15,10.15,0,0,1,3.58-2.31,12.83,12.83,0,0,1,4.71-.82,14.5,14.5,0,0,1,2.45.19A11.6,11.6,0,0,1,102,158a9.22,9.22,0,0,1,1.78.88,11.78,11.78,0,0,1,1.54,1.17l-.85,1.37a.94.94,0,0,1-.52.39.88.88,0,0,1-.71-.15c-.25-.14-.53-.32-.85-.52a7,7,0,0,0-1.17-.6,10,10,0,0,0-1.63-.49,10.93,10.93,0,0,0-2.22-.2,9,9,0,0,0-3.4.61,7.16,7.16,0,0,0-2.58,1.75A7.64,7.64,0,0,0,89.73,165a10.9,10.9,0,0,0-.57,3.64,11.16,11.16,0,0,0,.59,3.74,7.89,7.89,0,0,0,1.71,2.81,7.32,7.32,0,0,0,2.69,1.76,10.88,10.88,0,0,0,6.3.25,11.55,11.55,0,0,0,2.35-1v-4.88H99.34a.66.66,0,0,1-.47-.17.54.54,0,0,1-.18-.42V169Z"/><path class="cls-3" d="M126.53,179.72h-2.67a1.33,1.33,0,0,1-1.21-.64l-5.76-7.94a1.87,1.87,0,0,0-.57-.53,2,2,0,0,0-.94-.16h-2.27v9.27h-3V157.5h6.28a13.82,13.82,0,0,1,3.64.43,7,7,0,0,1,2.54,1.23,5,5,0,0,1,1.48,2,6.51,6.51,0,0,1,.48,2.55,6.6,6.6,0,0,1-.37,2.2,6,6,0,0,1-1.08,1.84,6.37,6.37,0,0,1-1.72,1.38,8.72,8.72,0,0,1-2.3.87,3,3,0,0,1,1,1Zm-10.26-11.46a7.65,7.65,0,0,0,2.3-.32,4.61,4.61,0,0,0,1.67-.9,3.74,3.74,0,0,0,1-1.38,4.5,4.5,0,0,0,.34-1.79,3.54,3.54,0,0,0-1.3-3,6.35,6.35,0,0,0-3.91-1h-3.28v8.38Z"/><path class="cls-3" d="M138,177.33a6.25,6.25,0,0,0,2.47-.47,5.13,5.13,0,0,0,1.83-1.3,5.49,5.49,0,0,0,1.15-2,8,8,0,0,0,.4-2.56V157.5h3V171a10.33,10.33,0,0,1-.61,3.57,8.35,8.35,0,0,1-1.76,2.84,8.06,8.06,0,0,1-2.78,1.89,10.35,10.35,0,0,1-7.38,0,8,8,0,0,1-4.55-4.73,10.33,10.33,0,0,1-.61-3.57V157.5h3V171a8,8,0,0,0,.4,2.56,5.58,5.58,0,0,0,1.15,2,5.36,5.36,0,0,0,1.84,1.31A6.25,6.25,0,0,0,138,177.33Z"/><path class="cls-3" d="M170.21,157.5v22.22H168.7a1.32,1.32,0,0,1-.59-.13,1.51,1.51,0,0,1-.48-.42l-12.84-16.74c0,.26,0,.51,0,.76s0,.48,0,.7v15.83h-2.64V157.5h1.55a1.58,1.58,0,0,1,.34,0,.82.82,0,0,1,.25.07,1,1,0,0,1,.22.16,2.1,2.1,0,0,1,.23.26l12.85,16.72c0-.27,0-.53-.05-.78s0-.5,0-.72V157.5Z"/><path class="cls-3" d="M195.13,168.62a12.47,12.47,0,0,1-.79,4.54,9.8,9.8,0,0,1-5.7,5.76,12.1,12.1,0,0,1-4.47.8h-8.29V157.5h8.29a12.1,12.1,0,0,1,4.47.8,9.94,9.94,0,0,1,3.47,2.26,10.22,10.22,0,0,1,2.23,3.52A12.4,12.4,0,0,1,195.13,168.62Zm-3.08,0a11.17,11.17,0,0,0-.56-3.66,7.72,7.72,0,0,0-1.58-2.73,6.82,6.82,0,0,0-2.48-1.7,8.49,8.49,0,0,0-3.26-.59h-5.28v17.34h5.28a8.49,8.49,0,0,0,3.26-.59,6.93,6.93,0,0,0,2.48-1.69,7.68,7.68,0,0,0,1.58-2.72A11.25,11.25,0,0,0,192.05,168.62Z"/><path class="cls-3" d="M212.06,177.19v2.53h-12.6V157.5h3v19.69Z"/><path class="cls-3" d="M240,177.27l0,2.45H228l-.76-6.08h-8.62L215.87,179a1.27,1.27,0,0,1-.45.5,1.25,1.25,0,0,1-.7.2h-2.28l11.72-22.22H240V160H228.41l.91,7.38H238v2.36h-8.35l.93,7.58Zm-13-5.8-1.47-11.72a11.66,11.66,0,0,1-.42,1.19c-.14.37-.29.71-.43,1l-4.92,9.49Z"/><path class="cls-3" d="M261.78,169v8.52a12.53,12.53,0,0,1-3.57,1.81,14.13,14.13,0,0,1-4.16.59,13.25,13.25,0,0,1-4.84-.83,10.54,10.54,0,0,1-3.68-2.32,10.14,10.14,0,0,1-2.35-3.59,12.42,12.42,0,0,1-.82-4.6,13,13,0,0,1,.8-4.64,10.32,10.32,0,0,1,2.27-3.59,10.15,10.15,0,0,1,3.58-2.31,12.79,12.79,0,0,1,4.71-.82,14.5,14.5,0,0,1,2.45.19,11.6,11.6,0,0,1,2.09.56,9.22,9.22,0,0,1,1.78.88,11.78,11.78,0,0,1,1.54,1.17l-.85,1.37a.94.94,0,0,1-.52.39.88.88,0,0,1-.71-.15c-.25-.14-.53-.32-.85-.52a7,7,0,0,0-1.17-.6,10,10,0,0,0-1.63-.49,11,11,0,0,0-2.22-.2,9,9,0,0,0-3.4.61,7.28,7.28,0,0,0-2.59,1.75A7.76,7.76,0,0,0,246,165a10.9,10.9,0,0,0-.57,3.64,11.16,11.16,0,0,0,.59,3.74,7.89,7.89,0,0,0,1.71,2.81,7.32,7.32,0,0,0,2.69,1.76,10.88,10.88,0,0,0,6.3.25,11.55,11.55,0,0,0,2.35-1v-4.88h-3.46a.66.66,0,0,1-.47-.17.54.54,0,0,1-.18-.42V169Z"/><path class="cls-3" d="M284.43,169v8.52a12.45,12.45,0,0,1-3.58,1.81,14,14,0,0,1-4.16.59,13.16,13.16,0,0,1-4.83-.83,10.59,10.59,0,0,1-3.69-2.32,10.11,10.11,0,0,1-2.34-3.59,12.42,12.42,0,0,1-.83-4.6,13,13,0,0,1,.8-4.64,9.88,9.88,0,0,1,5.85-5.9,12.88,12.88,0,0,1,4.72-.82,14.38,14.38,0,0,1,2.44.19,11.49,11.49,0,0,1,2.1.56,9.51,9.51,0,0,1,1.78.88,11,11,0,0,1,1.53,1.17l-.85,1.37a.91.91,0,0,1-.52.39.87.87,0,0,1-.7-.15c-.25-.14-.53-.32-.85-.52a7.6,7.6,0,0,0-1.18-.6,10.12,10.12,0,0,0-1.62-.49,11.11,11.11,0,0,0-2.23-.2,8.94,8.94,0,0,0-3.39.61,7.2,7.2,0,0,0-2.59,1.75,7.76,7.76,0,0,0-1.64,2.76,10.65,10.65,0,0,0-.58,3.64,10.91,10.91,0,0,0,.6,3.74,7.89,7.89,0,0,0,1.71,2.81,7.28,7.28,0,0,0,2.68,1.76,10.91,10.91,0,0,0,6.31.25,11.24,11.24,0,0,0,2.34-1v-4.88h-3.45a.69.69,0,0,1-.48-.17.54.54,0,0,1-.17-.42V169Z"/><path class="cls-3" d="M302.73,177.27v2.45H289V157.5h13.69V160H292v7.38h8.64v2.36H292v7.58Z"/><path class="cls-3" d="M324.93,157.5v22.22h-1.51a1.32,1.32,0,0,1-.59-.13,1.51,1.51,0,0,1-.48-.42L309.5,162.43c0,.26,0,.51.05.76s0,.48,0,.7v15.83h-2.64V157.5h1.55a1.58,1.58,0,0,1,.34,0,.82.82,0,0,1,.25.07,1,1,0,0,1,.22.16,2.1,2.1,0,0,1,.23.26l12.85,16.72c0-.27,0-.53-.05-.78s0-.5,0-.72V157.5Z"/><path class="cls-3" d="M349.85,168.62a12.47,12.47,0,0,1-.79,4.54,9.8,9.8,0,0,1-5.7,5.76,12.13,12.13,0,0,1-4.47.8H330.6V157.5h8.29a12.13,12.13,0,0,1,4.47.8,9.94,9.94,0,0,1,3.47,2.26,10.22,10.22,0,0,1,2.23,3.52A12.4,12.4,0,0,1,349.85,168.62Zm-3.08,0a11.17,11.17,0,0,0-.56-3.66,7.72,7.72,0,0,0-1.58-2.73,6.82,6.82,0,0,0-2.48-1.7,8.49,8.49,0,0,0-3.26-.59h-5.28v17.34h5.28a8.49,8.49,0,0,0,3.26-.59,6.93,6.93,0,0,0,2.48-1.69,7.68,7.68,0,0,0,1.58-2.72A11.25,11.25,0,0,0,346.77,168.62Z"/><path class="cls-3" d="M367.88,177.27l0,2.45H354.18V157.5h13.68V160H357.18v7.38h8.65v2.36h-8.65v7.58Z"/><path class="cls-3" d="M383,179.72h-3V157.5h3Z"/><path class="cls-3" d="M406.69,157.5v22.22h-1.51a1.32,1.32,0,0,1-.59-.13,1.51,1.51,0,0,1-.48-.42l-12.85-16.74c0,.26,0,.51.05.76s0,.48,0,.7v15.83h-2.64V157.5h1.55a1.58,1.58,0,0,1,.34,0,.82.82,0,0,1,.25.07,1,1,0,0,1,.22.16,2.1,2.1,0,0,1,.23.26l12.85,16.72c0-.27,0-.53-.05-.78s0-.5,0-.72V157.5Z"/><path class="cls-3" d="M431.61,168.62a12.47,12.47,0,0,1-.79,4.54,9.8,9.8,0,0,1-5.7,5.76,12.06,12.06,0,0,1-4.47.8h-8.29V157.5h8.29a12.06,12.06,0,0,1,4.47.8,9.94,9.94,0,0,1,3.47,2.26,10.22,10.22,0,0,1,2.23,3.52A12.4,12.4,0,0,1,431.61,168.62Zm-3.08,0A11.17,11.17,0,0,0,428,165a7.72,7.72,0,0,0-1.58-2.73,6.74,6.74,0,0,0-2.48-1.7,8.49,8.49,0,0,0-3.26-.59h-5.28v17.34h5.28a8.49,8.49,0,0,0,3.26-.59,6.84,6.84,0,0,0,2.48-1.69,7.68,7.68,0,0,0,1.58-2.72A11.25,11.25,0,0,0,428.53,168.62Z"/><path class="cls-3" d="M453.93,157.5v22.22h-3V169.61h-12v10.11h-3V157.5h3v9.91h12V157.5Z"/><path class="cls-3" d="M480.13,168.62a13,13,0,0,1-.79,4.58,10.65,10.65,0,0,1-2.24,3.59,9.92,9.92,0,0,1-3.46,2.33,12.45,12.45,0,0,1-8.94,0,10,10,0,0,1-3.45-2.33A10.65,10.65,0,0,1,459,173.2a13.67,13.67,0,0,1,0-9.16,10.69,10.69,0,0,1,2.24-3.6,10,10,0,0,1,3.45-2.35,12.45,12.45,0,0,1,8.94,0,10,10,0,0,1,3.46,2.35,10.69,10.69,0,0,1,2.24,3.6A13,13,0,0,1,480.13,168.62Zm-3.09,0a11.38,11.38,0,0,0-.56-3.68,7.81,7.81,0,0,0-1.58-2.75,6.94,6.94,0,0,0-2.48-1.73,9.08,9.08,0,0,0-6.49,0,7.06,7.06,0,0,0-2.49,1.73,7.68,7.68,0,0,0-1.59,2.75,11.38,11.38,0,0,0-.56,3.68,11.25,11.25,0,0,0,.56,3.66,7.68,7.68,0,0,0,1.59,2.75,6.91,6.91,0,0,0,2.49,1.72,9.22,9.22,0,0,0,6.49,0A6.79,6.79,0,0,0,474.9,175a7.81,7.81,0,0,0,1.58-2.75A11.25,11.25,0,0,0,477,168.62Z"/><path class="cls-3" d="M497,177.19v2.53h-12.6V157.5h3v19.69Z"/><path class="cls-3" d="M519.59,168.62a12.69,12.69,0,0,1-.79,4.54,9.8,9.8,0,0,1-5.7,5.76,12.13,12.13,0,0,1-4.47.8h-8.29V157.5h8.29a12.13,12.13,0,0,1,4.47.8,10,10,0,0,1,3.47,2.26,10.22,10.22,0,0,1,2.23,3.52A12.61,12.61,0,0,1,519.59,168.62Zm-3.09,0A11.17,11.17,0,0,0,516,165a7.74,7.74,0,0,0-1.59-2.73,6.66,6.66,0,0,0-2.48-1.7,8.44,8.44,0,0,0-3.25-.59h-5.29v17.34h5.29a8.44,8.44,0,0,0,3.25-.59,6.76,6.76,0,0,0,2.48-1.69,7.7,7.7,0,0,0,1.59-2.72A11.26,11.26,0,0,0,516.5,168.62Z"/><path class="cls-4" d="M104.86,167.91v8.52a12.45,12.45,0,0,1-3.58,1.81,13.71,13.71,0,0,1-4.16.6,13.37,13.37,0,0,1-4.83-.83,10.47,10.47,0,0,1-3.68-2.33,9.92,9.92,0,0,1-2.35-3.59,12.39,12.39,0,0,1-.82-4.6,12.93,12.93,0,0,1,.79-4.63,10.37,10.37,0,0,1,2.27-3.59A10.21,10.21,0,0,1,92.08,157a12.88,12.88,0,0,1,4.72-.82,14.5,14.5,0,0,1,2.45.19,11.6,11.6,0,0,1,2.09.56,10.17,10.17,0,0,1,1.78.88,10.38,10.38,0,0,1,1.53,1.18l-.85,1.36a.81.81,0,0,1-.52.39.9.9,0,0,1-.7-.14c-.25-.15-.53-.32-.85-.53a6.79,6.79,0,0,0-1.18-.6,9,9,0,0,0-1.62-.48,10.37,10.37,0,0,0-2.23-.21,8.94,8.94,0,0,0-3.39.62,7.07,7.07,0,0,0-2.59,1.75,7.76,7.76,0,0,0-1.64,2.76,11.8,11.8,0,0,0,0,7.37A7.89,7.89,0,0,0,90.81,174a7.19,7.19,0,0,0,2.69,1.76,9.9,9.9,0,0,0,3.55.6,9.66,9.66,0,0,0,2.75-.35,11.77,11.77,0,0,0,2.34-1V170.2H98.69a.61.61,0,0,1-.47-.17.54.54,0,0,1-.18-.42v-1.7Z"/><path class="cls-4" d="M125.88,178.59h-2.67A1.31,1.31,0,0,1,122,178L116.23,170a1.67,1.67,0,0,0-.56-.54,2.06,2.06,0,0,0-.94-.16h-2.28v9.27h-3V156.38h6.28a13.9,13.9,0,0,1,3.64.42,7,7,0,0,1,2.53,1.24,4.83,4.83,0,0,1,1.48,1.94,6.73,6.73,0,0,1,.11,4.75,5.66,5.66,0,0,1-1.07,1.84,6.77,6.77,0,0,1-1.72,1.39,8.45,8.45,0,0,1-2.31.86,3,3,0,0,1,1,1Zm-10.27-11.46a7.74,7.74,0,0,0,2.31-.31,4.85,4.85,0,0,0,1.67-.9,3.64,3.64,0,0,0,1-1.39,4.49,4.49,0,0,0,.35-1.78,3.55,3.55,0,0,0-1.31-3,6.25,6.25,0,0,0-3.9-1h-3.29v8.38Z"/><path class="cls-4" d="M137.33,176.2a6.17,6.17,0,0,0,2.46-.46,5.21,5.21,0,0,0,1.84-1.3,5.89,5.89,0,0,0,1.15-2,8,8,0,0,0,.39-2.56v-13.5h3v13.5a10,10,0,0,1-.61,3.56,8.27,8.27,0,0,1-1.75,2.85,8,8,0,0,1-2.78,1.88,10.35,10.35,0,0,1-7.38,0,8,8,0,0,1-2.79-1.88,8.3,8.3,0,0,1-1.76-2.85,10,10,0,0,1-.61-3.56v-13.5h3v13.48a7.72,7.72,0,0,0,.4,2.56,5.71,5.71,0,0,0,1.14,2,5.27,5.27,0,0,0,1.85,1.31A6.25,6.25,0,0,0,137.33,176.2Z"/><path class="cls-4" d="M169.55,156.38v22.21h-1.5a1.21,1.21,0,0,1-.6-.13,1.57,1.57,0,0,1-.47-.41l-12.85-16.74c0,.25,0,.51.05.76s0,.48,0,.69v15.83h-2.63V156.38h1.55l.34,0a.84.84,0,0,1,.46.23,3.2,3.2,0,0,1,.24.26L167,173.61c0-.27,0-.53-.06-.78s0-.49,0-.72V156.38Z"/><path class="cls-4" d="M194.48,167.49a12.65,12.65,0,0,1-.79,4.54,10.06,10.06,0,0,1-2.24,3.51,9.87,9.87,0,0,1-3.46,2.25,12.13,12.13,0,0,1-4.47.8h-8.29V156.38h8.29a11.93,11.93,0,0,1,4.47.8,9.76,9.76,0,0,1,3.46,2.26,10.15,10.15,0,0,1,2.24,3.51A12.65,12.65,0,0,1,194.48,167.49Zm-3.09,0a11,11,0,0,0-.56-3.66,7.66,7.66,0,0,0-1.58-2.73,6.74,6.74,0,0,0-2.48-1.7,8.63,8.63,0,0,0-3.25-.59h-5.29v17.35h5.29a8.63,8.63,0,0,0,3.25-.59,6.86,6.86,0,0,0,2.48-1.7,7.53,7.53,0,0,0,1.58-2.72A11,11,0,0,0,191.39,167.49Z"/><path class="cls-4" d="M211.4,176.06v2.53H198.8V156.38h3v19.68Z"/><path class="cls-4" d="M239.36,176.14v2.45h-12l-.76-6.08H218l-2.79,5.38a1.39,1.39,0,0,1-.45.51,1.33,1.33,0,0,1-.7.19h-2.28l11.72-22.21h15.84v2.45h-11.6l.92,7.37h8.65v2.36H229l.93,7.58Zm-13-5.8-1.47-11.71c-.14.43-.28.83-.42,1.19s-.29.71-.44,1l-4.91,9.48Z"/><path class="cls-4" d="M261.13,167.91v8.52a12.45,12.45,0,0,1-3.58,1.81,13.71,13.71,0,0,1-4.16.6,13.37,13.37,0,0,1-4.83-.83,10.47,10.47,0,0,1-3.68-2.33,9.92,9.92,0,0,1-2.35-3.59,12.39,12.39,0,0,1-.82-4.6,12.93,12.93,0,0,1,.79-4.63,10.37,10.37,0,0,1,2.27-3.59,10.21,10.21,0,0,1,3.58-2.32,12.88,12.88,0,0,1,4.72-.82,14.59,14.59,0,0,1,2.45.19,11.6,11.6,0,0,1,2.09.56,10.17,10.17,0,0,1,1.78.88,10.38,10.38,0,0,1,1.53,1.18l-.85,1.36a.83.83,0,0,1-.52.39.9.9,0,0,1-.7-.14c-.25-.15-.53-.32-.85-.53a6.79,6.79,0,0,0-1.18-.6,9,9,0,0,0-1.62-.48,10.37,10.37,0,0,0-2.23-.21,8.94,8.94,0,0,0-3.39.62A7.07,7.07,0,0,0,247,161.1a7.76,7.76,0,0,0-1.64,2.76,11.8,11.8,0,0,0,0,7.37,7.89,7.89,0,0,0,1.71,2.81,7.16,7.16,0,0,0,2.68,1.76,10,10,0,0,0,3.55.6,9.68,9.68,0,0,0,2.76-.35,11.77,11.77,0,0,0,2.34-1V170.2H255a.64.64,0,0,1-.48-.17.57.57,0,0,1-.17-.42v-1.7Z"/><path class="cls-4" d="M283.77,167.91v8.52a12.27,12.27,0,0,1-3.57,1.81,13.76,13.76,0,0,1-4.16.6,13.46,13.46,0,0,1-4.84-.83,10.56,10.56,0,0,1-3.68-2.33,10,10,0,0,1-2.35-3.59,12.39,12.39,0,0,1-.82-4.6,12.93,12.93,0,0,1,.8-4.63,10.23,10.23,0,0,1,2.27-3.59A10,10,0,0,1,271,157a12.83,12.83,0,0,1,4.71-.82,14.42,14.42,0,0,1,2.45.19,11.6,11.6,0,0,1,2.09.56,10.27,10.27,0,0,1,1.79.88,11.55,11.55,0,0,1,1.53,1.18l-.85,1.36a.86.86,0,0,1-.52.39.92.92,0,0,1-.71-.14c-.24-.15-.53-.32-.85-.53a7,7,0,0,0-1.17-.6,9.1,9.1,0,0,0-1.63-.48,10.2,10.2,0,0,0-2.22-.21,9,9,0,0,0-3.4.62,7,7,0,0,0-2.58,1.75,7.78,7.78,0,0,0-1.65,2.76,11.9,11.9,0,0,0,0,7.37,7.73,7.73,0,0,0,1.7,2.81,7.27,7.27,0,0,0,2.69,1.76,9.94,9.94,0,0,0,3.55.6,9.61,9.61,0,0,0,2.75-.35,11.85,11.85,0,0,0,2.35-1V170.2H277.6a.63.63,0,0,1-.47-.17.54.54,0,0,1-.18-.42v-1.7Z"/><path class="cls-4" d="M302.08,176.14l0,2.45H288.38V156.38h13.68v2.45H291.38v7.37H300v2.36h-8.65v7.58Z"/><path class="cls-4" d="M324.27,156.38v22.21h-1.5a1.21,1.21,0,0,1-.6-.13,1.57,1.57,0,0,1-.47-.41l-12.85-16.74c0,.25,0,.51,0,.76s0,.48,0,.69v15.83h-2.63V156.38h1.55l.34,0a1,1,0,0,1,.25.08.91.91,0,0,1,.21.15,3.2,3.2,0,0,1,.24.26l12.85,16.72-.06-.78c0-.25,0-.49,0-.72V156.38Z"/><path class="cls-4" d="M349.2,167.49a12.65,12.65,0,0,1-.79,4.54,10.06,10.06,0,0,1-2.24,3.51,9.87,9.87,0,0,1-3.46,2.25,12.13,12.13,0,0,1-4.47.8H330V156.38h8.29a11.93,11.93,0,0,1,4.47.8,9.76,9.76,0,0,1,3.46,2.26,10.15,10.15,0,0,1,2.24,3.51A12.65,12.65,0,0,1,349.2,167.49Zm-3.09,0a11,11,0,0,0-.56-3.66A7.81,7.81,0,0,0,344,161.1a6.66,6.66,0,0,0-2.48-1.7,8.63,8.63,0,0,0-3.25-.59H333v17.35h5.29a8.63,8.63,0,0,0,3.25-.59,6.78,6.78,0,0,0,2.48-1.7,7.68,7.68,0,0,0,1.58-2.72A11,11,0,0,0,346.11,167.49Z"/><path class="cls-4" d="M367.22,176.14v2.45H353.52V156.38h13.69v2.45H356.53v7.37h8.65v2.36h-8.65v7.58Z"/><path class="cls-4" d="M382.37,178.59h-3V156.38h3Z"/><path class="cls-4" d="M406,156.38v22.21h-1.5a1.21,1.21,0,0,1-.6-.13,1.57,1.57,0,0,1-.47-.41l-12.85-16.74c0,.25,0,.51.05.76s0,.48,0,.69v15.83H388V156.38h1.55l.34,0a.84.84,0,0,1,.46.23,3.2,3.2,0,0,1,.24.26l12.85,16.72-.06-.78c0-.25,0-.49,0-.72V156.38Z"/><path class="cls-4" d="M431,167.49a12.65,12.65,0,0,1-.79,4.54,10.18,10.18,0,0,1-2.23,3.51,10,10,0,0,1-3.47,2.25,12.13,12.13,0,0,1-4.47.8h-8.29V156.38H420a11.93,11.93,0,0,1,4.47.8,9.89,9.89,0,0,1,3.47,2.26,10.28,10.28,0,0,1,2.23,3.51A12.65,12.65,0,0,1,431,167.49Zm-3.09,0a11,11,0,0,0-.56-3.66,7.66,7.66,0,0,0-1.58-2.73,6.74,6.74,0,0,0-2.48-1.7,8.63,8.63,0,0,0-3.25-.59h-5.29v17.35H420a8.63,8.63,0,0,0,3.25-.59,6.86,6.86,0,0,0,2.48-1.7,7.53,7.53,0,0,0,1.58-2.72A11,11,0,0,0,427.87,167.49Z"/><path class="cls-4" d="M453.28,156.38v22.21h-3V168.48h-12v10.11h-3V156.38h3v9.9h12v-9.9Z"/><path class="cls-4" d="M479.47,167.49a12.77,12.77,0,0,1-.79,4.58,10.53,10.53,0,0,1-2.23,3.59A10,10,0,0,1,473,178a12.42,12.42,0,0,1-8.93,0,10,10,0,0,1-3.46-2.33,10.53,10.53,0,0,1-2.23-3.59,13.67,13.67,0,0,1,0-9.16,10.67,10.67,0,0,1,2.23-3.6,10,10,0,0,1,3.46-2.34,12.29,12.29,0,0,1,8.93,0,10,10,0,0,1,3.47,2.34,10.67,10.67,0,0,1,2.23,3.6A12.77,12.77,0,0,1,479.47,167.49Zm-3.08,0a11.31,11.31,0,0,0-.56-3.67,7.73,7.73,0,0,0-1.58-2.75,6.81,6.81,0,0,0-2.48-1.73,9,9,0,0,0-6.5,0,6.81,6.81,0,0,0-2.48,1.73,7.6,7.6,0,0,0-1.59,2.75,12.31,12.31,0,0,0,0,7.34,7.64,7.64,0,0,0,1.59,2.74,6.79,6.79,0,0,0,2.48,1.72,9.1,9.1,0,0,0,6.5,0,6.79,6.79,0,0,0,2.48-1.72,7.77,7.77,0,0,0,1.58-2.74A11.31,11.31,0,0,0,476.39,167.49Z"/><path class="cls-4" d="M496.37,176.06v2.53h-12.6V156.38h3v19.68Z"/><path class="cls-4" d="M518.93,167.49a12.44,12.44,0,0,1-.79,4.54,10,10,0,0,1-2.23,3.51,9.87,9.87,0,0,1-3.46,2.25,12.15,12.15,0,0,1-4.48.8h-8.29V156.38H508a12,12,0,0,1,4.48.8,9.76,9.76,0,0,1,3.46,2.26,10.13,10.13,0,0,1,2.23,3.51A12.44,12.44,0,0,1,518.93,167.49Zm-3.08,0a11.25,11.25,0,0,0-.56-3.66,7.81,7.81,0,0,0-1.58-2.73,6.74,6.74,0,0,0-2.48-1.7,8.68,8.68,0,0,0-3.26-.59h-5.28v17.35H508a8.68,8.68,0,0,0,3.26-.59,6.86,6.86,0,0,0,2.48-1.7,7.68,7.68,0,0,0,1.58-2.72A11.25,11.25,0,0,0,515.85,167.49Z"/><rect class="cls-4" x="73.57" y="193.43" width="463.19" height="2.61"/><rect class="cls-5" x="28.82" width="6.63" height="841.89"/><rect class="cls-6" x="31.24" width="2.29" height="841.89"/></svg>