<svg id="Lag_1" data-name="Lag 1" xmlns="http://www.w3.org/2000/svg" xmlns:xlink="http://www.w3.org/1999/xlink" width="210mm" height="297mm" viewBox="0 0 595.28 841.89"><defs><style>.cls-1{filter:url(#AI_Skygge_1);}.cls-2{fill:#e2e2e1;}.cls-3{fill:#646463;}.cls-4{fill:#1d1d1b;}.cls-5{fill:#c7c6c4;}.cls-6{fill:#a9a9a9;}</style><filter id="AI_Skygge_1" name="AI_Skygge_1"><feGaussianBlur result="blur" stdDeviation="2" in="SourceAlpha"/><feOffset result="offsetBlurredAlpha" dx="4" dy="4" in="blur"/><feMerge><feMergeNode in="offsetBlurredAlpha"/><feMergeNode in="SourceGraphic"/></feMerge></filter></defs><title>ux_book</title><g class="cls-1"><rect class="cls-2" width="595.28" height="841.89"/></g><path class="cls-3" d="M114.9,166.18V176.9a15.53,15.53,0,0,1-4.5,2.28,17.35,17.35,0,0,1-5.23.75,16.77,16.77,0,0,1-6.09-1.05A13.43,13.43,0,0,1,94.45,176a12.8,12.8,0,0,1-3-4.52,15.65,15.65,0,0,1-1-5.79,16.25,16.25,0,0,1,1-5.83,12.83,12.83,0,0,1,2.86-4.51,12.56,12.56,0,0,1,4.5-2.92,16.18,16.18,0,0,1,5.93-1,18.6,18.6,0,0,1,3.08.24,14.22,14.22,0,0,1,2.63.71,11.69,11.69,0,0,1,2.24,1.11,13.19,13.19,0,0,1,1.94,1.47l-1.08,1.72a1.08,1.08,0,0,1-.65.49,1.17,1.17,0,0,1-.89-.18c-.31-.18-.67-.41-1.07-.67a9.09,9.09,0,0,0-1.47-.75,12,12,0,0,0-2-.61,13.47,13.47,0,0,0-2.8-.25,11.24,11.24,0,0,0-4.27.77,9,9,0,0,0-3.26,2.2,9.76,9.76,0,0,0-2.06,3.47,15,15,0,0,0,0,9.28,9.81,9.81,0,0,0,2.14,3.53,9.17,9.17,0,0,0,3.39,2.22,13.62,13.62,0,0,0,7.92.32,15.67,15.67,0,0,0,3-1.22v-6.14h-4.35a.85.85,0,0,1-.6-.22.69.69,0,0,1-.22-.53v-2.14Z"/><path class="cls-3" d="M141.34,179.62H138a1.65,1.65,0,0,1-1.52-.8l-7.26-10a2.22,2.22,0,0,0-.71-.67,2.54,2.54,0,0,0-1.18-.21h-2.87v11.67h-3.76v-28h7.9a17.13,17.13,0,0,1,4.58.54,8.72,8.72,0,0,1,3.19,1.55,6.1,6.1,0,0,1,1.86,2.45,8.18,8.18,0,0,1,.6,3.2,8.09,8.09,0,0,1-.46,2.77,7.45,7.45,0,0,1-1.36,2.31,7.94,7.94,0,0,1-2.16,1.75,10.85,10.85,0,0,1-2.9,1.09,3.71,3.71,0,0,1,1.25,1.19ZM128.43,165.2a9.83,9.83,0,0,0,2.9-.39,5.87,5.87,0,0,0,2.1-1.14,4.66,4.66,0,0,0,1.28-1.74,5.63,5.63,0,0,0,.43-2.24,4.48,4.48,0,0,0-1.64-3.77,8,8,0,0,0-4.91-1.26h-4.14V165.2Z"/><path class="cls-3" d="M155.75,176.61a7.79,7.79,0,0,0,3.1-.58,6.53,6.53,0,0,0,2.31-1.64,7.27,7.27,0,0,0,1.45-2.52,9.92,9.92,0,0,0,.49-3.21v-17h3.77v17a12.81,12.81,0,0,1-.77,4.48,10.48,10.48,0,0,1-2.21,3.58,10,10,0,0,1-3.5,2.37,12.95,12.95,0,0,1-9.28,0,10.08,10.08,0,0,1-3.51-2.37,10.33,10.33,0,0,1-2.21-3.58,12.59,12.59,0,0,1-.77-4.48v-17h3.76v17a9.91,9.91,0,0,0,.5,3.21,7.1,7.1,0,0,0,1.44,2.52,6.62,6.62,0,0,0,2.32,1.65A7.87,7.87,0,0,0,155.75,176.61Z"/><path class="cls-3" d="M196.29,151.67v28H194.4a1.67,1.67,0,0,1-.75-.16,1.91,1.91,0,0,1-.6-.53l-16.16-21.06.06,1c0,.31,0,.6,0,.88v19.91h-3.32v-28h1.95a2.63,2.63,0,0,1,.43,0,.94.94,0,0,1,.31.1,1.39,1.39,0,0,1,.28.19c.09.09.18.2.29.33l16.16,21c0-.34,0-.67-.06-1s0-.62,0-.91V151.67Z"/><path class="cls-3" d="M227.65,165.65a15.82,15.82,0,0,1-1,5.72,12.63,12.63,0,0,1-2.81,4.4,12.44,12.44,0,0,1-4.35,2.84,15.24,15.24,0,0,1-5.63,1H203.43v-28h10.43a15.24,15.24,0,0,1,5.63,1,12.44,12.44,0,0,1,4.35,2.84,12.71,12.71,0,0,1,2.81,4.42A15.81,15.81,0,0,1,227.65,165.65Zm-3.88,0a14,14,0,0,0-.71-4.6,9.6,9.6,0,0,0-2-3.43,8.39,8.39,0,0,0-3.12-2.15,10.87,10.87,0,0,0-4.09-.74h-6.65v21.82h6.65a10.68,10.68,0,0,0,4.09-.74,8.34,8.34,0,0,0,3.12-2.13,9.47,9.47,0,0,0,2-3.42A14,14,0,0,0,223.77,165.65Z"/><path class="cls-3" d="M248.94,176.44v3.18H233.09v-28h3.76v24.77Z"/><path class="cls-3" d="M284.12,176.53l0,3.09H269l-1-7.65H257.25l-3.51,6.77a1.57,1.57,0,0,1-.57.63,1.59,1.59,0,0,1-.88.25h-2.86l14.74-28H284.1v3.08H269.51l1.15,9.28h10.88v3H271l1.17,9.53Zm-16.36-7.29L265.9,154.5c-.16.55-.34,1.05-.52,1.5s-.37.89-.55,1.31l-6.18,11.93Z"/><path class="cls-3" d="M311.5,166.18V176.9a15.66,15.66,0,0,1-4.5,2.28,17.39,17.39,0,0,1-5.23.75,16.77,16.77,0,0,1-6.09-1.05,13.34,13.34,0,0,1-4.63-2.92,12.66,12.66,0,0,1-2.95-4.52,15.66,15.66,0,0,1-1-5.79,16.25,16.25,0,0,1,1-5.83,13,13,0,0,1,2.85-4.51,12.69,12.69,0,0,1,4.51-2.92,16.18,16.18,0,0,1,5.93-1,18.6,18.6,0,0,1,3.08.24,14.43,14.43,0,0,1,2.63.71,11.69,11.69,0,0,1,2.24,1.11,12.6,12.6,0,0,1,1.93,1.47l-1.07,1.72a1.11,1.11,0,0,1-.65.49,1.16,1.16,0,0,1-.89-.18c-.31-.18-.67-.41-1.07-.67a10,10,0,0,0-1.47-.75,12.26,12.26,0,0,0-2-.61,13.47,13.47,0,0,0-2.8-.25,11.2,11.2,0,0,0-4.27.77,8.91,8.91,0,0,0-3.26,2.2,9.62,9.62,0,0,0-2.06,3.47,13.4,13.4,0,0,0-.73,4.57,13.77,13.77,0,0,0,.75,4.71,9.83,9.83,0,0,0,2.15,3.53,9.22,9.22,0,0,0,3.38,2.22,13.65,13.65,0,0,0,7.93.32,15.31,15.31,0,0,0,2.95-1.22v-6.14h-4.34a.85.85,0,0,1-.6-.22.69.69,0,0,1-.22-.53v-2.14Z"/><path class="cls-3" d="M340,166.18V176.9a15.66,15.66,0,0,1-4.5,2.28,17.39,17.39,0,0,1-5.23.75,16.77,16.77,0,0,1-6.09-1.05,13.34,13.34,0,0,1-4.63-2.92,12.66,12.66,0,0,1-3-4.52,15.66,15.66,0,0,1-1-5.79,16.25,16.25,0,0,1,1-5.83,13,13,0,0,1,2.85-4.51,12.69,12.69,0,0,1,4.51-2.92,16.18,16.18,0,0,1,5.93-1,18.6,18.6,0,0,1,3.08.24,14.43,14.43,0,0,1,2.63.71,12,12,0,0,1,2.24,1.11,13.11,13.11,0,0,1,1.93,1.47l-1.07,1.72a1.11,1.11,0,0,1-.65.49,1.16,1.16,0,0,1-.89-.18c-.31-.18-.67-.41-1.07-.67a9.67,9.67,0,0,0-1.48-.75,11.85,11.85,0,0,0-2-.61,13.47,13.47,0,0,0-2.8-.25,11.2,11.2,0,0,0-4.27.77,8.91,8.91,0,0,0-3.26,2.2,9.93,9.93,0,0,0-2.07,3.47,15,15,0,0,0,0,9.28,9.83,9.83,0,0,0,2.15,3.53,9.22,9.22,0,0,0,3.38,2.22,13.65,13.65,0,0,0,7.93.32,15.31,15.31,0,0,0,2.95-1.22v-6.14h-4.34a.85.85,0,0,1-.6-.22.69.69,0,0,1-.22-.53v-2.14Z"/><path class="cls-3" d="M363,176.53l0,3.09H345.78v-28H363v3.08H349.56V164h10.88v3H349.56v9.53Z"/><path class="cls-3" d="M390.94,151.67v28h-1.89a1.67,1.67,0,0,1-.75-.16,1.91,1.91,0,0,1-.6-.53l-16.16-21.06q0,.49.06,1c0,.31,0,.6,0,.88v19.91H368.3v-28h1.95a2.63,2.63,0,0,1,.43,0,.94.94,0,0,1,.31.1,1.11,1.11,0,0,1,.27.19l.3.33,16.16,21c0-.34-.05-.67-.07-1s0-.62,0-.91V151.67Z"/><path class="cls-3" d="M422.29,165.65a15.82,15.82,0,0,1-1,5.72,12.63,12.63,0,0,1-2.81,4.4,12.39,12.39,0,0,1-4.36,2.84,15.15,15.15,0,0,1-5.62,1H398.08v-28h10.43a15.15,15.15,0,0,1,5.62,1,12.39,12.39,0,0,1,4.36,2.84,12.71,12.71,0,0,1,2.81,4.42A15.81,15.81,0,0,1,422.29,165.65Zm-3.88,0a14,14,0,0,0-.7-4.6,9.74,9.74,0,0,0-2-3.43,8.47,8.47,0,0,0-3.12-2.15,10.87,10.87,0,0,0-4.09-.74h-6.65v21.82h6.65a10.68,10.68,0,0,0,4.09-.74,8.42,8.42,0,0,0,3.12-2.13,9.61,9.61,0,0,0,2-3.42A14,14,0,0,0,418.41,165.65Z"/><path class="cls-3" d="M445,176.53l0,3.09H427.73v-28H445v3.08H431.52V164H442.4v3H431.52v9.53Z"/><path class="cls-3" d="M471,176.61a7.79,7.79,0,0,0,3.1-.58,6.56,6.56,0,0,0,2.32-1.64,7.1,7.1,0,0,0,1.44-2.52,9.91,9.91,0,0,0,.5-3.21v-17h3.76v17a12.81,12.81,0,0,1-.77,4.48,10.46,10.46,0,0,1-2.2,3.58,10.13,10.13,0,0,1-3.5,2.37,13,13,0,0,1-9.29,0,10,10,0,0,1-5.72-6,12.81,12.81,0,0,1-.77-4.48v-17h3.76v17a9.91,9.91,0,0,0,.5,3.21,7.1,7.1,0,0,0,1.44,2.52,6.72,6.72,0,0,0,2.32,1.65A7.91,7.91,0,0,0,471,176.61Z"/><path class="cls-3" d="M510.24,179.62h-3.75a1,1,0,0,1-.67-.23,1.92,1.92,0,0,1-.4-.5l-7.49-11.74a3.76,3.76,0,0,1-.35.8l-7.29,10.94a3.47,3.47,0,0,1-.42.5.82.82,0,0,1-.61.23h-3.51l9.61-14.36-9.22-13.59h3.76a1.06,1.06,0,0,1,.6.14,1.37,1.37,0,0,1,.36.39l7.29,11.19a5.7,5.7,0,0,1,.41-.9l6.88-10.21a1.35,1.35,0,0,1,.37-.44.8.8,0,0,1,.51-.17h3.61l-9.27,13.42Z"/><path class="cls-4" d="M113.9,165.57V176.3a15.75,15.75,0,0,1-4.5,2.27,17.35,17.35,0,0,1-5.23.75,17,17,0,0,1-6.09-1,13.46,13.46,0,0,1-4.63-2.93,12.76,12.76,0,0,1-3-4.51,15.73,15.73,0,0,1-1-5.79,16.18,16.18,0,0,1,1-5.83,12.87,12.87,0,0,1,2.86-4.52,12.68,12.68,0,0,1,4.5-2.91,16.18,16.18,0,0,1,5.93-1,17.54,17.54,0,0,1,3.08.25,13.48,13.48,0,0,1,2.63.7,11.69,11.69,0,0,1,2.24,1.11,14.76,14.76,0,0,1,1.94,1.47L112.57,156a1,1,0,0,1-1.54.31c-.31-.18-.67-.4-1.07-.66a9.09,9.09,0,0,0-1.47-.75,11.94,11.94,0,0,0-2-.62,13.47,13.47,0,0,0-2.8-.25,11.43,11.43,0,0,0-4.27.77,9.12,9.12,0,0,0-3.26,2.2,9.94,9.94,0,0,0-2.06,3.47,13.71,13.71,0,0,0-.72,4.58,13.85,13.85,0,0,0,.75,4.71,9.89,9.89,0,0,0,2.14,3.53,9.28,9.28,0,0,0,3.39,2.21,12.31,12.31,0,0,0,4.46.76,12.53,12.53,0,0,0,3.46-.44,15,15,0,0,0,3-1.22v-6.14h-4.35a.81.81,0,0,1-.6-.22.67.67,0,0,1-.22-.52v-2.15Z"/><path class="cls-4" d="M140.34,179H137a1.65,1.65,0,0,1-1.52-.8l-7.26-10a2.22,2.22,0,0,0-.71-.67,2.69,2.69,0,0,0-1.18-.2h-2.87V179h-3.76V151.06h7.9a17.13,17.13,0,0,1,4.58.54,8.88,8.88,0,0,1,3.19,1.55,6.17,6.17,0,0,1,1.86,2.45,8.74,8.74,0,0,1,.14,6,7.69,7.69,0,0,1-1.36,2.31,8.1,8.1,0,0,1-2.16,1.74,10.52,10.52,0,0,1-2.9,1.09,3.81,3.81,0,0,1,1.25,1.19ZM127.43,164.6a9.82,9.82,0,0,0,2.9-.4,6,6,0,0,0,2.1-1.13,4.7,4.7,0,0,0,1.28-1.75,5.59,5.59,0,0,0,.43-2.24,4.46,4.46,0,0,0-1.64-3.76,7.91,7.91,0,0,0-4.91-1.27h-4.14V164.6Z"/><path class="cls-4" d="M154.75,176a7.79,7.79,0,0,0,3.1-.59,6.53,6.53,0,0,0,2.31-1.64,7.32,7.32,0,0,0,1.45-2.51,10,10,0,0,0,.49-3.22v-17h3.77v17a12.77,12.77,0,0,1-.77,4.48,10.38,10.38,0,0,1-2.21,3.58,10,10,0,0,1-3.5,2.37,12.95,12.95,0,0,1-9.28,0,10.08,10.08,0,0,1-3.51-2.37,10.24,10.24,0,0,1-2.21-3.58,12.55,12.55,0,0,1-.77-4.48v-17h3.76v17a10,10,0,0,0,.5,3.22,7.14,7.14,0,0,0,1.44,2.51,6.62,6.62,0,0,0,2.32,1.65A7.7,7.7,0,0,0,154.75,176Z"/><path class="cls-4" d="M195.29,151.06V179H193.4a1.54,1.54,0,0,1-.75-.16,2,2,0,0,1-.6-.52l-16.16-21.06.06.95c0,.31,0,.61,0,.88V179h-3.32V151.06h1.95a2.63,2.63,0,0,1,.43,0,1.25,1.25,0,0,1,.31.1,1.47,1.47,0,0,1,.28.2,3.29,3.29,0,0,1,.29.32l16.16,21c0-.34,0-.67-.06-1s0-.62,0-.9v-19.8Z"/><path class="cls-4" d="M226.65,165.05a15.81,15.81,0,0,1-1,5.71,12.3,12.3,0,0,1-7.16,7.24,15.24,15.24,0,0,1-5.63,1H202.43V151.06h10.43a15.24,15.24,0,0,1,5.63,1,12.46,12.46,0,0,1,4.35,2.85,12.67,12.67,0,0,1,2.81,4.41A15.82,15.82,0,0,1,226.65,165.05Zm-3.88,0a14,14,0,0,0-.71-4.61,9.6,9.6,0,0,0-2-3.43,8.36,8.36,0,0,0-3.12-2.14,10.68,10.68,0,0,0-4.09-.74h-6.65V176h6.65a10.87,10.87,0,0,0,4.09-.74,8.48,8.48,0,0,0,3.12-2.14,9.47,9.47,0,0,0,2-3.42A14,14,0,0,0,222.77,165.05Z"/><path class="cls-4" d="M247.94,175.83V179H232.09V151.06h3.76v24.77Z"/><path class="cls-4" d="M283.12,175.93l0,3.08H268l-1-7.65H256.25l-3.51,6.77a1.57,1.57,0,0,1-.57.63,1.52,1.52,0,0,1-.88.25h-2.86l14.74-27.95H283.1v3.09H268.51l1.15,9.28h10.88v3H270l1.17,9.54Zm-16.36-7.3-1.86-14.74c-.16.55-.34,1.05-.52,1.5s-.37.89-.55,1.31l-6.18,11.93Z"/><path class="cls-4" d="M310.5,165.57V176.3a15.88,15.88,0,0,1-4.5,2.27,17.39,17.39,0,0,1-5.23.75,17,17,0,0,1-6.09-1,13.36,13.36,0,0,1-4.63-2.93,12.62,12.62,0,0,1-2.95-4.51,15.73,15.73,0,0,1-1-5.79,16.18,16.18,0,0,1,1-5.83,13,13,0,0,1,2.85-4.52,12.81,12.81,0,0,1,4.51-2.91,16.18,16.18,0,0,1,5.93-1,17.54,17.54,0,0,1,3.08.25,13.67,13.67,0,0,1,2.63.7,11.69,11.69,0,0,1,2.24,1.11,14,14,0,0,1,1.93,1.47L309.17,156a1.17,1.17,0,0,1-.65.5,1.13,1.13,0,0,1-.89-.19c-.31-.18-.67-.4-1.07-.66a10,10,0,0,0-1.47-.75,12.22,12.22,0,0,0-2-.62,13.47,13.47,0,0,0-2.8-.25,11.39,11.39,0,0,0-4.27.77,9,9,0,0,0-3.26,2.2,9.79,9.79,0,0,0-2.06,3.47,13.46,13.46,0,0,0-.73,4.58,13.85,13.85,0,0,0,.75,4.71,9.91,9.91,0,0,0,2.15,3.53,9.32,9.32,0,0,0,3.38,2.21,12.4,12.4,0,0,0,4.47.76,12.53,12.53,0,0,0,3.46-.44,14.71,14.71,0,0,0,2.95-1.22v-6.14h-4.34a.81.81,0,0,1-.6-.22.67.67,0,0,1-.22-.52v-2.15Z"/><path class="cls-4" d="M339,165.57V176.3a15.88,15.88,0,0,1-4.5,2.27,17.39,17.39,0,0,1-5.23.75,17,17,0,0,1-6.09-1,13.36,13.36,0,0,1-4.63-2.93,12.62,12.62,0,0,1-3-4.51,15.73,15.73,0,0,1-1-5.79,16.18,16.18,0,0,1,1-5.83,13,13,0,0,1,2.85-4.52,12.81,12.81,0,0,1,4.51-2.91,16.18,16.18,0,0,1,5.93-1,17.54,17.54,0,0,1,3.08.25,13.67,13.67,0,0,1,2.63.7,12,12,0,0,1,2.24,1.11,14.66,14.66,0,0,1,1.93,1.47L337.66,156a1.17,1.17,0,0,1-.65.5,1.13,1.13,0,0,1-.89-.19c-.31-.18-.67-.4-1.07-.66a9.67,9.67,0,0,0-1.48-.75,11.81,11.81,0,0,0-2-.62,13.47,13.47,0,0,0-2.8-.25,11.39,11.39,0,0,0-4.27.77,9,9,0,0,0-3.26,2.2,10.11,10.11,0,0,0-2.07,3.47,13.71,13.71,0,0,0-.72,4.58,13.85,13.85,0,0,0,.75,4.71,9.91,9.91,0,0,0,2.15,3.53,9.32,9.32,0,0,0,3.38,2.21,12.4,12.4,0,0,0,4.47.76,12.53,12.53,0,0,0,3.46-.44,14.71,14.71,0,0,0,2.95-1.22v-6.14h-4.34a.81.81,0,0,1-.6-.22.67.67,0,0,1-.22-.52v-2.15Z"/><path class="cls-4" d="M362,175.93l0,3.08H344.78V151.06H362v3.09H348.56v9.28h10.88v3H348.56v9.54Z"/><path class="cls-4" d="M389.94,151.06V179h-1.89a1.54,1.54,0,0,1-.75-.16,2,2,0,0,1-.6-.52l-16.16-21.06.06.95c0,.31,0,.61,0,.88V179H367.3V151.06h1.95a2.63,2.63,0,0,1,.43,0,1.25,1.25,0,0,1,.31.1,1.17,1.17,0,0,1,.27.2,3.25,3.25,0,0,1,.3.32l16.16,21c0-.34-.05-.67-.07-1s0-.62,0-.9v-19.8Z"/><path class="cls-4" d="M421.29,165.05a15.81,15.81,0,0,1-1,5.71,12.67,12.67,0,0,1-2.81,4.41,12.5,12.5,0,0,1-4.36,2.83,15.15,15.15,0,0,1-5.62,1H397.08V151.06h10.43a15.15,15.15,0,0,1,5.62,1,12.41,12.41,0,0,1,4.36,2.85,12.67,12.67,0,0,1,2.81,4.41A15.82,15.82,0,0,1,421.29,165.05Zm-3.88,0a14,14,0,0,0-.7-4.61,9.74,9.74,0,0,0-2-3.43,8.45,8.45,0,0,0-3.12-2.14,10.68,10.68,0,0,0-4.09-.74h-6.65V176h6.65a10.87,10.87,0,0,0,4.09-.74,8.57,8.57,0,0,0,3.12-2.14,9.61,9.61,0,0,0,2-3.42A14,14,0,0,0,417.41,165.05Z"/><path class="cls-4" d="M444,175.93l0,3.08H426.73V151.06H444v3.09H430.52v9.28H441.4v3H430.52v9.54Z"/><path class="cls-4" d="M470,176a7.79,7.79,0,0,0,3.1-.59,6.56,6.56,0,0,0,2.32-1.64,7.14,7.14,0,0,0,1.44-2.51,10,10,0,0,0,.5-3.22v-17h3.76v17a12.77,12.77,0,0,1-.77,4.48,10.36,10.36,0,0,1-2.2,3.58,10.13,10.13,0,0,1-3.5,2.37,13,13,0,0,1-9.29,0,10,10,0,0,1-5.72-5.95,12.77,12.77,0,0,1-.77-4.48v-17h3.76v17a10,10,0,0,0,.5,3.22,7.14,7.14,0,0,0,1.44,2.51,6.72,6.72,0,0,0,2.32,1.65A7.74,7.74,0,0,0,470,176Z"/><path class="cls-4" d="M509.24,179h-3.75a1,1,0,0,1-.67-.23,2,2,0,0,1-.4-.49l-7.49-11.74a4,4,0,0,1-.35.8l-7.29,10.94a4,4,0,0,1-.42.49.82.82,0,0,1-.61.23h-3.51l9.61-14.35-9.22-13.6h3.76a1.06,1.06,0,0,1,.6.14,1.37,1.37,0,0,1,.36.39l7.29,11.19a5.25,5.25,0,0,1,.41-.89l6.88-10.22a1.47,1.47,0,0,1,.37-.44.8.8,0,0,1,.51-.17h3.61l-9.27,13.42Z"/><rect class="cls-4" x="73.57" y="193.43" width="463.19" height="2.61"/><rect class="cls-5" x="28.82" width="6.63" height="841.89"/><rect class="cls-6" x="31.24" width="2.29" height="841.89"/></svg>
