<svg id="Lag_1" data-name="Lag 1" xmlns="http://www.w3.org/2000/svg" xmlns:xlink="http://www.w3.org/1999/xlink" width="210mm" height="297mm" viewBox="0 0 595.28 841.89"><defs><style>.cls-1{filter:url(#AI_Skygge_1);}.cls-2{fill:#fefada;}.cls-3{fill:#646463;}.cls-4{fill:#1d1d1b;}.cls-5{fill:#e2daba;}.cls-6{fill:#c9c1a7;}</style><filter id="AI_Skygge_1" name="AI_Skygge_1"><feGaussianBlur result="blur" stdDeviation="2" in="SourceAlpha"/><feOffset result="offsetBlurredAlpha" dx="4" dy="4" in="blur"/><feMerge><feMergeNode in="offsetBlurredAlpha"/><feMergeNode in="SourceGraphic"/></feMerge></filter></defs><title>web_book</title><g class="cls-1"><rect class="cls-2" width="595.28" height="841.89"/></g><path class="cls-3" d="M100.9,166.18V176.9a15.53,15.53,0,0,1-4.5,2.28,17.35,17.35,0,0,1-5.23.75,16.77,16.77,0,0,1-6.09-1.05A13.43,13.43,0,0,1,80.45,176a12.8,12.8,0,0,1-3-4.52,15.65,15.65,0,0,1-1-5.79,16.25,16.25,0,0,1,1-5.83,12.83,12.83,0,0,1,2.86-4.51,12.56,12.56,0,0,1,4.5-2.92,16.18,16.18,0,0,1,5.93-1,18.6,18.6,0,0,1,3.08.24,14.22,14.22,0,0,1,2.63.71,11.4,11.4,0,0,1,2.24,1.11,13.19,13.19,0,0,1,1.94,1.47l-1.08,1.72a1.08,1.08,0,0,1-.65.49,1.17,1.17,0,0,1-.89-.18c-.31-.18-.67-.41-1.07-.67a9.09,9.09,0,0,0-1.47-.75,12,12,0,0,0-2-.61,13.47,13.47,0,0,0-2.8-.25,11.2,11.2,0,0,0-4.27.77,9,9,0,0,0-3.26,2.2,9.76,9.76,0,0,0-2.06,3.47,15,15,0,0,0,0,9.28,9.81,9.81,0,0,0,2.14,3.53,9.17,9.17,0,0,0,3.39,2.22,13.62,13.62,0,0,0,7.92.32,15.67,15.67,0,0,0,3-1.22v-6.14H93.14a.85.85,0,0,1-.6-.22.69.69,0,0,1-.22-.53v-2.14Z"/><path class="cls-3" d="M127.34,179.62H124a1.65,1.65,0,0,1-1.52-.8l-7.26-10a2.22,2.22,0,0,0-.71-.67,2.54,2.54,0,0,0-1.18-.21h-2.87v11.67h-3.76v-28h7.9a17.13,17.13,0,0,1,4.58.54,8.72,8.72,0,0,1,3.19,1.55,6.1,6.1,0,0,1,1.86,2.45,8.18,8.18,0,0,1,.6,3.2,8.09,8.09,0,0,1-.46,2.77,7.45,7.45,0,0,1-1.36,2.31,7.94,7.94,0,0,1-2.16,1.75,10.85,10.85,0,0,1-2.9,1.09,3.71,3.71,0,0,1,1.25,1.19ZM114.43,165.2a9.83,9.83,0,0,0,2.9-.39,5.87,5.87,0,0,0,2.1-1.14,4.66,4.66,0,0,0,1.28-1.74,5.63,5.63,0,0,0,.43-2.24,4.48,4.48,0,0,0-1.64-3.77,8,8,0,0,0-4.91-1.26h-4.14V165.2Z"/><path class="cls-3" d="M141.75,176.61a7.79,7.79,0,0,0,3.1-.58,6.53,6.53,0,0,0,2.31-1.64,7.1,7.1,0,0,0,1.44-2.52,9.65,9.65,0,0,0,.5-3.21v-17h3.77v17a12.81,12.81,0,0,1-.77,4.48,10.48,10.48,0,0,1-2.21,3.58,10,10,0,0,1-3.5,2.37,12.95,12.95,0,0,1-9.28,0,10.08,10.08,0,0,1-3.51-2.37,10.33,10.33,0,0,1-2.21-3.58,12.59,12.59,0,0,1-.77-4.48v-17h3.76v17a9.91,9.91,0,0,0,.5,3.21,7.1,7.1,0,0,0,1.44,2.52,6.62,6.62,0,0,0,2.32,1.65A7.87,7.87,0,0,0,141.75,176.61Z"/><path class="cls-3" d="M182.29,151.67v28H180.4a1.67,1.67,0,0,1-.75-.16,1.91,1.91,0,0,1-.6-.53l-16.16-21.06.06,1c0,.31,0,.6,0,.88v19.91h-3.32v-28h1.95a2.63,2.63,0,0,1,.43,0,.94.94,0,0,1,.31.1,1.39,1.39,0,0,1,.28.19c.09.09.18.2.29.33l16.16,21c0-.34,0-.67-.06-1s0-.62,0-.91V151.67Z"/><path class="cls-3" d="M213.65,165.65a15.82,15.82,0,0,1-1,5.72,12.63,12.63,0,0,1-2.81,4.4,12.44,12.44,0,0,1-4.35,2.84,15.24,15.24,0,0,1-5.63,1H189.43v-28h10.43a15.24,15.24,0,0,1,5.63,1,12.44,12.44,0,0,1,4.35,2.84,12.71,12.71,0,0,1,2.81,4.42A15.81,15.81,0,0,1,213.65,165.65Zm-3.88,0a14,14,0,0,0-.71-4.6,9.6,9.6,0,0,0-2-3.43,8.39,8.39,0,0,0-3.12-2.15,10.87,10.87,0,0,0-4.09-.74h-6.65v21.82h6.65a10.68,10.68,0,0,0,4.09-.74,8.34,8.34,0,0,0,3.12-2.13,9.47,9.47,0,0,0,2-3.42A14,14,0,0,0,209.77,165.65Z"/><path class="cls-3" d="M234.94,176.44v3.18H219.09v-28h3.76v24.77Z"/><path class="cls-3" d="M270.12,176.53l0,3.09H255l-.95-7.65H243.25l-3.51,6.77a1.57,1.57,0,0,1-.57.63,1.59,1.59,0,0,1-.88.25h-2.86l14.74-28H270.1v3.08H255.51l1.15,9.28h10.88v3H257l1.17,9.53Zm-16.36-7.29L251.9,154.5c-.16.55-.34,1.05-.52,1.5s-.37.89-.55,1.31l-6.18,11.93Z"/><path class="cls-3" d="M297.5,166.18V176.9a15.66,15.66,0,0,1-4.5,2.28,17.39,17.39,0,0,1-5.23.75,16.77,16.77,0,0,1-6.09-1.05,13.43,13.43,0,0,1-4.63-2.92,12.8,12.8,0,0,1-2.95-4.52,15.66,15.66,0,0,1-1-5.79,16.25,16.25,0,0,1,1-5.83,13,13,0,0,1,2.85-4.51,12.69,12.69,0,0,1,4.51-2.92,16.18,16.18,0,0,1,5.93-1,18.6,18.6,0,0,1,3.08.24,14.43,14.43,0,0,1,2.63.71,11.69,11.69,0,0,1,2.24,1.11,13.11,13.11,0,0,1,1.93,1.47l-1.07,1.72a1.11,1.11,0,0,1-.65.49,1.16,1.16,0,0,1-.89-.18c-.31-.18-.67-.41-1.07-.67a10,10,0,0,0-1.47-.75,12.26,12.26,0,0,0-2-.61,13.47,13.47,0,0,0-2.8-.25,11.2,11.2,0,0,0-4.27.77,8.91,8.91,0,0,0-3.26,2.2,9.76,9.76,0,0,0-2.06,3.47,13.4,13.4,0,0,0-.73,4.57,13.77,13.77,0,0,0,.75,4.71,9.83,9.83,0,0,0,2.15,3.53,9.22,9.22,0,0,0,3.38,2.22,13.65,13.65,0,0,0,7.93.32,15.31,15.31,0,0,0,2.95-1.22v-6.14h-4.34a.85.85,0,0,1-.6-.22.69.69,0,0,1-.22-.53v-2.14Z"/><path class="cls-3" d="M326,166.18V176.9a15.66,15.66,0,0,1-4.5,2.28,17.39,17.39,0,0,1-5.23.75,16.77,16.77,0,0,1-6.09-1.05,13.34,13.34,0,0,1-4.63-2.92,12.66,12.66,0,0,1-3-4.52,15.66,15.66,0,0,1-1-5.79,16.25,16.25,0,0,1,1-5.83,13,13,0,0,1,2.85-4.51,12.69,12.69,0,0,1,4.51-2.92,16.15,16.15,0,0,1,5.93-1,18.6,18.6,0,0,1,3.08.24,14.43,14.43,0,0,1,2.63.71,12,12,0,0,1,2.24,1.11,13.11,13.11,0,0,1,1.93,1.47l-1.07,1.72a1.11,1.11,0,0,1-.65.49,1.16,1.16,0,0,1-.89-.18c-.31-.18-.67-.41-1.07-.67a9.67,9.67,0,0,0-1.48-.75,11.85,11.85,0,0,0-2-.61,13.47,13.47,0,0,0-2.8-.25,11.2,11.2,0,0,0-4.27.77,8.91,8.91,0,0,0-3.26,2.2,9.78,9.78,0,0,0-2.07,3.47,15,15,0,0,0,0,9.28,9.83,9.83,0,0,0,2.15,3.53,9.22,9.22,0,0,0,3.38,2.22,13.65,13.65,0,0,0,7.93.32,15.31,15.31,0,0,0,2.95-1.22v-6.14h-4.35a.84.84,0,0,1-.59-.22.69.69,0,0,1-.22-.53v-2.14Z"/><path class="cls-3" d="M349,176.53v3.09H331.78v-28H349v3.08H335.56V164h10.88v3H335.56v9.53Z"/><path class="cls-3" d="M376.94,151.67v28h-1.89a1.67,1.67,0,0,1-.75-.16,1.8,1.8,0,0,1-.6-.53l-16.16-21.06c0,.33,0,.65,0,1s0,.6,0,.88v19.91H354.3v-28h1.95a2.63,2.63,0,0,1,.43,0,.94.94,0,0,1,.31.1,1.11,1.11,0,0,1,.27.19l.3.33,16.16,21c0-.34-.05-.67-.07-1s0-.62,0-.91V151.67Z"/><path class="cls-3" d="M408.29,165.65a15.82,15.82,0,0,1-1,5.72,12.63,12.63,0,0,1-2.81,4.4,12.39,12.39,0,0,1-4.36,2.84,15.15,15.15,0,0,1-5.62,1H384.08v-28h10.43a15.15,15.15,0,0,1,5.62,1,12.39,12.39,0,0,1,4.36,2.84,12.71,12.71,0,0,1,2.81,4.42A15.81,15.81,0,0,1,408.29,165.65Zm-3.88,0a14,14,0,0,0-.7-4.6,9.74,9.74,0,0,0-2-3.43,8.47,8.47,0,0,0-3.12-2.15,10.87,10.87,0,0,0-4.09-.74h-6.65v21.82h6.65a10.68,10.68,0,0,0,4.09-.74,8.42,8.42,0,0,0,3.12-2.13,9.61,9.61,0,0,0,2-3.42A14,14,0,0,0,404.41,165.65Z"/><path class="cls-3" d="M431,176.53l0,3.09H413.73v-28H431v3.08H417.52V164H428.4v3H417.52v9.53Z"/><path class="cls-3" d="M481.93,151.67l-8.72,28h-3.39l-7.08-21.32c-.07-.21-.13-.43-.19-.66s-.12-.48-.18-.74c-.07.26-.13.5-.2.74s-.13.45-.19.66l-7.12,21.32h-3.39l-8.72-28h3.14a1.39,1.39,0,0,1,.85.26,1.1,1.1,0,0,1,.44.64L453,172c.09.35.18.73.26,1.13s.17.83.25,1.29c.09-.46.18-.89.28-1.3s.2-.78.32-1.12l6.57-19.42a1.46,1.46,0,0,1,.46-.62,1.3,1.3,0,0,1,.83-.28H463a1.26,1.26,0,0,1,.82.26,1.53,1.53,0,0,1,.47.64L470.85,172c.12.34.22.7.32,1.09s.19.8.28,1.23c.07-.43.14-.84.22-1.23s.16-.75.25-1.09l5.79-19.42a1.26,1.26,0,0,1,.44-.63,1.31,1.31,0,0,1,.83-.27Z"/><path class="cls-3" d="M503.34,176.53l0,3.09H486.1v-28h17.22v3.08H489.88V164h10.88v3H489.88v9.53Z"/><path class="cls-3" d="M517.53,151.67a16.94,16.94,0,0,1,4.44.51,8.7,8.7,0,0,1,3.06,1.44,5.59,5.59,0,0,1,1.76,2.29,7.82,7.82,0,0,1,.57,3.05,6.22,6.22,0,0,1-.32,2,6.14,6.14,0,0,1-1,1.77,6.85,6.85,0,0,1-1.63,1.47,8.49,8.49,0,0,1-2.31,1.06,8.35,8.35,0,0,1,4.63,2.2,5.8,5.8,0,0,1,1.56,4.22,7.82,7.82,0,0,1-.66,3.24,6.86,6.86,0,0,1-1.91,2.51,8.91,8.91,0,0,1-3.09,1.63,14,14,0,0,1-4.17.58h-9.87v-28Zm-5.15,3v9.53h5a9.88,9.88,0,0,0,2.77-.35,5.41,5.41,0,0,0,2-1,3.7,3.7,0,0,0,1.15-1.51,5.08,5.08,0,0,0,.37-1.94,4.26,4.26,0,0,0-1.49-3.61,7.52,7.52,0,0,0-4.6-1.14Zm6,22a9.2,9.2,0,0,0,2.79-.37,5,5,0,0,0,1.92-1,4,4,0,0,0,1.1-1.6,5.82,5.82,0,0,0,.35-2,4.18,4.18,0,0,0-1.54-3.42,7.19,7.19,0,0,0-4.62-1.26h-6v9.73Z"/><path class="cls-4" d="M100.28,165.57V176.3a15.7,15.7,0,0,1-4.49,2.27,17.46,17.46,0,0,1-5.24.75,16.89,16.89,0,0,1-6.08-1,13.36,13.36,0,0,1-4.63-2.93,12.78,12.78,0,0,1-3-4.51,15.73,15.73,0,0,1-1-5.79,16.18,16.18,0,0,1,1-5.83,12.47,12.47,0,0,1,7.36-7.43,16.22,16.22,0,0,1,5.93-1,17.46,17.46,0,0,1,3.08.25,13.77,13.77,0,0,1,2.64.7,12,12,0,0,1,2.24,1.11,14.66,14.66,0,0,1,1.93,1.47L99,156a1.16,1.16,0,0,1-.66.5,1.11,1.11,0,0,1-.88-.19c-.32-.18-.67-.4-1.08-.66a9.09,9.09,0,0,0-1.47-.75,11.94,11.94,0,0,0-2.05-.62A13.4,13.4,0,0,0,90,154a11.43,11.43,0,0,0-4.27.77A9,9,0,0,0,82.5,157a9.81,9.81,0,0,0-2.07,3.47,13.71,13.71,0,0,0-.72,4.58,13.85,13.85,0,0,0,.75,4.71,9.91,9.91,0,0,0,2.15,3.53A9.15,9.15,0,0,0,86,175.5a12.31,12.31,0,0,0,4.46.76,12.6,12.6,0,0,0,3.47-.44,15,15,0,0,0,3-1.22v-6.14H92.52a.78.78,0,0,1-.59-.22.68.68,0,0,1-.23-.52v-2.15Z"/><path class="cls-4" d="M126.72,179h-3.35a1.65,1.65,0,0,1-1.52-.8l-7.26-10a2.12,2.12,0,0,0-.71-.67,2.66,2.66,0,0,0-1.18-.2h-2.86V179h-3.77V151.06H114a17.08,17.08,0,0,1,4.58.54,8.88,8.88,0,0,1,3.19,1.55,6.17,6.17,0,0,1,1.86,2.45,8,8,0,0,1,.61,3.21,8.14,8.14,0,0,1-.47,2.77,7.3,7.3,0,0,1-1.36,2.31,8.1,8.1,0,0,1-2.16,1.74,10.52,10.52,0,0,1-2.9,1.09,3.72,3.72,0,0,1,1.25,1.19ZM113.81,164.6a9.77,9.77,0,0,0,2.9-.4,6.16,6.16,0,0,0,2.11-1.13,4.67,4.67,0,0,0,1.27-1.75,5.59,5.59,0,0,0,.43-2.24,4.44,4.44,0,0,0-1.64-3.76,7.91,7.91,0,0,0-4.91-1.27h-4.13V164.6Z"/><path class="cls-4" d="M141.13,176a7.79,7.79,0,0,0,3.1-.59,6.65,6.65,0,0,0,2.32-1.64,7.14,7.14,0,0,0,1.44-2.51,10,10,0,0,0,.5-3.22v-17h3.76v17a12.77,12.77,0,0,1-.77,4.48,10.36,10.36,0,0,1-2.2,3.58,10.13,10.13,0,0,1-3.5,2.37,13,13,0,0,1-9.29,0,10.08,10.08,0,0,1-3.51-2.37,10.24,10.24,0,0,1-2.21-3.58,12.77,12.77,0,0,1-.77-4.48v-17h3.76v17a10,10,0,0,0,.5,3.22,7.14,7.14,0,0,0,1.44,2.51,6.72,6.72,0,0,0,2.32,1.65A7.74,7.74,0,0,0,141.13,176Z"/><path class="cls-4" d="M181.67,151.06V179h-1.89a1.54,1.54,0,0,1-.75-.16,1.86,1.86,0,0,1-.59-.52l-16.17-21.06c0,.32,0,.64.06.95s0,.61,0,.88V179H159V151.06H161a2.54,2.54,0,0,1,.43,0,1.5,1.5,0,0,1,.32.1,1.17,1.17,0,0,1,.27.2,2.37,2.37,0,0,1,.29.32l16.17,21c0-.34-.05-.67-.07-1s0-.62,0-.9v-19.8Z"/><path class="cls-4" d="M213,165.05a15.6,15.6,0,0,1-1,5.71,12.65,12.65,0,0,1-2.8,4.41,12.5,12.5,0,0,1-4.36,2.83,15.2,15.2,0,0,1-5.63,1H188.81V151.06h10.43a15.2,15.2,0,0,1,5.63,1,12.41,12.41,0,0,1,4.36,2.85,12.65,12.65,0,0,1,2.8,4.41A15.61,15.61,0,0,1,213,165.05Zm-3.88,0a14.31,14.31,0,0,0-.7-4.61,9.74,9.74,0,0,0-2-3.43,8.53,8.53,0,0,0-3.12-2.14,10.73,10.73,0,0,0-4.1-.74h-6.65V176h6.65a10.93,10.93,0,0,0,4.1-.74,8.65,8.65,0,0,0,3.12-2.14,9.61,9.61,0,0,0,2-3.42A14.25,14.25,0,0,0,209.15,165.05Z"/><path class="cls-4" d="M234.32,175.83V179H218.47V151.06h3.76v24.77Z"/><path class="cls-4" d="M269.5,175.93l0,3.08H254.43l-1-7.65H242.63l-3.51,6.77a1.57,1.57,0,0,1-.57.63,1.48,1.48,0,0,1-.87.25h-2.87l14.74-27.95h19.93v3.09H254.89l1.16,9.28h10.88v3H256.42l1.17,9.54Zm-16.36-7.3-1.85-14.74c-.17.55-.35,1.05-.53,1.5s-.36.89-.54,1.31L244,168.63Z"/><path class="cls-4" d="M296.88,165.57V176.3a15.75,15.75,0,0,1-4.5,2.27,17.35,17.35,0,0,1-5.23.75,17,17,0,0,1-6.09-1,13.46,13.46,0,0,1-4.63-2.93,12.76,12.76,0,0,1-2.95-4.51,15.73,15.73,0,0,1-1-5.79,16.18,16.18,0,0,1,1-5.83,12.87,12.87,0,0,1,2.86-4.52,12.68,12.68,0,0,1,4.5-2.91,16.18,16.18,0,0,1,5.93-1,17.54,17.54,0,0,1,3.08.25,13.48,13.48,0,0,1,2.63.7,11.4,11.4,0,0,1,2.24,1.11,14.76,14.76,0,0,1,1.94,1.47L295.55,156a1,1,0,0,1-1.54.31c-.31-.18-.67-.4-1.07-.66a9.09,9.09,0,0,0-1.47-.75,11.94,11.94,0,0,0-2.05-.62,13.47,13.47,0,0,0-2.8-.25,11.43,11.43,0,0,0-4.27.77,9.12,9.12,0,0,0-3.26,2.2,9.94,9.94,0,0,0-2.06,3.47,13.71,13.71,0,0,0-.72,4.58,13.85,13.85,0,0,0,.75,4.71,9.89,9.89,0,0,0,2.14,3.53,9.28,9.28,0,0,0,3.39,2.21,12.31,12.31,0,0,0,4.46.76,12.48,12.48,0,0,0,3.46-.44,15,15,0,0,0,3-1.22v-6.14h-4.35a.81.81,0,0,1-.6-.22.67.67,0,0,1-.22-.52v-2.15Z"/><path class="cls-4" d="M325.37,165.57V176.3a15.75,15.75,0,0,1-4.5,2.27,17.35,17.35,0,0,1-5.23.75,17,17,0,0,1-6.09-1,13.46,13.46,0,0,1-4.63-2.93,12.76,12.76,0,0,1-2.95-4.51,15.73,15.73,0,0,1-1-5.79,16.18,16.18,0,0,1,1-5.83,12.87,12.87,0,0,1,2.86-4.52,12.68,12.68,0,0,1,4.5-2.91,16.18,16.18,0,0,1,5.93-1,17.54,17.54,0,0,1,3.08.25,13.48,13.48,0,0,1,2.63.7,11.4,11.4,0,0,1,2.24,1.11,14,14,0,0,1,1.93,1.47L324,156a1,1,0,0,1-1.54.31c-.31-.18-.67-.4-1.07-.66a9.09,9.09,0,0,0-1.47-.75,11.94,11.94,0,0,0-2-.62,13.47,13.47,0,0,0-2.8-.25,11.39,11.39,0,0,0-4.27.77,9.12,9.12,0,0,0-3.26,2.2,9.94,9.94,0,0,0-2.06,3.47,13.71,13.71,0,0,0-.72,4.58,13.85,13.85,0,0,0,.75,4.71,9.89,9.89,0,0,0,2.14,3.53,9.32,9.32,0,0,0,3.38,2.21,12.4,12.4,0,0,0,4.47.76,12.53,12.53,0,0,0,3.46-.44,15,15,0,0,0,3-1.22v-6.14h-4.35a.81.81,0,0,1-.6-.22.67.67,0,0,1-.22-.52v-2.15Z"/><path class="cls-4" d="M348.4,175.93l0,3.08H331.16V151.06h17.22v3.09H334.94v9.28h10.88v3H334.94v9.54Z"/><path class="cls-4" d="M376.32,151.06V179h-1.89a1.54,1.54,0,0,1-.75-.16,2,2,0,0,1-.6-.52l-16.16-21.06.06.95c0,.31,0,.61,0,.88V179h-3.32V151.06h1.95a2.63,2.63,0,0,1,.43,0,1.25,1.25,0,0,1,.31.1,1.47,1.47,0,0,1,.28.2,3.29,3.29,0,0,1,.29.32l16.16,21c0-.34-.05-.67-.06-1s0-.62,0-.9v-19.8Z"/><path class="cls-4" d="M407.68,165.05a15.6,15.6,0,0,1-1,5.71,12.79,12.79,0,0,1-2.8,4.41,12.6,12.6,0,0,1-4.36,2.83,15.24,15.24,0,0,1-5.63,1H383.46V151.06h10.43a15.24,15.24,0,0,1,5.63,1,12.5,12.5,0,0,1,4.36,2.85,12.79,12.79,0,0,1,2.8,4.41A15.61,15.61,0,0,1,407.68,165.05Zm-3.88,0a14,14,0,0,0-.71-4.61,9.73,9.73,0,0,0-2-3.43,8.53,8.53,0,0,0-3.12-2.14,10.77,10.77,0,0,0-4.1-.74h-6.65V176h6.65a11,11,0,0,0,4.1-.74,8.65,8.65,0,0,0,3.12-2.14,9.59,9.59,0,0,0,2-3.42A14,14,0,0,0,403.8,165.05Z"/><path class="cls-4" d="M430.36,175.93l0,3.08H413.12V151.06h17.22v3.09H416.9v9.28h10.88v3H416.9v9.54Z"/><path class="cls-4" d="M481.31,151.06,472.59,179H469.2l-7.08-21.32a5.23,5.23,0,0,1-.18-.66c-.06-.23-.13-.48-.19-.74-.07.26-.13.51-.2.74s-.13.46-.19.66L454.24,179h-3.39l-8.72-27.95h3.14a1.39,1.39,0,0,1,.85.26,1.13,1.13,0,0,1,.44.64l5.77,19.42c.09.35.18.73.26,1.13s.17.84.25,1.29c.09-.45.18-.89.28-1.3s.21-.78.32-1.12L460,152a1.52,1.52,0,0,1,.46-.61,1.27,1.27,0,0,1,.83-.29h1.09a1.26,1.26,0,0,1,.82.26,1.51,1.51,0,0,1,.47.64l6.55,19.42a10.23,10.23,0,0,1,.32,1.1c.1.39.2.8.29,1.22.06-.42.13-.83.21-1.22s.16-.76.25-1.1L477.1,152a1.18,1.18,0,0,1,.44-.62,1.27,1.27,0,0,1,.82-.28Z"/><path class="cls-4" d="M502.72,175.93l0,3.08H485.48V151.06H502.7v3.09H489.26v9.28h10.88v3H489.26v9.54Z"/><path class="cls-4" d="M516.92,151.06a16.92,16.92,0,0,1,4.43.51,8.7,8.7,0,0,1,3.06,1.44,5.67,5.67,0,0,1,1.77,2.3,8,8,0,0,1,.56,3.05,5.94,5.94,0,0,1-1.28,3.74,6.83,6.83,0,0,1-1.63,1.47,9.12,9.12,0,0,1-2.31,1.07,8.49,8.49,0,0,1,4.63,2.19,5.84,5.84,0,0,1,1.55,4.22,7.94,7.94,0,0,1-.65,3.24,7,7,0,0,1-1.92,2.51,8.66,8.66,0,0,1-3.09,1.63,13.69,13.69,0,0,1-4.17.58H508V151.06Zm-5.15,3v9.53h5a9.64,9.64,0,0,0,2.78-.35,5.75,5.75,0,0,0,2-1,3.91,3.91,0,0,0,1.14-1.51,4.93,4.93,0,0,0,.37-1.94,4.3,4.3,0,0,0-1.48-3.62,7.56,7.56,0,0,0-4.6-1.14Zm6,22a9.18,9.18,0,0,0,2.79-.38,5,5,0,0,0,1.92-1,4,4,0,0,0,1.1-1.6,5.53,5.53,0,0,0,.35-2,4.18,4.18,0,0,0-1.54-3.42,7.15,7.15,0,0,0-4.62-1.26h-6V176Z"/><rect class="cls-4" x="73.57" y="193.43" width="463.19" height="2.61"/><rect class="cls-5" x="28.82" width="6.63" height="841.89"/><rect class="cls-6" x="31.24" width="2.29" height="841.89"/></svg>
