<svg xmlns="http://www.w3.org/2000/svg" xmlns:xlink="http://www.w3.org/1999/xlink" width="110" height="115" viewBox="0 0 110 115">
  <defs>
    <clipPath id="clip-path">
      <rect id="Rectangle_1" data-name="Rectangle 1" width="100" height="100"/>
    </clipPath>
    <clipPath id="clip-Web_1920_2">
      <rect width="110" height="115"/>
    </clipPath>
  </defs>
  <g id="Web_1920_2" data-name="Web 1920 – 2" clip-path="url(#clip-Web_1920_2)">
    <rect width="110" height="115" fill="#fff"/>
    <g id="a" transform="translate(4 5)" clip-path="url(#clip-path)">
      <g id="Group_2" data-name="Group 2">
        <g id="Group_1" data-name="Group 1">
          <path id="Path_1" data-name="Path 1" d="M50,100a49.985,49.985,0,1,1,19.463-3.929A50.013,50.013,0,0,1,50,100ZM38.333,42.823V52.2h5.623V79.4H55.212V52.2h7.509l1-9.375H55.212l.013-4.691c0-2.4.174-3.756,3.744-3.756h4.693V25H56.153c-4.384,0-7.486,1.057-9.481,3.23-1.827,1.99-2.716,4.923-2.716,8.965v5.629Z"/>
        </g>
      </g>
    </g>
  </g>
</svg>
