<svg xmlns="http://www.w3.org/2000/svg" xmlns:xlink="http://www.w3.org/1999/xlink" width="112" height="114" viewBox="0 0 112 114">
  <defs>
    <clipPath id="clip-path">
      <rect id="Rectangle_2" data-name="Rectangle 2" width="100" height="100"/>
    </clipPath>
    <clipPath id="clip-Web_1920_1">
      <rect width="112" height="114"/>
    </clipPath>
  </defs>
  <g id="Web_1920_1" data-name="Web 1920 – 1" clip-path="url(#clip-Web_1920_1)">
    <rect width="112" height="114" fill="#fff"/>
    <g id="a" transform="translate(1 1)" clip-path="url(#clip-path)">
      <path id="Path_2" data-name="Path 2" d="M50.056,100A50.008,50.008,0,1,1,91.77,77.654,49.972,49.972,0,0,1,50.056,100Zm0-76.667H48.9c-6.128,0-7.1.033-9.847.157a19.755,19.755,0,0,0-6.48,1.239,13.642,13.642,0,0,0-7.811,7.8A19.572,19.572,0,0,0,23.52,39c-.131,2.91-.161,3.869-.161,11s.031,8.083.161,10.993a19.764,19.764,0,0,0,1.241,6.473,13.656,13.656,0,0,0,7.807,7.8,19.784,19.784,0,0,0,6.48,1.238c2.873.13,3.825.161,11.007.161s8.134-.031,11.005-.161a19.794,19.794,0,0,0,6.483-1.238,13.67,13.67,0,0,0,7.807-7.8,19.865,19.865,0,0,0,1.241-6.473c.131-2.91.161-3.868.161-10.993s-.031-8.085-.161-11a19.836,19.836,0,0,0-1.241-6.471,13.642,13.642,0,0,0-7.809-7.8,19.833,19.833,0,0,0-6.485-1.239c-2.871-.127-3.822-.157-11-.157Z"/>
      <path id="Path_3" data-name="Path 3" d="M22.363,44.673c-7.259,0-8.125-.028-11.023-.159a15.144,15.144,0,0,1-5.066-.941,8.461,8.461,0,0,1-3.136-2.039A8.416,8.416,0,0,1,1.1,38.4a15.027,15.027,0,0,1-.94-5.058C.027,30.486,0,29.626,0,22.333s.027-8.149.157-11.007a15.061,15.061,0,0,1,.94-5.06A8.4,8.4,0,0,1,3.138,3.133,8.49,8.49,0,0,1,6.274,1.092,15.144,15.144,0,0,1,11.34.153C13.885.039,14.845.006,19.918,0c.234.007.487.007.71.007h1.736c7.343,0,8.2.027,11.023.155a15.113,15.113,0,0,1,5.066.939A8.427,8.427,0,0,1,41.587,3.14,8.479,8.479,0,0,1,43.63,6.273a15.14,15.14,0,0,1,.94,5.058c.13,2.86.157,3.72.157,11.009s-.027,8.15-.157,11.008a15.138,15.138,0,0,1-.94,5.058,9.042,9.042,0,0,1-5.177,5.167,15.036,15.036,0,0,1-5.066.941C30.49,44.646,29.624,44.673,22.363,44.673Zm0-36.322a13.993,13.993,0,1,0,14.008,14,13.993,13.993,0,0,0-14.008-14ZM36.926,4.529H36.92a2.36,2.36,0,1,0,.006,0Z" transform="translate(28.788 28.747)"/>
      <path id="Path_4" data-name="Path 4" d="M9.093,0A9.083,9.083,0,1,1,0,9.083,9.083,9.083,0,0,1,9.093,0Z" transform="translate(42.059 42.01)"/>
    </g>
  </g>
</svg>
