<svg id="Lag_1" data-name="Lag 1" xmlns="http://www.w3.org/2000/svg" xmlns:xlink="http://www.w3.org/1999/xlink" viewBox="0 0 714.24 1010.16"><defs><filter id="AI_Skygge_1" name="AI_Skygge_1"><feGaussianBlur result="blur" stdDeviation="2" in="SourceAlpha"/><feOffset result="offsetBlurredAlpha" dx="4" dy="4" in="blur"/><feMerge><feMergeNode in="offsetBlurredAlpha"/><feMergeNode in="SourceGraphic"/></feMerge></filter></defs><title>Tegnebræt 32</title><polygon points="654.8 929.47 715 861.67 654.8 87.58 654.8 929.47" style="opacity:0.2"/><g style="filter:url(#AI_Skygge_1)"><rect x="59.53" y="84.19" width="595.28" height="841.89" style="fill:#bccedd"/></g><text transform="translate(140.16 257.17)" style="font-size:30px;fill:#646463;font-family:Lato-Regular, Lato">G<tspan x="21.92" y="0" style="letter-spacing:-0.00400390625em">R</tspan><tspan x="40.59" y="0">UNDL</tspan><tspan x="123.78" y="0" style="letter-spacing:-0.015478515625em">Æ</tspan><tspan x="151.23" y="0">GGENDE</tspan><tspan x="275.43" y="0" style="letter-spacing:-0.033463541666666666em"> </tspan><tspan x="282.1" y="0" style="letter-spacing:-0.00003255208333333333em">ANIM</tspan><tspan x="361.57" y="0" style="letter-spacing:-0.0705078125em">A</tspan><tspan x="379.77" y="0">TION</tspan></text><text transform="translate(139.16 256.56)" style="font-size:30px;fill:#1d1d1b;font-family:Lato-Regular, Lato">G<tspan x="21.92" y="0" style="letter-spacing:-0.00400390625em">R</tspan><tspan x="40.59" y="0">UNDL</tspan><tspan x="123.78" y="0" style="letter-spacing:-0.015478515625em">Æ</tspan><tspan x="151.23" y="0">GGENDE</tspan><tspan x="275.43" y="0" style="letter-spacing:-0.033463541666666666em"> </tspan><tspan x="282.1" y="0" style="letter-spacing:-0.00003255208333333333em">ANIM</tspan><tspan x="361.57" y="0" style="letter-spacing:-0.0705078125em">A</tspan><tspan x="379.77" y="0">TION</tspan></text><rect x="133.1" y="277.61" width="463.19" height="2.61" style="fill:#1d1d1b"/><rect x="88.35" y="84.19" width="6.63" height="841.89" style="fill:#88a0aa"/><rect x="90.77" y="84.19" width="2.29" height="841.89" style="fill:#667c84"/></svg>
