<svg id="Lag_1" data-name="Lag 1" xmlns="http://www.w3.org/2000/svg" viewBox="0 0 1920 1080"><title>baggrund_2</title><rect width="1920" height="881" style="fill:#dbdbdb"/><g style="opacity:0.2"><rect y="876" width="1920" height="199" style="fill:#191919"/></g><rect y="881" width="1920" height="199" style="fill:#f4f4f4"/><path d="M257.92,886l-6.42-3.85v7.71L166.69,1030l1.28,6.42Q213,961.21,257.92,886Z" style="fill:#af82a4"/><path d="M167.74,1037.75l-1.58-7.88L251,889.75V881.3l7.61,4.56Zm-.52-7.7,1,5,89-148.81L252,883.06v7l-30.09,49.69Z"/><path d="M166.69,1030,251.5,889.89V859.05c-13.66,22.14-25.39,39.7-33.41,51.4C194.82,944.4,185.15,954.93,177,976A154.66,154.66,0,0,0,166.69,1030Z" style="fill:#f9f9f9"/><path d="M166.16,1031.79l0-1.84a154.9,154.9,0,0,1,10.31-54.14c6.16-15.86,13.25-25.88,26.11-44.07,4.34-6.14,9.26-13.1,15.07-21.57,11.35-16.57,22.59-33.86,33.39-51.38l.93-1.51V890l-30.09,49.69Zm84.84-171c-10.53,17-21.46,33.81-32.5,49.92-5.81,8.48-10.73,15.44-15.08,21.59-12.81,18.12-19.87,28.1-26,43.85a153.54,153.54,0,0,0-10.21,51.94L251,889.75Z"/><path d="M166.69,1037.67-172.56,902.74c-3.26-14.34-5-34.38,3.85-54q1.2-2.68,2.57-5.14L178.25,970.85a141.33,141.33,0,0,0-6.42,18A145.67,145.67,0,0,0,166.69,1037.67Z" style="fill:#dbb4cc"/><path d="M167.23,1038.43l-.73-.3L-173,903.11l-.06-.26c-4.57-20.14-3.27-38.41,3.88-54.29.79-1.74,1.66-3.48,2.59-5.17l.21-.38.4.15,344.89,127.4-.21.49a142.67,142.67,0,0,0-6.4,17.92,145.07,145.07,0,0,0-5.12,48.67ZM-172.13,902.37l338.27,134.54a145.83,145.83,0,0,1,5.21-48.21,143.88,143.88,0,0,1,6.23-17.57L-165.91,844.25c-.84,1.54-1.63,3.13-2.34,4.72C-175.28,864.59-176.59,882.55-172.13,902.37Z"/><path d="M-24.78,744.68q-6.43,73.25-12.86,146.49l215.89,79.68,86.1-129.79Z" style="fill:#dbb4cc"/><path d="M178.45,971.45l-.37-.13L-38.17,891.51-25.23,744l290.36,96.79L233.5,888.47ZM-37.1,890.84l215.15,79.4,85.52-128.91-287.91-96Z"/><path d="M166.69,725.12l-282.71-9L-155.86,821.5,195,827.92Q180.82,776.52,166.69,725.12Z" style="fill:#d3db8d"/><path d="M195.62,828.43H195L-156.58,822l40.22-106.37h.35l283.08,9ZM-155.14,821l349.44,6.4-28-101.8-282-9Z"/><path d="M188.53,896-152,890.89a187.27,187.27,0,0,1-3.86-20.56,189.66,189.66,0,0,1,0-48.83L195,827.92a181.63,181.63,0,0,1,0,34.7A181.48,181.48,0,0,1,188.53,896Z" style="fill:#d3db8d"/><path d="M188.91,896.54h-.38l-340.93-5.15-.09-.37a188,188,0,0,1-3.86-20.62,190.13,190.13,0,0,1,0-49l0-.44h.45l351.26,6.43.05.44a182.25,182.25,0,0,1,0,34.8,182,182,0,0,1-6.45,33.5Zm-340.52-6.15,339.77,5.13a181,181,0,0,0,6.3-32.95,181.32,181.32,0,0,0,0-34.16L-155.42,822a188.24,188.24,0,0,0,3.81,68.38Z"/></svg>
