<svg id="Lag_1" data-name="Lag 1" xmlns="http://www.w3.org/2000/svg" viewBox="0 0 1920 1080"><title>baggrund_2 kopi</title><rect width="1920" height="1080" style="fill:#dbdbdb"/><path d="M1729,977c-120.16-9-248.09-14-383-13.06-111,.77-217.18,5.47-318,13.06q6.07-192.16,6-397.81-.27-187.2-6-363.37h701q-4.55,171-5,342Q1723.43,767.42,1729,977Z" style="opacity:0.1"/><rect x="1039" y="206.32" width="678" height="754.06" style="fill:#f7f7d0"/><g style="opacity:0.9"><polygon points="1075.74 226.46 1054.3 232.31 1041.67 166.41 1063.12 160.56 1075.74 226.46" style="fill:#2b2b2b"/></g><g style="opacity:0.9"><polygon points="1684.54 232.15 1664.28 221.86 1681.96 171.06 1702.22 181.36 1684.54 232.15" style="fill:#2b2b2b"/></g><path d="M816.39,869c-120.15-9-248.08-14-383-13.07-111,.78-217.18,5.48-318,13.07q6.08-192.18,6-397.81-.27-187.2-6-363.37h701q-4.53,171-5,342Q810.84,659.37,816.39,869Z" style="opacity:0.1"/><rect x="126.39" y="98.28" width="678" height="754.06" style="fill:#f7f7d0"/><g style="opacity:0.9"><polygon points="163.13 118.41 141.69 124.27 129.06 58.37 150.51 52.52 163.13 118.41" style="fill:#2b2b2b"/></g><g style="opacity:0.9"><polygon points="771.93 124.11 751.67 113.81 769.35 63.02 789.61 73.31 771.93 124.11" style="fill:#2b2b2b"/></g></svg>