<svg id="Lag_1" data-name="Lag 1" xmlns="http://www.w3.org/2000/svg" viewBox="0 0 1920 1080"><title>baggrund_2</title><rect width="1920" height="881" style="fill:#dbdbdb"/><g style="opacity:0.2"><rect y="876" width="1920" height="199" style="fill:#191919"/></g><rect y="881" width="1920" height="199" style="fill:#f4f4f4"/><rect x="57.4" y="306" width="959.05" height="519.07" rx="10.98" style="fill:#a3a3a3;stroke:#000;stroke-miterlimit:10"/><rect x="59.51" y="310.96" width="950.6" height="443.03" rx="11.95" style="fill:#636363;stroke:#000;stroke-miterlimit:10"/><path d="M686.91,922.61c-.92,4.62-37.06,3.57-99.29,3.3-9.83,0-34.4-.14-54.92,0-81.35.58-136.22,3.9-137.31-1.65-.4-2,6.72-3,19-11.57a115,115,0,0,0,16.9-14.88c11.06-12.1,16.88-39.51,10.56-72.74H636.21a83.8,83.8,0,0,0,0,49.6c3,9.61,6.71,21.26,19,31.4C670.49,918.67,687.54,919.42,686.91,922.61Z" style="fill:#a3a3a3;stroke:#000;stroke-miterlimit:10"/><path d="M536,794.49c0-5.72,5.51-10.53,13-12-3.57-4-8.27-6.31-10.4-6.23-.17,0-1.53.06-3.32.24-1.27.12-2.35.26-3.26.39a8.32,8.32,0,0,1,.31-1.48,10.71,10.71,0,0,1,2.77-4.53l-2.75-3.9-2.11,9.8a4,4,0,0,0-.65-.28,15.13,15.13,0,0,0-2.69-.24c-9,0-16.37,7.77-16.37,17.35,0,9.39,9,18.06,16.37,17.36a10.22,10.22,0,0,0,5.6-2.48,10.63,10.63,0,0,0,6.1,2.48c3.42.15,6.94-1.75,9.72-4.7C541.19,804.74,536,800,536,794.49Z" style="fill:#494949"/><path d="M1852,865c-120.16-9-248.09-14-383-13.06-111,.77-217.18,5.47-318,13.06q6.07-192.16,6-397.81-.27-187.2-6-363.37h701q-4.55,171-5,342Q1846.43,655.42,1852,865Z" style="opacity:0.1"/><rect x="1162" y="94.32" width="678" height="754.06" style="fill:#f7f7d0"/><g style="opacity:0.9"><polygon points="1198.74 114.46 1177.3 120.31 1164.67 54.41 1186.12 48.56 1198.74 114.46" style="fill:#2b2b2b"/></g><g style="opacity:0.9"><polygon points="1807.54 120.15 1787.28 109.86 1804.96 59.06 1825.22 69.36 1807.54 120.15" style="fill:#2b2b2b"/></g></svg>
