<svg id="Lag_1" data-name="Lag 1" xmlns="http://www.w3.org/2000/svg" viewBox="0 0 1920 1080"><title>computer</title><rect width="1920" height="881" style="fill:#dbdbdb"/><g style="opacity:0.2"><rect y="876" width="1920" height="199" style="fill:#191919"/></g><rect y="881" width="1920" height="199" style="fill:#f4f4f4"/><rect x="448.86" y="283.97" width="1159.45" height="633.62" rx="6.48" style="fill:#474747;stroke:#161515;stroke-miterlimit:10"/><rect x="448.58" y="889.91" width="1159.45" height="19.39" style="fill:#212121"/><path d="M1757.68,949.5H299.48c-16.86-.52-30.38-10.79-32-23-1.87-14.1,12.38-28,32-28.8h1458.2c19.63.8,33.88,14.7,32,28.8C1788.06,938.71,1774.54,949,1757.68,949.5Z" style="fill:#474747;stroke:#161515;stroke-miterlimit:10"/><rect x="263.91" y="894.78" width="1529.33" height="28.8" style="fill:#474747;stroke:#161515;stroke-miterlimit:10"/><rect x="509.32" y="333.16" width="1038.52" height="524.18" style="fill:#dbdbdb;stroke:#161515;stroke-miterlimit:10"/><ellipse cx="1025.02" cy="313" rx="10.67" ry="8.64" style="fill:#757575;stroke:#161515;stroke-miterlimit:10"/><path d="M1142.39,909.18c-5,4.06-11.11,5.24-14.23,5.76-35.05,5.79-99.58,5.76-99.58,5.76s-72,0-106.7-5.76c-3.1-.51-9.21-1.7-14.22-5.76a20.58,20.58,0,0,1-7.12-11.52h249A20.5,20.5,0,0,1,1142.39,909.18Z" style="fill:#303030;stroke:#161515;stroke-miterlimit:10"/><path d="M1801,878.8H1616.06V277.7c0-5.36-5.36-9.7-12-9.7H468.58c-6.61,0-12,4.34-12,9.7V873.94h-.28v4.86H271.67v28.8h3.41a18.53,18.53,0,0,0,.14,2.88c1.63,12.26,15.15,22.52,32,23h1458.2c16.86-.53,30.38-10.79,32-23a18.54,18.54,0,0,0,.15-2.88H1801Z" style="fill:#303030;stroke:#161515;stroke-miterlimit:10;opacity:0.1"/></svg>
