<svg id="Lag_1" data-name="Lag 1" xmlns="http://www.w3.org/2000/svg" xmlns:xlink="http://www.w3.org/1999/xlink" viewBox="0 0 1920 1080"><defs><clipPath id="clip-path"><rect x="789.25" y="431" width="846.31" height="462" style="fill:none"/></clipPath><linearGradient id="Ikke-navngivet_forløb_2" x1="879.02" y1="-991.89" x2="933.86" y2="-991.89" gradientTransform="matrix(1, 0, 0, -1, 0, -116)" gradientUnits="userSpaceOnUse"><stop offset="0.11" stop-color="#0075be"/><stop offset="0.59" stop-color="#1e53d7"/><stop offset="0.89" stop-color="#cce0f4"/><stop offset="0.9" stop-color="#c3daf0"/><stop offset="0.92" stop-color="#a9c9e4"/><stop offset="0.94" stop-color="#80aed1"/><stop offset="0.97" stop-color="#4689b7"/><stop offset="0.99" stop-color="#005b97"/></linearGradient></defs><title>computer kopi</title><rect width="1920" height="881" style="fill:#dbdbdb"/><g style="opacity:0.2"><rect y="876" width="1920" height="199" style="fill:#191919"/></g><rect y="881" width="1920" height="199" style="fill:#f4f4f4"/><rect x="730.41" y="395.35" width="968.61" height="529.33" rx="6.48" style="fill:#474747;stroke:#161515;stroke-miterlimit:10"/><rect x="730.18" y="901.55" width="968.61" height="16.2" style="fill:#212121"/><path d="M1823.81,951.33H605.62c-14.08-.44-25.38-9-26.74-19.25-1.56-11.78,10.35-23.39,26.74-24.06H1823.81c16.4.67,28.31,12.28,26.74,24.06C1849.19,942.32,1837.9,950.89,1823.81,951.33Z" style="fill:#474747;stroke:#161515;stroke-miterlimit:10"/><rect x="575.91" y="905.61" width="1277.61" height="24.06" style="fill:#474747;stroke:#161515;stroke-miterlimit:10"/><ellipse cx="1211.75" cy="419.59" rx="8.91" ry="7.22" style="fill:#757575;stroke:#161515;stroke-miterlimit:10"/><path d="M1309.8,917.64c-4.19,3.39-9.29,4.38-11.89,4.81-29.29,4.84-83.19,4.82-83.19,4.82s-60.14,0-89.14-4.82c-2.59-.42-7.69-1.41-11.88-4.81a17.06,17.06,0,0,1-5.94-9.62h208A17.15,17.15,0,0,1,1309.8,917.64Z" style="fill:#303030;stroke:#161515;stroke-miterlimit:10"/><g style="clip-path:url(#clip-path)"><rect x="789.51" y="431.26" width="846.83" height="461.49" style="fill:#b4e4f9"/><ellipse cx="972.14" cy="782.64" rx="206.31" ry="142" style="fill:#4b1bce;stroke:#000;stroke-miterlimit:10"/><ellipse cx="1400.45" cy="872.16" rx="405.15" ry="217.11" style="fill:#021260"/><path d="M928.89,790.22c-71.47-4.33-134.13,13-163.11,41.56-.06,15.33,1.27,46,1,46s1.5,17.18,2.3,25.77c1.2.31,2.41.64,3.6,1,12.73.24,25.43,1,38.14,1.79,13.12.81,26.24,1.62,39.38,1.77,3.39,0,6.78.17,10.16.35,4.67,0,9.33,0,14-.2,10.45-.39,20.82-1.7,31.24-2.57,10.67-.89,21.37-1.55,32.07-1.63,10.46-.1,20.89.94,31.34.6s21-1.22,31.48.18c5,.66,10,1.61,15,1.8,5.41.19,10.84,0,16.25-.09,20.85-.34,41.67-1.21,62.53-.9,3-5.86,5.42,9.91,5.18-18.45S1025.73,796.09,928.89,790.22Z" style="fill:#26006a;stroke:#000;stroke-miterlimit:10"/><g style="opacity:0.17000000178813934"><path d="M889.12,848.67l.4.11h2.37c4.12,0,8.23.13,12.35.26l8.3.1h2.38L866.77,559.26,796.6,570.64l46.27,278.63c8.16-.26,16.33.08,24.49,0,6.65-.08,13.29-.33,19.93-.43A2.38,2.38,0,0,1,889.12,848.67Z" style="fill:#001494;stroke:#000;stroke-miterlimit:10"/><path d="M794.91,566.75V582.5l87.84-18.77L814.15,481l-18.3,67.87C796.45,554.79,795.68,560.81,794.91,566.75Z" style="fill:#160035;stroke:#000;stroke-miterlimit:10"/><path d="M995.56,848.67l35-280.2-68.21-8.34-35.5,284.32,35.07,4.31C973.11,848,984.34,849.27,995.56,848.67Z" style="fill:#001494;stroke:#000;stroke-miterlimit:10"/><polygon points="939.72 564.6 1008.58 474.41 1053.17 578.44 939.72 564.6" style="fill:#0c004a;stroke:#000;stroke-miterlimit:10"/><rect x="869.93" y="509.48" width="90.8" height="338.7" style="fill:#00157f;stroke:#000;stroke-miterlimit:10"/><polygon points="848.97 523.82 914.85 409.39 982.17 522.99 848.97 523.82" style="fill:#000435;stroke:#000;stroke-miterlimit:10"/></g><path d="M882.32,848.45l.4.11h2.38c4.12,0,8.23.14,12.35.27l8.33.11,2.38,0L859.91,555.5,789.54,567l46.4,282c8.18-.26,16.37.08,24.56,0,6.67-.08,13.32-.33,20-.43A2.33,2.33,0,0,1,882.32,848.45Z" style="fill:#001494"/><path d="M787.84,563.07V579l88.1-19-68.8-83.81-18.35,68.7C789.38,551,788.61,557.05,787.84,563.07Z" style="fill:#160035;stroke:#000;stroke-miterlimit:10"/><path d="M989.07,848.45l35.09-283.64-68.43-8.42-35.6,287.8,35.18,4.33C966.55,847.77,977.8,849.06,989.07,848.45Z" style="fill:#001494"/><polygon points="933.07 560.89 1002.12 469.59 1046.85 574.9 933.07 560.89" style="fill:#0c004a;stroke:#000;stroke-miterlimit:10"/><rect x="863.08" y="505.1" width="91.06" height="342.86" style="fill:#00157f"/><polygon points="835.88 517.49 901.95 401.67 969.47 516.66 835.88 517.49" style="fill:#000435;stroke:#000;stroke-miterlimit:10"/><rect x="885.2" y="557.97" width="37.56" height="37.47" rx="8.72" style="fill:#0064ff;stroke:#000;stroke-miterlimit:10"/><rect x="889.83" y="609.81" width="37.56" height="37.47" rx="8.25" style="fill:#005dff;stroke:#000;stroke-miterlimit:10"/><rect x="960.35" y="605.66" width="37.47" height="37.56" rx="8.2" transform="translate(239.67 1519.87) rotate(-82.98)" style="fill:#0064ff;stroke:#000;stroke-miterlimit:9.999999732873778"/><rect x="816.27" y="591.32" width="37.55" height="37.47" rx="11.51" transform="translate(-109.84 189.75) rotate(-12.17)" style="fill:#0064ff;stroke:#000;stroke-miterlimit:10.000000177251644"/><line x1="902.47" y1="558.22" x2="904.05" y2="595.69" style="fill:none;stroke:#000;stroke-miterlimit:10"/><line x1="885.46" y1="576.96" x2="922.5" y2="576.96" style="fill:none;stroke:#000;stroke-miterlimit:10"/><line x1="909.48" y1="609.56" x2="907.34" y2="647" style="fill:none;stroke:#000;stroke-miterlimit:10"/><line x1="890.09" y1="626.74" x2="927.13" y2="626.74" style="fill:none;stroke:#000;stroke-miterlimit:10"/><line x1="982.25" y1="605.91" x2="979.65" y2="643.31" style="fill:none;stroke:#000;stroke-miterlimit:10"/><line x1="960.68" y1="622.64" x2="997.5" y2="626.74" style="fill:none;stroke:#000;stroke-miterlimit:10"/><line x1="831.33" y1="591.55" x2="839.4" y2="628.26" style="fill:none;stroke:#000;stroke-miterlimit:10"/><line x1="817.31" y1="613.53" x2="853.79" y2="607.11" style="fill:none;stroke:#000;stroke-miterlimit:10"/><path d="M1105.12,725.07l110.5-22.29" style="fill:#fff;stroke:#000;stroke-miterlimit:10"/><path d="M1268.08,706.45c-3.28,47-39.25,71.87-103.2,78.62-42.36,4.47-73.35-5.09-87.74-27.48q-1.25-1.94-2.33-4c-6.84-13-6.24-28.78-3.74-47.15,5.86-43.05,21.19-83.64,93.29-94C1270.22,597.33,1270.76,668.06,1268.08,706.45Z" style="fill:#cffff8"/><path d="M1145.35,786.41c-13.06,0-24.75-1.59-34.9-4.76-15.07-4.7-26.34-12.74-33.53-23.92-.83-1.29-1.62-2.64-2.34-4-6.73-12.81-6.37-28.18-3.76-47.31,5.83-42.79,21.19-83.82,93.51-94.18,38.24-5.48,66.37-.13,83.59,15.88,21.55,20,22.23,52.4,20.42,78.36-1.62,23.15-11.36,41.54-29,54.61-17.05,12.67-42.1,20.83-74.47,24.25A187.92,187.92,0,0,1,1145.35,786.41Zm46.11-175.75a191.45,191.45,0,0,0-27.06,2.06c-33,4.72-56.34,16-71.32,34.62-14.61,18.09-19.3,41.1-21.75,59.12-2.58,19-3,34.31,3.71,47,.71,1.36,1.49,2.7,2.32,4,7.11,11.07,18.3,19,33.24,23.7s33.17,5.88,54.26,3.66c32.28-3.41,57.24-11.53,74.22-24.15,17.49-13,27.14-31.24,28.75-54.24h0c1.8-25.84,1.13-58.06-20.26-77.94C1234.82,616.62,1216,610.66,1191.46,610.66Z"/><path d="M1069.5,736.65c-24-2.88-42.21,12.47-47.94,12.94s-10.43-1-29.19-18.21,13.3,32.63,24,31.64c10.08-.93,58.11-2.12,70.37,4.79" style="fill:#cffff8"/><path d="M1086.58,768c-6.53-3.67-23.12-4.91-35.88-5.3-14.61-.45-29.12.06-34.33.54h-.32c-8,0-26.58-25.31-29.36-33.25-.47-1.34-.47-2.11,0-2.42s1.62-.31,5.84,3.6c18.48,17,23.22,18.63,29,18.15,1.6-.14,4.32-1.55,7.77-3.27,8.63-4.39,23.06-11.73,40.24-9.68l-.07.52c-17-2.06-31.38,5.26-39.94,9.62-3.63,1.85-6.26,3.18-7.95,3.33-5.93.51-10.75-1.16-29.39-18.29-4.11-3.76-5-3.65-5.21-3.53s-.34.32.19,1.83c2.75,7.85,21.06,32.93,28.84,32.93h.31c9-.84,57.92-2.27,70.49,4.82Z"/><path d="M1214.4,774c.92-1.25,12.18,18.39,19.6,17.66s4.18-19-.84-26.75C1233.81,766.24,1213.61,775.12,1214.4,774Z" style="fill:#cffff8"/><path d="M1233.59,792c-5.07,0-11.41-8.23-15.66-13.74a31.4,31.4,0,0,0-3.27-3.91c-.24,0-.4,0-.46,0a.3.3,0,0,1,0-.4h0a.4.4,0,0,1,.32-.16.6.6,0,0,1,.29.08A90.33,90.33,0,0,0,1224,770c6.86-3.19,8.83-4.63,8.91-5v.06l.45-.25c4,6.27,6.83,19.06,4.21,24.48A4.32,4.32,0,0,1,1234,792Zm-18.31-17.8a42.4,42.4,0,0,1,3.06,3.75c4,5.23,10.8,14,15.64,13.52a3.84,3.84,0,0,0,3.15-2.39c2.5-5.14-.09-17.27-3.93-23.58a3.79,3.79,0,0,1-.69.58c-2.15,1.54-13.61,7.07-17.23,8.12Z"/><ellipse cx="1145.08" cy="685.12" rx="37.53" ry="38.59" style="fill:#fff"/><path d="M1145.08,724.74c-21.26,0-38.55-17.78-38.55-39.62s17.29-39.61,38.55-39.61,38.56,17.77,38.56,39.61S1166.34,724.74,1145.08,724.74Zm0-77.18c-20.13,0-36.5,16.86-36.5,37.56s16.37,37.56,36.5,37.56,36.5-16.85,36.5-37.56-16.38-37.57-36.5-37.57Z"/><ellipse cx="1220.65" cy="676.25" rx="32.83" ry="36.44" style="fill:#fff"/><path d="M1220.64,713.71c-18.67,0-33.87-16.81-33.87-37.46s15.2-37.47,33.87-37.47,33.87,16.8,33.87,37.47S1239.33,713.71,1220.64,713.71Zm0-72.87c-17.54,0-31.81,15.88-31.81,35.41s14.27,35.4,31.81,35.4,31.81-15.88,31.81-35.4S1238.19,640.84,1220.64,640.84Z"/><polygon points="1149.9 760.41 1130.11 740.29 1121.23 754.69 1106.99 739.58 1108.12 738.52 1120.98 752.17 1129.83 737.8 1149.64 757.96 1162.5 738.09 1187.44 748.13 1195.23 731.87 1214.72 738.17 1231.29 722.46 1240 722.46 1247.08 709.43 1248.43 710.17 1240.92 724 1231.9 724 1215.12 739.92 1196.04 733.75 1188.2 750.1 1163.1 740 1149.9 760.41"/><path d="M1175.88,843.88c0,19.43-23.85,31.52-54.15,31.52s-55.56-12.09-55.56-31.52c0-18.8,22.83-31.46,51.77-32.41,1,0-1,0,0,0C1148.21,811.45,1175.88,824.46,1175.88,843.88Z" style="fill:#ffe98a"/><path d="M1121.71,875.66c-15.15,0-29.1-3-39.26-8.51-10.84-5.84-16.56-13.89-16.56-23.27,0-9.13,5.24-17.13,15.15-23.12,9.34-5.66,22.3-9,36.53-9.56h.68c15.08,0,29.33,3.23,40.13,9,11.44,6.07,17.74,14.5,17.74,23.73C1176.11,862.59,1153.76,875.66,1121.71,875.66Zm-3.79-63.95c-14.27.48-27.27,3.86-36.61,9.5-9.77,5.9-14.92,13.74-14.92,22.68,0,9.18,5.64,17.07,16.29,22.82,10.09,5.45,24,8.45,39,8.45,31.73,0,53.89-12.86,53.89-31.27C1175.6,823.74,1146.27,811.71,1117.92,811.71Z"/><ellipse cx="1121.13" cy="843.63" rx="43.25" ry="31.99" style="fill:#ffe98a"/><path d="M1121.13,875.87c-24,0-43.52-14.47-43.52-32.26s19.52-32.24,43.51-32.24,43.51,14.46,43.51,32.24S1145.12,875.87,1121.13,875.87Zm0-64c-23.71,0-43,14.22-43,31.71s19.28,31.73,43,31.73,43-14.24,43-31.73S1144.83,811.9,1121.13,811.9Z"/><ellipse cx="1120.88" cy="843.63" rx="27.37" ry="31.99" style="fill:#ffe98a"/><path d="M1120.88,875.87c-15.23,0-27.62-14.47-27.62-32.24s12.39-32.25,27.62-32.25,27.63,14.47,27.63,32.25S1136.11,875.87,1120.88,875.87Zm0-64c-15,0-27.11,14.23-27.11,31.73s12.16,31.72,27.11,31.72S1148,861.1,1148,843.61,1135.83,811.9,1120.88,811.9Z"/><ellipse cx="1120.88" cy="844.04" rx="11.24" ry="31.99" style="fill:#ffe98a"/><path d="M1120.88,876.28c-6.34,0-11.5-14.46-11.5-32.24s5.15-32.24,11.5-32.24,11.5,14.46,11.5,32.24S1127.22,876.28,1120.88,876.28Zm0-64c-6.06,0-11,14.23-11,31.73s4.92,31.73,11,31.73,11-14.24,11-31.73-4.92-31.73-11-31.73Z"/><polygon points="1093.52 842 1104.35 824.02 1117.22 848.16 1093.52 842"/><path d="M1117.74,848.56l-24.61-6.4,11.24-18.66Zm-23.81-6.72,22.78,5.93-12.38-23.23Z"/><polygon points="1151.67 841.59 1141.28 824.85 1128.94 847.34 1151.67 841.59"/><path d="M1128.44,847.73l12.83-23.4,10.8,17.42Zm12.86-22.38L1129.47,847l21.81-5.51Z"/><polygon points="1090.09 853.74 1094.98 863.23 1104.76 856.63 1111.11 865.29 1118.44 859.51 1124.3 865.29 1133.59 859.51 1138.96 865.29 1151.67 859.51 1141.9 859.51 1133.59 853.74 1125.28 859.51 1118.44 853.74 1111.11 859.51 1102.8 851.67 1096.79 857.07 1090.09 853.74"/><path d="M1111.05,865.66l-6.36-8.67-9.81,6.62-5.37-10.45,7.24,3.61,6.07-5.44,8.32,7.85,7.3-5.79,6.85,5.78,8.3-5.77,8.38,5.83h10.88l-13.95,6.35-5.36-5.76-9.26,5.78-5.84-5.76Zm22.57-6.48,5.4,5.8,11.46-5.21h-8.67l-.06,0-8.16-5.66-8.33,5.79-6.83-5.77-7.34,5.79-8.27-7.85-6,5.36-6.17-3.08,4.39,8.53,9.75-6.58,6.34,8.65,7.3-5.75,5.88,5.8Z"/><path d="M1110.45,777c1.42,17.52,4.17,26.84,13,31.64s14.09-17.11,16.68-27.81" style="fill:#cffff8"/><path d="M1125.94,809.6a5.42,5.42,0,0,1-2.57-.71c-9.3-5-11.8-15.08-13.16-31.84l.51,0c1.35,16.58,3.8,26.51,12.9,31.43a4.43,4.43,0,0,0,4.12.26c6.13-2.73,10-19,12.16-27.73l0-.17.52.12,0,.17c-2.13,8.82-6.09,25.24-12.45,28.08A5,5,0,0,1,1125.94,809.6Z"/><path d="M1149.64,819.1c-6.26-11.54-13-17.69-20.17-18.26-7.29-.59-15.26,4.63-23.66,15.51l-.82-.62c8.64-11.18,16.87-16.54,24.58-15.92,7.5.6,14.56,6.93,21,18.79Z"/><path d="M887.77,900.42c2.14,1.55,1.19,6.51,1.67,6.47.32,0,.24-3.34,1.27-3.45,3.47-.38,6.94-.78,10.41-1.11,8.63-.82,41.56,4.52,26-1.5s0,0,0,0c1.33,0,10.08-12.5,2.63-2.32s-1.39-40.78,1.58-51.67c.31-1.16-1.38-1.94-2.57-1.94h-41.9a2.45,2.45,0,0,0-1.46.43c-1.17.82-.85,2.94-.73,3.76,1,7.35,2,14.71,3.13,22C890.12,886,878,898.92,881.08,901,882.63,902,885.67,898.92,887.77,900.42Z" style="stroke:#000;stroke-miterlimit:10;opacity:0.5899999737739563;isolation:isolate;fill:url(#Ikke-navngivet_forløb_2)"/><path d="M906.29,712.45c-16.76,0-30.35,41-30.35,91.62a248.41,248.41,0,0,0,3.69,43.73,3.5,3.5,0,0,1,.63.12l.41.11H883c4.06,0,8.11.13,12.16.26l8.54.11,6.5.07c4.23-.1,8.46-.24,12.7-.34,1.72-.13,3.45-.25,5.18-.28a2.45,2.45,0,0,1,1,.19h3.75a249.27,249.27,0,0,0,3.75-44C936.65,753.47,923.05,712.45,906.29,712.45Z" style="fill:#7f6b00"/><path d="M880.26,849l.87.24c7.54,0,15.07.13,22.61.22,4.14.05,8.28.1,12.42.09s8-.58,12-.64h.42a245.61,245.61,0,0,0,4-45.34c0-48.88-12.67-88.54-28.3-88.54s-28.29,39.62-28.29,88.54a244.6,244.6,0,0,0,4,45.32Z" style="fill:#02005f"/><path d="M1407.46,540.5c5.75,2.73,6.83,12.7,2.85,23.11,4.68-4.53,9.87-6.49,13.81-4.63,5.42,2.57,6.69,11.61,3.46,21.37,5-5.42,10.77-7.94,15.06-5.89,6.3,3,7,14.72,1.54,26.15-.25.52-.51,1.06-.79,1.58-6.13,14,8.78-16.92,10.45-20.07.37-1-9.16,18.34-8.7,17.37,5.45-11.45,15-18.28,21.29-15.28,5,2.37,6.44,10.13,4.19,18.91,5.55-10.53,14.51-16.65,20.53-13.77,4.35,2.06,6,8.28,4.87,15.69,5.53-10.71,14.61-17,20.69-14.07,4.66,2.22,6.25,9.22,4.55,17.34a25,25,0,0,0,9.56-10.42c6.68-14-1.7-33.08-19.7-49.53-7.52,15.27-29,20.25-48.18,11.11-18.81-9-28.46-28.21-22.09-43.53-22.7-2.71-41.32,2.87-47.73,16.31a25.62,25.62,0,0,0-1.87,15.43C1396.46,541.39,1402.83,538.29,1407.46,540.5Z" style="stroke:#000;stroke-miterlimit:10"/><ellipse cx="1464.73" cy="556.65" rx="7.94" ry="10.35" transform="translate(331.91 1639.25) rotate(-64.51)" style="stroke:#000;stroke-miterlimit:10.000000025507436"/><path d="M1474.79,557.18a8,8,0,0,0,3-4,9.19,9.19,0,0,0-5.12,1.17c-2.24,1.43-3.6,3.22-3,4S1472.56,558.59,1474.79,557.18Z" style="stroke:#000;stroke-miterlimit:10"/><path d="M1459,549a8,8,0,0,1,1.21-4.87,9.12,9.12,0,0,1,2.31,4.71c.31,2.66-.23,4.82-1.21,4.86S1459.29,551.67,1459,549Z" style="stroke:#000;stroke-miterlimit:10"/><path d="M1012,457.93a.84.84,0,0,1-.24,1.15l-.11.06c-.69.52-1,1.4-1.74,1.92-.51.35.09.43.09.78a4.12,4.12,0,0,1-2.26.44c-1.48-.09-3.05-.18-4.53-.18a14.81,14.81,0,0,0-3.39.18,1.71,1.71,0,0,0-1.74,1.3,6.6,6.6,0,0,0-2.25-.52c.51,1.13.17,2.52,1.65,3.22.35.17.35.78.35,1.22a30,30,0,0,0,.43,5.66c.18,2.6.24,5.2.16,7.81.09,3.91-.17,7.71,0,11.65.09,1.54.27,3,.44,4.52a54.54,54.54,0,0,1,.26,7.56c0,1-.18,2-.09,3.05.09,2.26-.34,4.52-.34,6.87-.09,1.54-1,2.87-1.31,4.43,0,.18,0,.27-.09.35a24.66,24.66,0,0,0-2.43.7c-.26.17-.61,0-1-.18-.51-.35-1.21-.69-1.83-1a1.54,1.54,0,0,0-1.47.09c-1.22.7-3-.61-2.87-2.09.08-2.17-.18-4.43-.27-6.6a22.34,22.34,0,0,1,.44-5.83,11.6,11.6,0,0,0-.09-5.21,8.23,8.23,0,0,1-.26-2.88,33.13,33.13,0,0,0-.17-4.26c0-3.13-.08-6.26-.08-9.38a48.45,48.45,0,0,1,.43-10.09,21.38,21.38,0,0,0,.08-4.09,10.47,10.47,0,0,1,.35-3.22c.26-.51,0-1.13-.08-1.74a1.24,1.24,0,0,0-1-.78,25,25,0,0,0-5,0c-1.74.26-3.48.09-5.22.18a1.68,1.68,0,0,1-1.48-.52,1.33,1.33,0,0,1,.78-.51c.52-.18.78-.35.61-1-.08-.52.26-.78.87-.95a22.87,22.87,0,0,1,4.87-.44c3.13-.18,6.09-.87,9-1.3,3.75-.44,7.39-1.31,11.22-1a49.9,49.9,0,0,0,7.13-.09h1C1011.44,457.06,1011.7,457.4,1012,457.93Zm-22.44,5.21c-.35.52-.35,2.44.27,2.53l.51.08c-.26-.69.09-2.17-.51-2.69C989.79,463,989.64,463.06,989.52,463.14Z" style="fill:#ffe00a;stroke:#000;stroke-miterlimit:10;stroke-width:2px"/><path d="M1030.39,458.78c2.52.18,5.14.18,7.3,1.65a14.55,14.55,0,0,0,4,2.09,4.33,4.33,0,0,1,2.35,2.61c1,2.61,2.09,5.22,1.82,8.17-.08,1,.44,1.74.44,2.7.09,3.74-1.65,6.52-4.26,8.95a33.77,33.77,0,0,1-4.18,2.79,3.66,3.66,0,0,1-1.47.87c.09-.79.95-1,.95-1.74a5.76,5.76,0,0,0-2.6,1.74c-.35.34.08.87.43,1.12,1.22,1,2.35,2.27,3.48,3.4a16.24,16.24,0,0,1,3.74,6.17c1.39,3.65,2.87,7.3,4.52,10.81a7.1,7.1,0,0,1,.61,1.91,21,21,0,0,0,1.48,3.91,2.74,2.74,0,0,1,.17,2c-.09.78-.26,1.22-1.13,1.31-.09,0-.26.26-.35.43-.34.51-.78.61-1.21.17-.87-.78-1.66-1.21-2.7-.43a1,1,0,0,1-1,0c-1.39-.87-3-1.57-3.82-3.13a17.74,17.74,0,0,0-1.22-2.17c-2.78-5.74-5.22-11.57-7.57-17.49a16.23,16.23,0,0,0-1.21-2.52c-1.13.6-1.91,1.38-1.66,2.77v.7c-.69,3.22,0,6.43,0,9.74a54.61,54.61,0,0,1-.08,9.22c-.17.78.17,1.82-1.31,1.65-.26-.09-.43.26-.43.51a7.45,7.45,0,0,0-.35,1.31,12.34,12.34,0,0,1-3.3-2.52,2.6,2.6,0,0,1-3.48.51,4,4,0,0,1-2.17-3.56c-.09-1.39.34-2.7.26-4.09-.18-3.91-.18-7.91-.35-11.83a21.41,21.41,0,0,0-.26-2.26,53.88,53.88,0,0,1-.7-13.48c.26-4.63.26-9.13.44-13.73a54.17,54.17,0,0,0,.17-6.52,2.35,2.35,0,0,0-.17-1.31c-1,0-1.83.61-2.79.51-.26-.43.52-.69.09-1-.69-.7-.26-1,.43-1.31a21.65,21.65,0,0,1,9.74-1.12C1025.52,458.62,1028,458.62,1030.39,458.78Zm-3.83,29a3.69,3.69,0,0,0,.78-.43c2.87-2.87,5.83-5.56,8.18-8.87A18.06,18.06,0,0,0,1038,471a2.47,2.47,0,0,0-.26-1.13,3.8,3.8,0,0,1-.44-2.17,1.14,1.14,0,0,0-.78-1.31,10.49,10.49,0,0,1-1.22-.78c-1.54-1.22-3-2.61-5.21-3.22a13.92,13.92,0,0,0-3.83-.26,252.2,252.2,0,0,1,.26,25.67Z" style="fill:#ffe00a;stroke:#000;stroke-miterlimit:10;stroke-width:2px"/><path d="M1063.69,460a9.42,9.42,0,0,1,2.35,5.74c.17,3.83.17,8.52.51,12.61.26,3,.26,5.91.61,8.87a19.62,19.62,0,0,0,.51,3.22,19,19,0,0,1,0,7.39c-.51,3.47-.43,7-.6,10.34-.09,1.55.08,3.13-.7,4.63a2.38,2.38,0,0,0,.09,1.74c.09.52.43,1-.26,1.48-.27.17-.09.51.08.7.44.51.18.95-.08,1.47-.7,1.14-.7,1.14-1.74.44-.7-.44-1.48-.51-1.83,0-1.91,3-2.61.26-4.78.52a1.11,1.11,0,0,1-1.13-.87,9.2,9.2,0,0,1-.61-3c0-2.35.09-4.69.09-7,0-2.52-.52-4.86-.7-7.3-.51-5.91-.17-11.74-.51-17.56-.18-3.05.08-6.17,0-9.13-.18-3.57.08-8.09.17-11.65.08-1.31.08-1.31,1.48-1.31a1.74,1.74,0,0,1,.6-.08c.27-.61-.17-1.14,0-1.74.27-.44.87-.18,1.22-.61.18-.17.52-.35.7-.26C1060.73,458.88,1062.47,458.71,1063.69,460Zm.7,28v2c0,.35.51,1.48.6,1.91l.18,1.92c.08-.35.08-.09.35-1a7.92,7.92,0,0,0,.08-2.43c0-.52-.26-1.74-.35-2.36l-.43-3.64A17.74,17.74,0,0,0,1064.39,488Z" style="fill:#ffe00a;stroke:#000;stroke-miterlimit:10;stroke-width:2px"/><path d="M1105.6,459a5.74,5.74,0,0,1,2.7,4.78c.17,3.57.51,15.39-1.66,12.52-1.21-1.54-.43,1-1,1.55-.44.43-.35,1-.7,1.47-2.26-2.17-2.17-5.21-2.69-7.91a59.28,59.28,0,0,1-.87-6.78c-.26-3.22-4.18-5.22-7.3-3.74.43.08.86.14,1.3.18.17.17.17.34,0,.43a6.64,6.64,0,0,0-2.61,3.83,35.47,35.47,0,0,0-1.83,5.74c-.35,2.71-1.46,5.23-1.92,7.93a42.74,42.74,0,0,0-.87,4.78c-.43,3.48,0,9.22-.17,11.56a5.1,5.1,0,0,0-.18,1.55,13.32,13.32,0,0,1,.09,4.18c-.09,1,1,2,1.13,2.95a17.48,17.48,0,0,0,2,7.2,3.92,3.92,0,0,0,4.18,2.26l3.56-.26a2.82,2.82,0,0,0,1.57-.7,22.92,22.92,0,0,0,5-3.47,11.28,11.28,0,0,0,2.34-1.66c1-1,2.09-1.74,3.14-2.86a5,5,0,0,1,2.17-1.22c.44.69-1,2-.35,2.52,0,.15-.05.29-.08.44-.62.87-1.66,1.12-2.09,1.82a15,15,0,0,1-1.3,2.26c-.52.52-1.14,1-1.74,1.48-.27.26-.52.69-.87,1.13-1.83,2-2.44,2.87-4.18,3.74a35.6,35.6,0,0,0-4.52,2.78,23.86,23.86,0,0,1-4.87,2c-1.54.51-2.17-.26-3.56.35-.26.09-.61-.17-.87-.26-.44-.18-.87-.35-1.22,0a.6.6,0,0,1-.44.26c-1.65-.61-2.78-.87-4.34-1.48-1.22-.51-3.22-3.3-3.74-4.63a22.91,22.91,0,0,1-2.44-7.82c-.08-2.27.18-3.48-.6-5.74-.35-.87,0-1.92-.44-2.87a2.81,2.81,0,0,1-.18-2.35,10.63,10.63,0,0,0,.27-2.87c.17-4,0-8.08.69-12,.35-2,.09-3.91.52-5.91a42.32,42.32,0,0,1,6.34-15.31,1.24,1.24,0,0,1,.35-.25c.09.08.26.08.35.17.61.61,1,.52,1.39-.17a10.46,10.46,0,0,1,3-3.14c.26-.17.44-.51.87-.34,1.83.61,3.65-.09,5.39-.35A16.14,16.14,0,0,1,1105.6,459Zm-27.13,22.35a14.31,14.31,0,0,0-.17,3.3c-.35.7,1.3,2.35,1,.7-.26-1.31,1.31-9.65.18-9.65C1079.34,475.67,1078.47,481.14,1078.47,481.32Z" style="fill:#ffe00a;stroke:#000;stroke-miterlimit:10;stroke-width:2px"/><path d="M1148.72,458.78a2.17,2.17,0,0,1-.43,1.39c-1,1.65-2.26,3.39-3.48,5s-2.26,3.39-3.3,5a11.6,11.6,0,0,1-.87,1.39,7.76,7.76,0,0,0-1.31,2.09c-.08.69-.6,1.21-.78,2-.17,1.3-1.3,2.09-2.17,2.87-1.31,1.3-1.39,2.52-.7,4.26,1,2.52,2.09,5,3.13,7.65a11,11,0,0,1,.78,2.44c.09.95.79,1.54,1.13,2.34A85.16,85.16,0,0,0,1146.2,507a36.74,36.74,0,0,1,3.13,6.79,2.15,2.15,0,0,1,.26,1,7.46,7.46,0,0,0,.87,3c.26.43.7.87.44,1.57-1.22-.35-2.26-.35-2.87,1.12-.09.27-.35-.08-.52,0a17.51,17.51,0,0,1-2.25.35c-1.39.44-2.52-.43-3.48-1.3a9.93,9.93,0,0,0-2.44-1.83c-.35.26.09.79-.35,1.13a3.13,3.13,0,0,1-1.82-2.08c-1-3-2-6.18-2.87-9.31s-2-6.17-3-9.21a91.32,91.32,0,0,1-2.69-9.74c0-.35-.26-.61-.44-1-.78.51-.69,1.13-.69,1.83.26,2.78.51,5.65.69,8.52.18,4.63.7,9.13.52,13.65a3.74,3.74,0,0,1-.7,2.7c-.26.34-.17.78-.35,1.21-.17.69-.09,1.54-1.3,1.54-.79,0-.44,1.13-.87,1.74-1-.61-1.83.18-2.7.44-1.82.51-3.56-.26-3.91-2.09s-.43-3.56-.52-5.3c-.26-4.18-.61-8.24-1-12.35-.26-3.56-.44-7.13-.52-10.78,0-4.12-.25-8.17-.25-12.35a57.69,57.69,0,0,1,.25-10.26,17.58,17.58,0,0,0-.09-2.05c-.09-.7-.35-1.65-.09-2.09.78-.87,1.47-1.65,1-3-.08-.08.26-.35.51-.26a2.67,2.67,0,0,0,2-.43,4.91,4.91,0,0,1,3.83-.17,2,2,0,0,1,1.73,1.82,36.57,36.57,0,0,1,.62,6.18,16.23,16.23,0,0,0,.17,3,32.45,32.45,0,0,1,.17,5.83c.09,2.86.26,5.73.44,8.78a9.91,9.91,0,0,0,2.17-2.61c1.54-2.09,3-4.35,4.52-6.52,2.7-4,5.57-7.92,8.61-11.66a26.72,26.72,0,0,0,2.87-3.47c.43-.61,1.22-.7,1.74-1.39C1147.58,457.4,1148.64,458,1148.72,458.78Z" style="fill:#ffe00a;stroke:#000;stroke-miterlimit:10;stroke-width:2px"/><path d="M1189.06,456.36c.44.7-.6.7-.78,1.39a11.87,11.87,0,0,1,6.09.27c3,1.3,5.56,3,6.78,6.34a14.11,14.11,0,0,0,1.48,2.52,21,21,0,0,1,3,9.83c.09,3,.26,6.08.18,9.13-.09,3.21-.09,6.52-.35,9.82a27.29,27.29,0,0,1-1.31,6.44c-.78,2.78-2,5.39-2.6,8.26a13.74,13.74,0,0,1-3,6.52,8,8,0,0,1-1.83,1.3,6.11,6.11,0,0,1-4.17,1.83,2.15,2.15,0,0,0-1.65.51c-.69.7-1.3.44-1.91.09s-1-.69-.79-1.54c.09-.43-.25-.78-.6-1.31a1.92,1.92,0,0,1-1.83.79,12.16,12.16,0,0,0-1.91.09,4.09,4.09,0,0,1-4-1.57,7.65,7.65,0,0,1-1.22-1.55c-.69-1-1.13-2.34-2.87-2.43.61-.61.87-1,.26-1.48-2.52-2-3-4.87-3.3-7.91-.35-4.18-.61-8.44-.87-12.61a25.94,25.94,0,0,1,0-3.74l.43-9a40.69,40.69,0,0,1,3-12.86,15.63,15.63,0,0,1,4.35-6,26.38,26.38,0,0,1,3.13-1.83c.87-.61,1.65-1.39,2.78-1,.26.09.61-.17,1-.34a8.44,8.44,0,0,1,.86-.35C1188,455.75,1188.74,455.75,1189.06,456.36Zm-3.3,5.74a10.08,10.08,0,0,0-2.61,4,14.4,14.4,0,0,0-1,6.09,12.54,12.54,0,0,1,.37,3.05c-.18,2.88-.09,5.74-.27,8.61a93.8,93.8,0,0,0,.09,9.92c.18,3.3.43,6.6.7,9.82.17,1.74.17,3.48,1.3,5,.61.87,1.48,2.43,2.35,3.47-1.65-.08-2.18-2-3.3-2.43a18.4,18.4,0,0,1,.86,1.92,5.6,5.6,0,0,0,.79,1.21c.26.35.51,1,1,.87,1-.09,1.47.61,1.9,1.31.27.43.62,1,1.22.87a3.91,3.91,0,0,0,3.31-3c.17-2.26.78-4.52,1.13-6.69a85.55,85.55,0,0,0,1.3-9.22c.18-3.48.35-6.95.7-10.43.34-4.61,1.21-9.3.51-14a34.15,34.15,0,0,0-2.08-8.78,3.45,3.45,0,0,0-2.61-2.26,9.08,9.08,0,0,0-2.7-.26A4.17,4.17,0,0,0,1185.76,462.1Z" style="fill:#ffe00a;stroke:#000;stroke-miterlimit:10;stroke-width:2px"/><path d="M1227.15,458.78c2.52.18,5.15.18,7.3,1.65a14.55,14.55,0,0,0,4,2.09,4.36,4.36,0,0,1,2.35,2.61c1,2.61,2.09,5.22,1.83,8.17-.09,1,.43,1.74.43,2.7.09,3.74-1.65,6.52-4.26,8.95a35.22,35.22,0,0,1-4.17,2.79,3.7,3.7,0,0,1-1.48.87c.09-.79,1-1,1-1.74a5.74,5.74,0,0,0-2.61,1.74c-.35.34.09.87.43,1.12,1.22,1,2.35,2.27,3.48,3.4a16.24,16.24,0,0,1,3.74,6.17c1.39,3.65,2.87,7.3,4.52,10.81a7.47,7.47,0,0,1,.61,1.91,21.66,21.66,0,0,0,1.47,3.91,2.65,2.65,0,0,1,.18,2c-.09.78-.26,1.22-1.13,1.31-.09,0-.26.26-.35.43-.35.51-.78.61-1.22.17-.87-.78-1.65-1.21-2.69-.43a1,1,0,0,1-1,0c-1.39-.87-3-1.57-3.82-3.13a17.74,17.74,0,0,0-1.22-2.17c-2.78-5.74-5.22-11.57-7.56-17.49a17.23,17.23,0,0,0-1.22-2.52c-1.14.6-1.92,1.38-1.66,2.77v.7c-.69,3.22,0,6.43,0,9.74a54.61,54.61,0,0,1-.08,9.22c-.18.78.17,1.82-1.3,1.65-.27-.09-.44.26-.44.51a7.45,7.45,0,0,0-.35,1.31,12.34,12.34,0,0,1-3.3-2.52,2.6,2.6,0,0,1-3.48.51,4,4,0,0,1-2.17-3.56c-.09-1.39.34-2.7.26-4.09-.18-3.91-.18-7.91-.35-11.83a21.41,21.41,0,0,0-.26-2.26,53.86,53.86,0,0,1-.7-13.48c.26-4.63.26-9.13.43-13.73a54.15,54.15,0,0,0,.18-6.52,2.27,2.27,0,0,0-.18-1.31c-.95,0-1.82.61-2.77.51-.27-.43.51-.69.08-1-.7-.7-.26-1,.44-1.31a21.6,21.6,0,0,1,9.73-1.12C1222.28,458.62,1224.71,458.62,1227.15,458.78Zm-3.83,29a3.69,3.69,0,0,0,.78-.43c2.88-2.87,5.83-5.56,8.18-8.87a18.51,18.51,0,0,0,2.52-7.48,2.34,2.34,0,0,0-.26-1.13,3.72,3.72,0,0,1-.43-2.17,1.15,1.15,0,0,0-.79-1.31,10.49,10.49,0,0,1-1.22-.78c-1.54-1.22-3-2.61-5.21-3.22a13.92,13.92,0,0,0-3.83-.26,249.34,249.34,0,0,1,.26,25.67Z" style="fill:#ffe00a;stroke:#000;stroke-miterlimit:10;stroke-width:2px"/><path d="M1301.06,457.93a.84.84,0,0,1-.26,1.16l-.09.05c-.7.52-1,1.4-1.74,1.92-.52.35.08.43.08.78a4.11,4.11,0,0,1-2.26.44c-1.48-.09-3-.18-4.52-.18a14.81,14.81,0,0,0-3.39.18,1.7,1.7,0,0,0-1.74,1.3,6.6,6.6,0,0,0-2.26-.52c.51,1.13.17,2.52,1.65,3.22.35.17.35.78.35,1.22a31.81,31.81,0,0,0,.43,5.66q.29,3.9.18,7.82c.09,3.92-.18,7.72,0,11.65.09,1.55.26,3.05.44,4.53a56.13,56.13,0,0,1,.25,7.56c0,1-.17,2-.08,3,.08,2.25-.35,4.52-.35,6.86-.09,1.55-1,2.87-1.31,4.44,0,.17,0,.26-.08.35a24,24,0,0,0-2.44.69c-.26.18-.6,0-1-.17-.52-.35-1.22-.7-1.83-1a1.53,1.53,0,0,0-1.48.09c-1.22.69-3-.61-2.87-2.09.09-2.17-.17-4.43-.25-6.61a21.46,21.46,0,0,1,.43-5.82,11.8,11.8,0,0,0-.09-5.22,8,8,0,0,1-.26-2.87,35,35,0,0,0-.17-4.26c0-3.13-.09-6.26-.09-9.39a49.17,49.17,0,0,1,.43-10.09,21.24,21.24,0,0,0,.09-4.08,10.15,10.15,0,0,1,.35-3.22c.26-.52,0-1.13-.09-1.74a1.21,1.21,0,0,0-.94-.82,25,25,0,0,0-5,0,50.58,50.58,0,0,1-5.22.18,1.7,1.7,0,0,1-1.48-.51,1.39,1.39,0,0,1,.78-.52c.52-.17.79-.34.61-1-.08-.51.27-.78.87-1a22.87,22.87,0,0,1,4.87-.44c3.13-.17,6.09-.87,9.05-1.3,3.74-.44,7.38-1.31,11.21-1a47.13,47.13,0,0,0,7.13-.09h1C1300.53,457.06,1300.79,457.4,1301.06,457.93Zm-22.44,5.21c-.35.52-.35,2.44.26,2.53l.52.08c-.26-.69.08-2.17-.52-2.69C1278.88,463,1278.71,463.06,1278.62,463.14Z" style="fill:#ffe00a;stroke:#000;stroke-miterlimit:10;stroke-width:2px"/><path d="M1319.48,458.78c2.52.18,5.15.18,7.31,1.65a14.41,14.41,0,0,0,4,2.09,4.39,4.39,0,0,1,2.35,2.61c1,2.61,2.06,5.22,1.82,8.17-.09,1,.44,1.74.44,2.7.08,3.74-1.66,6.52-4.26,8.95a34.54,34.54,0,0,1-4.18,2.79,3.63,3.63,0,0,1-1.48.87c.09-.79,1-1,1-1.74a5.79,5.79,0,0,0-2.61,1.74c-.34.34.09.87.44,1.12,1.21,1,2.34,2.27,3.48,3.4a16.22,16.22,0,0,1,3.73,6.17c1.4,3.65,2.87,7.3,4.52,10.81a6.76,6.76,0,0,1,.61,1.91,21.69,21.69,0,0,0,1.48,3.91,2.74,2.74,0,0,1,.18,2c-.09.78-.27,1.22-1.13,1.31-.09,0-.27.26-.35.43-.35.51-.79.61-1.22.17-.87-.78-1.65-1.21-2.69-.43a1,1,0,0,1-1,0c-1.4-.87-3.05-1.57-3.83-3.13a17.68,17.68,0,0,0-1.21-2.17c-2.79-5.74-5.22-11.57-7.57-17.49a15.41,15.41,0,0,0-1.22-2.52c-1.13.6-1.91,1.38-1.65,2.77v.7c-.7,3.22,0,6.43,0,9.74a54.61,54.61,0,0,1-.08,9.22c-.18.78.17,1.82-1.31,1.65-.26-.09-.43.26-.43.51a7.69,7.69,0,0,0-.35,1.31,12.14,12.14,0,0,1-3.3-2.52,2.6,2.6,0,0,1-3.48.52,4,4,0,0,1-2.18-3.57c-.08-1.39.35-2.69.27-4.08-.18-3.92-.18-7.91-.35-11.84a21.23,21.23,0,0,0-.26-2.25,53.91,53.91,0,0,1-.7-13.48c.26-4.63.26-9.13.44-13.74a52.13,52.13,0,0,0,.17-6.52,2.31,2.31,0,0,0-.17-1.3c-1,0-1.83.6-2.79.51-.26-.43.52-.69.09-1-.69-.7-.26-1,.44-1.31a21.73,21.73,0,0,1,9.73-1.13C1314.62,458.62,1317.05,458.62,1319.48,458.78Zm-3.82,29a4,4,0,0,0,.78-.43c2.87-2.87,5.83-5.56,8.17-8.87a17.92,17.92,0,0,0,2.52-7.48,2.46,2.46,0,0,0-.25-1.13,3.72,3.72,0,0,1-.44-2.17,1.15,1.15,0,0,0-.78-1.31,9,9,0,0,1-1.22-.78c-1.55-1.22-3-2.61-5.22-3.22a13.82,13.82,0,0,0-3.82-.26,252.2,252.2,0,0,1,.26,25.67Z" style="fill:#ffe00a;stroke:#000;stroke-miterlimit:10;stroke-width:2px"/><path d="M1354.35,459.23a.72.72,0,0,0,.61,0c3.65-.61,7.39-.52,11-1.13,1-.08,1.92-.35,2.87-.35a5.17,5.17,0,0,1,4.52,3.05,23.92,23.92,0,0,1-6,.95c-2-.08-3.91-.17-5.91-.08-1.83.08-3.65.61-5.48.69-.51,0-.78.35-1,.87-.6,2.52-.08,5,.27,7.48.08.87,0,1.74,0,2.69a79.2,79.2,0,0,0,0,11.32c2.87-.43,5.66.35,8.43-.09,1.39-.25,2.18,1,3.31,1.74a3.52,3.52,0,0,1-1.92,1,9.19,9.19,0,0,0-2.52.61,21.09,21.09,0,0,1-6.26.87c-1.13.09-1.13.09-1,1.22.09,2.09.09,4.17,0,6.35a61.57,61.57,0,0,0-.26,6.95,8.05,8.05,0,0,1-.26,2.44,17.42,17.42,0,0,0-.43,6.43c.17.87.51,1.13,1.3,1a7,7,0,0,1,1.91-.09.59.59,0,0,1,.42.62c-1,.87-2.69-.09-3.74,1.22A2,2,0,0,0,1356,515c3-.78,6.09-1.22,9.13-2.09,1.55-.43,3.22-.17,4.78-.51a1.58,1.58,0,0,1,1.22.34c.52.52,1,1,1.55,1.4-.52.69-1.48.34-2.06.78-.18.51.34.78.51,1.21.44.62.26,1.14-.51,1.14a11.8,11.8,0,0,0-3.92.87,16.3,16.3,0,0,1-2.87.43,40.06,40.06,0,0,0-7.91.52c-.7.17-1.3.17-1.48,1.22-.09.69-.6.78-1.22.25s-1.3-.25-2-.17A56.29,56.29,0,0,1,1341,521c-.51,0-1-.43-1.47-.61a.83.83,0,0,1-.52-.87c0-.51.26-.69.7-.78a25,25,0,0,0,4.35-1.39c0-2-.09-4,0-6.09.51-6.43.17-12.52.69-19,.44-6.26.61-12.61.78-18.87.09-3.13-.17-6.26-.17-9.3,0-.78-.35-1.13-1-1.13-1.13,0-1-.61-2.09-.79a1.42,1.42,0,0,1-1.24-.84,25.29,25.29,0,0,1,4.18-1,8.12,8.12,0,0,0,.17-1.39c0-.87.09-1.54,1.22-1.39.09,0,.26,0,.26-.09,1.55-1.48,3-.61,4.63-.09C1352.61,457.93,1353.66,458.19,1354.35,459.23Zm-9.21,58c1.39-.18,1.39-.18,1.21-1.14-.08-.6.09-2.08-.43-2.69C1345,514.27,1345.31,516.18,1345.14,517.23Z" style="fill:#ffe00a;stroke:#000;stroke-miterlimit:10;stroke-width:2px"/><path d="M1391,457c.52-.17,1.31,2.17,1.48,3,0-2.18.35-3.74,1.54-.44a41.42,41.42,0,0,1,1.83,4.79c.44,1.91,1.22,3.73,1.48,5.66.18,1.47.35,1,1,2.34,1.22,2.18,1.13,4.7,1.74,7a104.24,104.24,0,0,0,3.91,11.4,51.68,51.68,0,0,1,2.18,8.86c.17.79,0,1.66.17,2.53a75.1,75.1,0,0,0,3.22,9.56,13.22,13.22,0,0,1,1.3,6.17c-.09,1-.18,2.18-1.65,2.35a.78.78,0,0,1-.55.94.62.62,0,0,1-.23,0c-.44-.44-1-.51-1.48-1.39-.18-.35-.78-.18-.87-.61-.35-1-1.54-1.22-1.74-.44-.35,1.57-2,.62-3,.87a.86.86,0,0,1-1.18-.32.81.81,0,0,1-.12-.37c-1-2.87-1.91-5.66-2.61-8.43-.61-2.35-1.82-4.53-2.26-7a1.35,1.35,0,0,0-1.54-1.13c-3.39.17-6-.09-9.48.35-.78.09-2.26-.26-2.78.34s-.43,1.48-.7,2.27a42.46,42.46,0,0,0-1,4.78l-.69,6a17.67,17.67,0,0,1-.35,2.18c-.18,1-.61,1.3-1.91,1-.35-.09-1-2-1.31-.61-.17.78-.87-1.39-.78-2.26a70.9,70.9,0,0,1,2.09-11.39l.26-1.31c.17-1.21.17-1.13-1-1.48-.61-.17-1.3-.25-1.65-.95.35-.79,1.13-.61,1.74-.7,2-.51,1.74-.09,2-2.08.43-3,1.54-6.69,1.91-9.65a96.07,96.07,0,0,1,2.27-12,58.69,58.69,0,0,0,1.48-7.65c.44-2.61.87-5.22,1.22-7.72a3.65,3.65,0,0,0-.09-1.91c-.17-.61-.26-1.48.61-1.83s1.74-1.39,2.78-.78A4.38,4.38,0,0,0,1391,457Zm-4.34,14.61a16.41,16.41,0,0,1-.78,5.39c-.61,2.17-.35,4.52-1.14,6.69a34.48,34.48,0,0,0-1.39,6.68c-.35,3-.86,5.92-1.39,8.87,2.87-.17,6-.26,8.78-.43a5.2,5.2,0,0,0,1.55-.35c1.3-.26,1.39-.43,1-1.65-.78-2-1-4.18-1.65-6.26-.51-1.74-.61-3.65-1.21-5.48a30.66,30.66,0,0,1-1.46-6.76,31,31,0,0,0-1.74-7.67c-.44.36-.61.71-.52,1Zm13.65,13.82c.17-.61-.61-3.73-1-4-.71.7.86,3.48,1,4Z" style="fill:#ffe00a;stroke:#000;stroke-miterlimit:10;stroke-width:2px"/><path d="M1442,457.93a.83.83,0,0,1-.24,1.15l-.1.06c-.7.52-1,1.4-1.74,1.92-.52.35.08.43.08.78a4.11,4.11,0,0,1-2.26.44c-1.48-.09-3-.18-4.52-.18a14.81,14.81,0,0,0-3.39.18,1.69,1.69,0,0,0-1.74,1.3,6.6,6.6,0,0,0-2.26-.52c.52,1.13.18,2.52,1.65,3.22.35.17.35.78.35,1.22a31.81,31.81,0,0,0,.43,5.66q.29,3.9.18,7.82c.09,3.92-.18,7.72,0,11.65.09,1.55.26,3.05.43,4.53a54.54,54.54,0,0,1,.26,7.56c0,1-.17,2-.08,3,.08,2.25-.35,4.52-.35,6.86-.09,1.55-1,2.87-1.31,4.44,0,.17,0,.26-.08.35-.78.34-1.65.26-2.44.69-.26.18-.6,0-.95-.17-.52-.35-1.22-.7-1.83-1a1.53,1.53,0,0,0-1.48.09c-1.22.69-2.95-.61-2.87-2.09.09-2.17-.17-4.43-.26-6.61a21.46,21.46,0,0,1,.44-5.82,11.65,11.65,0,0,0-.09-5.22,8,8,0,0,1-.26-2.87,35,35,0,0,0-.17-4.26c0-3.13-.09-6.26-.09-9.39a49.17,49.17,0,0,1,.43-10.09,20.46,20.46,0,0,0,.09-4.08,10.15,10.15,0,0,1,.35-3.22c.26-.52,0-1.13-.09-1.74a1.21,1.21,0,0,0-.95-.78,23.68,23.68,0,0,0-5.05,0c-1.73.26-3.47.08-5.21.17a1.69,1.69,0,0,1-1.48-.51,1.39,1.39,0,0,1,.78-.52c.51-.17.78-.34.61-1-.09-.51.26-.78.87-.95a22.75,22.75,0,0,1,4.87-.44c3.13-.17,6.08-.87,9-1.3,3.74-.44,7.39-1.3,11.22-1a48.49,48.49,0,0,0,7.13-.08h.95C1441.47,457.06,1441.73,457.4,1442,457.93Zm-22.43,5.21c-.35.52-.35,2.44.26,2.53l.52.08c-.26-.69.08-2.17-.52-2.69C1419.82,463,1419.65,463.06,1419.56,463.14Z" style="fill:#ffe00a;stroke:#000;stroke-miterlimit:10;stroke-width:2px"/><path d="M1716.08,539.81c-28.49-4.9-47.39-14.83-59.52-23.19-9.1-6.27-13.52-11.06-25.88-19.51a232,232,0,0,0-44.25-23.67c29.33,6.4,49.21,16.94,62.25,25.73,8.18,5.51,13.6,10.29,24.7,16.46a159.33,159.33,0,0,0,46.81,17" style="fill:#270000;stroke:#000;stroke-miterlimit:10;stroke-width:0.75px"/><path d="M1680.21,473.44c-17.42-12.47-45.27-42-71-57.31s-68.89-70.83-48.7-49.95,107.2,90.15,79.33,56.5,32.06,27.19,41.76,36" style="fill:#270000;stroke:#000;stroke-miterlimit:10;stroke-width:0.75px"/><path d="M1669.71,629.63c-17.32-6.88-45-23.18-70.57-31.64s-68.5-39.1-48.43-27.58,106.59,49.77,78.87,31.2,31.9,15,41.51,19.89" style="fill:#270000;stroke:#000;stroke-miterlimit:10;stroke-width:0.75px"/><path d="M1693,558.33c-22.64-15.09-57.36-47.61-91.15-67.15s-86.21-78.5-61-55.39,137.14,104.56,103,68.43,41,31.47,53.27,41.52" style="fill:#270000;stroke:#000;stroke-miterlimit:10;stroke-width:0.75px"/><path d="M1684.87,554.75c-28.49-4.91-47.39-14.84-59.52-23.2-9.1-6.27-13.52-11-25.88-19.5a231.49,231.49,0,0,0-44.25-23.67c29.33,6.39,49.21,16.93,62.25,25.72,8.18,5.51,13.61,10.29,24.7,16.47a159.55,159.55,0,0,0,46.82,17" style="fill:#270000;stroke:#000;stroke-miterlimit:10;stroke-width:0.75px"/><path d="M1681.37,645.29c-20.7-3.51-34.42-10.63-43.22-16.63-6.61-4.5-9.82-7.93-18.8-14a168.39,168.39,0,0,0-32.13-17c21.28,4.58,35.74,12.14,45.21,18.44,5.94,4,9.88,7.4,17.93,11.81a116.76,116.76,0,0,0,34,12.18" style="fill:#270000;stroke:#000;stroke-miterlimit:10;stroke-width:0.75px"/><path d="M1704.35,528c-30.82-9.86-50.33-25.39-62.59-38-9.19-9.49-13.41-16.46-25.91-29.25a245.28,245.28,0,0,0-45.63-36.94c31.51,12,52.06,28.43,65.26,41.76,8.27,8.37,13.6,15.44,25,25a158,158,0,0,0,49.39,28.22" style="fill:#270000;stroke:#000;stroke-miterlimit:10;stroke-width:0.75px"/><path d="M1673.16,537.69c-22.71-28.49-33.19-52.16-38.56-68.79-4-12.47-4.78-19.78-10.29-36.68a327.06,327.06,0,0,0-24.25-55.75c22.43,30.26,33.44,55.27,39.32,73,3.69,11.12,5.37,19.32,11.29,33.45a241.42,241.42,0,0,0,31.2,53.2" style="fill:#270000;stroke:#000;stroke-miterlimit:10;stroke-width:0.75px"/><path d="M1685.07,516.08c-14.85-12.61-36.92-38.84-59.35-55.49s-54.94-63.48-38.87-44.79,89,86.07,67.66,57.22,26.58,25.89,34.51,34.12" style="fill:#270000;stroke:#000;stroke-miterlimit:10;stroke-width:0.75px"/><path d="M1690.56,454.76c-24.18-8.2-40.6-25.85-51.27-40.81-8-11.23-12-19.87-22.86-35-15.43-21.45-29.18-34.44-38.49-42.1,24.94,10.91,42.26,29.65,53.71,45.37,7.21,9.87,12,18.49,21.68,29.46,15.84,18,30.27,25.89,40.26,29.78" style="fill:#270000;stroke:#000;stroke-miterlimit:10;stroke-width:0.75px"/><path d="M1694.32,607.75c-27.82-7.84-45.59-19.68-56.78-29.25-8.4-7.21-12.3-12.41-23.72-22.1a231.81,231.81,0,0,0-41.54-28.14c28.48,9.41,47.18,22,59.24,32.06,7.56,6.33,12.45,11.66,22.85,18.94a159.51,159.51,0,0,0,44.8,21.75" style="fill:#270000;stroke:#000;stroke-miterlimit:10;stroke-width:0.75px"/><path d="M1681,666.54c-15.57-10.56-24.12-21.43-29.09-29.55-3.73-6.09-5.08-10.06-10.15-18.29A152.51,152.51,0,0,0,1621.82,593c15.65,11.65,24.64,23.16,30,31.76,3.38,5.4,5.32,9.65,10.25,16.21a105.55,105.55,0,0,0,23.22,22.52" style="fill:#270000;stroke:#000;stroke-miterlimit:10;stroke-width:0.75px"/><path d="M1681.61,617.32c-14.27-13.15-44.25-32-63-52.07s-72.51-47-51.16-33.29,97.81,77.83,64.76,59.94,29.43,23.22,38.78,30.1" style="fill:#270000;stroke:#000;stroke-miterlimit:10;stroke-width:0.75px"/><path d="M1699.53,682.31C1678.43,674,1645.3,657,1614,645.84s-82-41.24-58-29.11,128.94,56.45,96,37.86,38.54,17,50.15,22.33" style="fill:#270000;stroke:#000;stroke-miterlimit:10;stroke-width:0.75px"/><path d="M1680.68,687c-20.14-19.73-49.26-59-79.93-85.64S1528.07,506,1549.3,534s119.59,132.22,91.78,89.6,35.68,39.73,46.27,52.24" style="fill:#270000;stroke:#000;stroke-miterlimit:10;stroke-width:0.75px"/><path d="M1682.74,602.18c-28-19.18-71.4-62.26-113-86.54s-107.67-103.63-76.14-73.1,170.23,135.31,127.33,86.95,50.87,40.76,66.17,53.88" style="fill:#270000;stroke:#000;stroke-miterlimit:10;stroke-width:0.75px"/><g style="opacity:0.550000011920929"><path d="M1496.4,819.28c-41.31,56.49-17.2,36.49-6.05,29.79,2.87-1.72,10.11-8.15,20.61-25.43,8.53-14,10.08-28.81,6.53-30.92S1500.25,814,1496.4,819.28Z" style="fill:#0a3500"/><path d="M1513.26,811.57c-2.49,10.16-21.27,32.73-23.11,32" style="fill:#0a3500"/><path d="M1510,809.14c-6.38,3.45-22.89,31.73-23.67,31" style="fill:#0a3500"/></g><g style="opacity:0.7799999713897705"><path d="M1093.69,567.69c3.3-1.47,6.89,1.31,8.47,6.32.56-3.39,2.15-6.17,4.41-7.17,3.11-1.39,6.48,1,8.19,5.51.4-3.8,2.06-7,4.53-8.1,3.6-1.62,7.59,1.89,8.88,7.85.06.27.1.56.15.83,1.81,7.06-1.6-9.09-1.87-10.8-.15-.47,1.88,9.72,1.77,9.21-1.29-6,.6-12.09,4.22-13.71,2.85-1.27,5.92.64,7.72,4.41-1-5.69.91-11.36,4.37-12.91,2.49-1.11,5.15.22,7,3.09-1-5.75.86-11.51,4.35-13.07,2.67-1.2,5.55.42,7.38,3.75a13.13,13.13,0,0,0,.77-7.3c-1.58-7.31-11.12-10-23.92-8,1.62,8-5.92,18.48-16.93,23.4-10.8,4.83-20.93,2.58-23.05-5-10.46,8.46-16.6,17.93-15.09,24.93a9.11,9.11,0,0,0,4.06,5.77C1089.31,572.48,1091,568.88,1093.69,567.69Z" style="stroke:#000;stroke-miterlimit:10"/><ellipse cx="1123.03" cy="549.37" rx="5.96" ry="3.68" transform="translate(-120.79 675.56) rotate(-31.86)" style="stroke:#000;stroke-miterlimit:9.999999768400672"/><path d="M1127.48,545.42a3.82,3.82,0,0,0,0-2.54,6.83,6.83,0,0,0-1.81,2.48c-.51,1.39-.51,2.52,0,2.54S1127,546.8,1127.48,545.42Z" style="stroke:#000;stroke-miterlimit:10"/><path d="M1118.2,549.28a3,3,0,0,1-1-2.06,4,4,0,0,1,2.46.58c1,.73,1.42,1.66,1,2.05S1119.17,550,1118.2,549.28Z" style="stroke:#000;stroke-miterlimit:10"/></g><g style="opacity:0.6100000143051147"><path d="M1170,568.37c3.79.45,6.57,4.16,6.62,8.57a7.28,7.28,0,0,1,6.69-3.21c3.6.43,6.26,3.76,6.59,7.85a7.4,7.4,0,0,1,7.1-3.84c4.16.51,7.1,4.92,6.56,9.89a3.85,3.85,0,0,1-.1.68c-.36,6,1.2-7.41,1.44-8.79,0-.41-1.1,8-1.05,7.58.54-5,4.35-8.58,8.51-8.09,3.28.39,5.8,3.22,6.46,6.82.79-4.63,4.45-7.91,8.42-7.43a7.67,7.67,0,0,1,6.13,5.52c.74-4.69,4.43-8,8.44-7.57,3.09.37,5.49,2.89,6.32,6.17a7.61,7.61,0,0,0,3.05-5c.65-6.1-8.17-12.53-21.77-17-.85,6.65-11.72,10.8-24.38,9.3-12.43-1.48-22-7.86-21.79-14.4-13.22,1.33-22.37,5.42-23,11.25-.22,2.06.61,4.11,2.33,6.12A7.49,7.49,0,0,1,1170,568.37Z" style="stroke:#000;stroke-miterlimit:10"/><ellipse cx="1205.39" cy="568.58" rx="3.13" ry="6.21" transform="translate(494.34 1695.82) rotate(-83.01)" style="stroke:#000;stroke-miterlimit:10.000000083353227"/><path d="M1211.09,567.72a2.23,2.23,0,0,0,.81-1.85,5.87,5.87,0,0,0-2.58,1c-.94.78-1.3,1.61-.8,1.85S1210.15,568.51,1211.09,567.72Z" style="stroke:#000;stroke-miterlimit:10"/><path d="M1200.51,566.25a2.25,2.25,0,0,1-.39-2,6,6,0,0,1,2.31,1.55c.75,1,.93,1.88.39,2S1201.25,567.23,1200.51,566.25Z" style="stroke:#000;stroke-miterlimit:10"/></g><ellipse cx="923.53" cy="790.72" rx="3.34" ry="1.28" style="fill:#00031f"/><g style="opacity:0.8100000023841858"><g style="opacity:0.1899999976158142"><path d="M1518.08,756.41l10.14-12.95c-1.9,7.35,2.12,17.84,8.44,22l-15.25-.39" style="fill:#4a2e00"/><path d="M1476.12,772.38l-16.25-2.75c6.8,4.89,10.91,15.62,9.11,23.79l10.56-12.16" style="fill:#4a2e00"/><ellipse cx="1498.73" cy="768.83" rx="25.12" ry="10.48" transform="translate(-175.82 586.7) rotate(-20.95)" style="fill:#4a2e00"/><path d="M1475.3,777.85c11.84-1.35,26-16.86,46.92-18" style="fill:#4a2e00"/><path d="M1485.9,782c10.14-4,8.39-20.42,26.75-26.44" style="fill:#4a2e00"/><line x1="1475.14" y1="774.76" x2="1464.55" y2="774.49" style="fill:none"/><line x1="1468.88" y1="784.55" x2="1476.32" y2="779.52" style="fill:none"/><line x1="1528.2" y1="751.42" x2="1520.01" y2="757.66" style="fill:none"/><line x1="1522.16" y1="762.02" x2="1532.13" y2="760.71" style="fill:none"/></g><path d="M1517.61,753.51l10.17-13c-1.9,7.35,2.11,17.84,8.44,22.05l-15.25-.4" style="fill:#f7c6ff;stroke:#000;stroke-miterlimit:10;stroke-width:2px"/><path d="M1475.65,769.47l-16.26-2.74c6.79,4.88,10.9,15.62,9.1,23.79l10.56-12.16" style="fill:#f7c6ff;stroke:#000;stroke-miterlimit:10;stroke-width:2px"/><ellipse cx="1498.26" cy="765.93" rx="25.12" ry="10.48" transform="translate(-174.82 586.34) rotate(-20.95)" style="fill:#ffa9fa;stroke:#000;stroke-miterlimit:9.999999867350569;stroke-width:1.999999973470114px"/><path d="M1474.82,775c11.84-1.35,26-16.86,46.92-18" style="fill:none;stroke:#000;stroke-miterlimit:10"/><path d="M1485.43,779.06c10.14-4,8.39-20.43,26.76-26.44" style="fill:none;stroke:#000;stroke-miterlimit:10"/><line x1="1474.67" y1="771.86" x2="1464.08" y2="771.58" style="fill:none;stroke:#000;stroke-miterlimit:10"/><line x1="1468.41" y1="781.65" x2="1475.85" y2="776.62" style="fill:none;stroke:#000;stroke-miterlimit:10"/><line x1="1527.73" y1="748.52" x2="1519.54" y2="754.76" style="fill:none;stroke:#000;stroke-miterlimit:10"/><line x1="1521.69" y1="759.12" x2="1531.67" y2="757.81" style="fill:none;stroke:#000;stroke-miterlimit:10"/></g><g style="opacity:0.8100000023841858"><g style="opacity:0.5"><polygon points="1447.76 880.3 1450.31 881.72 1438.65 841.05 1436.76 841.71 1447.76 880.3" style="fill:#3f000c"/><ellipse cx="1434.84" cy="825.7" rx="17.53" ry="16.4" transform="translate(-142.42 1328.49) rotate(-47.6)" style="fill:#3f000c"/><path d="M1418.63,831c1.11-1.34,26.68-17.5,26.47-19.08-.23-1.74,5.22,4.54,5.53,6s-29,19.73-28.56,19.81C1422.27,837.81,1417.4,832.52,1418.63,831Z" style="fill:#3f000c"/></g><polygon points="1445.94 879.41 1448.49 880.82 1436.83 840.16 1434.94 840.82 1445.94 879.41" style="fill:#ffbe74;stroke:#000;stroke-miterlimit:10"/><ellipse cx="1433.02" cy="824.8" rx="17.53" ry="16.4" transform="translate(-142.35 1326.86) rotate(-47.6)" style="fill:#c90005;stroke:#000;stroke-miterlimit:9.999999745277691"/><path d="M1416.82,830.15c1.1-1.34,26.68-17.5,26.47-19.09s5.21,4.55,5.52,6-29,19.73-28.57,19.81C1420.45,836.92,1415.58,831.62,1416.82,830.15Z" style="fill:#fff;stroke:#000;stroke-miterlimit:10"/></g><g style="opacity:0.8100000023841858"><path d="M1496.19,816.07c-41.31,56.49-17.2,36.49-6,29.79,2.87-1.73,10.1-8.14,20.61-25.42,8.53-14.05,10.08-28.81,6.53-30.93S1500,810.83,1496.19,816.07Z" style="fill:#2faa00;stroke:#000;stroke-miterlimit:10"/><path d="M1513,808.36c-2.5,10.16-21.27,32.74-23.12,32" style="fill:#2faa00;stroke:#000;stroke-miterlimit:10;stroke-width:0.75px"/><path d="M1509.73,805.94c-6.38,3.44-22.89,31.73-23.67,31" style="fill:#2faa00;stroke:#000;stroke-miterlimit:10;stroke-width:0.75px"/></g><g style="opacity:0.8100000023841858"><g style="opacity:0.44999998807907104"><path d="M1561.3,765.5c-6.41,18.06-9.35,36.45-11.13,30.5-1.54-5.15-1.58-21.35,2.06-40.13,4.36-22.32,5.54-31.64,14.64-26.42C1574.15,733.62,1567.71,747.43,1561.3,765.5Z" style="fill:#4a2b00"/><path d="M1559.89,729.54s1.21-10.34,1.81-11.64,1.54,4.24,1.54,4.24,3.06-9.26,3.71-8.19-2,9.38-1.19,8.54,3.16-5.28,4.69-7-1.38,7.28-1,8.23,3.54-8.66,4.63-8.55-5.9,15.68-5.9,15.68A8.37,8.37,0,0,1,1559.89,729.54Z" style="fill:#4a2b00"/><path d="M1555.34,740.52c2.57,2.5,7.08,3.21,7.08,3.21" style="fill:#4a2b00"/><path d="M1565.6,753.67a9,9,0,0,1-4.46-1.81" style="fill:#4a2b00"/><path d="M1552,757.41c.44.52,1.8.78,3.92.78" style="fill:#4a2b00"/><path d="M1560.76,767.05c-1,.19-1.91.28-2.42-.58" style="fill:#4a2b00"/><line x1="1549.67" y1="774.31" x2="1552.13" y2="774.92" style="fill:none"/></g><path d="M1561.38,762c-6.41,18.06-9.35,36.45-11.13,30.5-1.54-5.15-1.58-21.34,2.06-40.13,4.36-22.32,5.54-31.64,14.64-26.43C1574.23,730.07,1567.79,743.88,1561.38,762Z" style="fill:#ff9b3f;stroke:#000;stroke-miterlimit:10"/><path d="M1560,726s1.21-10.34,1.81-11.65,1.54,4.25,1.54,4.25,3.06-9.26,3.71-8.19-2,9.38-1.19,8.54,3.16-5.28,4.69-7-1.38,7.28-1,8.23,3.54-8.66,4.63-8.56-5.93,15.69-5.93,15.69A8.34,8.34,0,0,1,1560,726Z" style="fill:#00b46a;stroke:#000;stroke-miterlimit:10;stroke-width:0.75px"/><path d="M1555.42,737c2.57,2.5,7.08,3.21,7.08,3.21" style="fill:none;stroke:#000;stroke-miterlimit:10;stroke-width:0.75px"/><path d="M1565.68,750.11a8.89,8.89,0,0,1-4.46-1.8" style="fill:none;stroke:#000;stroke-miterlimit:10;stroke-width:0.75px"/><path d="M1552,753.86c.44.52,1.8.78,3.92.77" style="fill:none;stroke:#000;stroke-miterlimit:10;stroke-width:0.75px"/><path d="M1560.84,763.5c-1,.19-1.91.28-2.42-.58" style="fill:none;stroke:#000;stroke-miterlimit:10;stroke-width:0.75px"/><line x1="1549.75" y1="770.76" x2="1552.21" y2="771.37" style="fill:none;stroke:#000;stroke-miterlimit:10;stroke-width:0.75px"/></g><g style="opacity:0.8100000023841858"><g style="opacity:0.47999998927116394"><path d="M1570.67,810.08c-.43-2.57,2.32-11.66,6.48-21.09,3.52-8,8-16.14,12.53-20.83,5.83-6.11,12.57,9.58,16.26,24.18,2.5,9.88,3.6,19.24,2.1,21C1604.3,817.72,1571.45,814.85,1570.67,810.08Z" style="fill:#3f003d"/><path d="M1608.35,803.94a69.36,69.36,0,0,1-35.66-3.08c.63-2,1.31-4,2.06-6.06.64-1.77,2-5.15,2-5.15a109.55,109.55,0,0,0,14.66,2.78,72.1,72.1,0,0,0,14.54-.23q.61,2.14,1.14,4.47C1607.64,799.22,1608,801.65,1608.35,803.94Z" style="fill:#3f003d"/></g><path d="M1569.16,808.79c-.42-2.57,2.33-11.66,6.49-21.09,3.52-8,8-16.13,12.52-20.83,5.83-6.11,12.57,9.58,16.27,24.18,2.5,9.87,3.6,19.24,2.1,21C1602.8,816.43,1570,813.55,1569.16,808.79Z" style="fill:#fff;stroke:#000;stroke-miterlimit:10"/><path d="M1606.84,802.66a69.44,69.44,0,0,1-35.65-3.12c.62-2,1.3-4,2.06-6.06.64-1.77,2-5.15,2-5.15a109.85,109.85,0,0,0,14.67,2.78,72.85,72.85,0,0,0,14.54-.22c.41,1.42.79,2.91,1.14,4.46C1606.14,797.92,1606.55,800.36,1606.84,802.66Z" style="fill:#ffab55;stroke:#000;stroke-miterlimit:10"/></g><g style="opacity:0.8100000023841858"><g style="opacity:0.5299999713897705"><path d="M1616.43,857.4,1613.9,856c-1.93,5.07-5.29,10.6-9.68,16.46l2.53,1.44A96.48,96.48,0,0,0,1616.43,857.4Z" style="fill:#003511"/><path d="M1594.15,858.86l3.11-2.73c2.2,3.56,6.39,7.81,11.22,12.28l-3.09,2.75A45.76,45.76,0,0,0,1594.15,858.86Z" style="fill:#003511"/><path d="M1602.38,858.48h7.2c-1.17,7-1.77,13.63,0,18.57h-7.2C1603.14,877.05,1602.38,858.48,1602.38,858.48Z" style="fill:#003511"/><ellipse cx="1590.05" cy="843.45" rx="8.41" ry="6.78" style="fill:#003511"/><ellipse cx="1601.46" cy="835.5" rx="7.8" ry="7.66" style="fill:#003511"/><ellipse cx="1610.47" cy="845.51" rx="7.8" ry="7.66" style="fill:#003511"/><ellipse cx="1615.87" cy="837.85" rx="7.8" ry="7.66" style="fill:#003511"/><ellipse cx="1621.9" cy="850.05" rx="7.47" ry="7.3" transform="translate(-65.19 138.11) rotate(-4.78)" style="fill:#003511"/><ellipse cx="1598.46" cy="847.88" rx="7.2" ry="7.07" style="fill:#003511"/><ellipse cx="1606.87" cy="855.54" rx="7.8" ry="7.66" style="fill:#003511"/><ellipse cx="1593.66" cy="854.94" rx="7.8" ry="7.66" style="fill:#003511"/><ellipse cx="1618.27" cy="858.48" rx="7.8" ry="7.66" style="fill:#003511"/></g><path d="M1615.36,855.3l-2.54-1.43c-1.93,5.07-5.29,10.6-9.68,16.46l2.54,1.44A96.75,96.75,0,0,0,1615.36,855.3Z" style="fill:#207f00;stroke:#000;stroke-miterlimit:10;stroke-width:0.5px"/><path d="M1593.07,856.77l3.11-2.74c2.19,3.56,6.39,7.81,11.22,12.28l-3.09,2.75A45.89,45.89,0,0,0,1593.07,856.77Z" style="fill:#207f00;stroke:#000;stroke-miterlimit:10;stroke-width:0.5px"/><path d="M1601.28,856.38h7.21c-1.17,7-1.77,13.63,0,18.57h-7.21C1602.06,875,1601.28,856.38,1601.28,856.38Z" style="fill:#207f00;stroke:#000;stroke-miterlimit:10;stroke-width:0.5px"/><ellipse cx="1588.98" cy="841.35" rx="8.41" ry="6.78" style="fill:#209b00;stroke:#000;stroke-miterlimit:10;stroke-width:0.5px"/><ellipse cx="1600.38" cy="833.4" rx="7.8" ry="7.66" style="fill:#20bb00;stroke:#000;stroke-miterlimit:10;stroke-width:0.5px"/><ellipse cx="1609.39" cy="843.41" rx="7.8" ry="7.66" style="fill:#498900;stroke:#000;stroke-miterlimit:10;stroke-width:0.5px"/><ellipse cx="1614.79" cy="835.75" rx="7.8" ry="7.66" style="fill:#207f00;stroke:#000;stroke-miterlimit:10;stroke-width:0.5px"/><ellipse cx="1620.83" cy="847.96" rx="7.47" ry="7.3" transform="translate(-65.02 138.01) rotate(-4.78)" style="fill:#207f00;stroke:#000;stroke-miterlimit:10.000000018618492;stroke-width:0.5000000009309246px"/><ellipse cx="1597.38" cy="845.78" rx="7.2" ry="7.07" style="fill:#008a00;stroke:#000;stroke-miterlimit:10;stroke-width:0.5px"/><ellipse cx="1605.78" cy="853.44" rx="7.8" ry="7.66" style="fill:#20b100;stroke:#000;stroke-miterlimit:10;stroke-width:0.5px"/><ellipse cx="1592.58" cy="852.85" rx="7.8" ry="7.66" style="fill:#207f00;stroke:#000;stroke-miterlimit:10;stroke-width:0.5px"/><ellipse cx="1617.19" cy="856.38" rx="7.8" ry="7.66" style="fill:#209100;stroke:#000;stroke-miterlimit:10;stroke-width:0.5px"/></g><g style="opacity:0.8100000023841858"><g style="opacity:0.44999998807907104"><path d="M1566,854.38c-2.53-8.31-6.75-19-15.08-19s-14.72,8.55-15.08,19c-.31,8.94,5.1,8.42,15.08,19C1562.88,886.05,1571.37,872.06,1566,854.38Z" style="fill:#4a3400"/><path d="M1538.49,853.69c.64.91-.26.11.72,1.09" style="fill:#4a3400"/><path d="M1561,868.38c.78,1.25.89,3,.87,1.5" style="fill:#4a3400"/><path d="M1556.91,858.47c.42-1.61.87,1.5.87,1.5" style="fill:#4a3400"/><path d="M1555.61,846.9c.78,1.25.45,1.85.86,1.5" style="fill:#4a3400"/><path d="M1549.53,842.49c0-1,.87,1.5.87,1.5" style="fill:#4a3400"/><path d="M1553.65,866.18c.42,1.7.87,1.5.87,1.5" style="fill:#4a3400"/><path d="M1551.27,853.51c.78,1.25.88,2.4.87,1.5" style="fill:#4a3400"/><path d="M1544.1,849.1c.43-.51.87,1.5.87,1.5" style="fill:#4a3400"/><path d="M1547.14,860.12c.78.43.23.44.87.51" style="fill:#4a3400"/></g><path d="M1563.91,854.36c-2.52-8.31-6.76-19-15.09-19s-14.72,8.55-15.08,19c-.31,8.94,5.1,8.42,15.08,19C1560.78,886,1569.27,872,1563.91,854.36Z" style="fill:#b47f00;stroke:#000;stroke-miterlimit:10;stroke-width:0.5px"/><path d="M1536.38,853.67c.66.91-.25.11.73,1.09" style="fill:#b47f00;stroke:#000;stroke-miterlimit:10;stroke-width:0.5px"/><path d="M1558.93,868.36c.78,1.25.88,2.95.87,1.5" style="fill:#b47f00;stroke:#000;stroke-miterlimit:10;stroke-width:0.5px"/><path d="M1554.81,858.45c.42-1.61.86,1.49.86,1.49" style="fill:#b47f00;stroke:#000;stroke-miterlimit:10;stroke-width:0.5px"/><path d="M1553.5,846.88c.79,1.25.45,1.85.87,1.5" style="fill:#b47f00;stroke:#000;stroke-miterlimit:10;stroke-width:0.5px"/><path d="M1547.43,842.47c0-1,.86,1.5.86,1.5" style="fill:#b47f00;stroke:#000;stroke-miterlimit:10;stroke-width:0.5px"/><path d="M1551.55,866.16c.42,1.7.87,1.5.87,1.5" style="fill:#b47f00;stroke:#000;stroke-miterlimit:10;stroke-width:0.5px"/><path d="M1549.16,853.49c.78,1.25.89,2.4.87,1.5" style="fill:#b47f00;stroke:#000;stroke-miterlimit:10;stroke-width:0.5px"/><path d="M1542,849.08c.42-.51.87,1.5.87,1.5" style="fill:#b47f00;stroke:#000;stroke-miterlimit:10;stroke-width:0.5px"/><path d="M1545,860.1c.78.43.23.44.87.51" style="fill:#b47f00;stroke:#000;stroke-miterlimit:10;stroke-width:0.5px"/></g><rect x="789.51" y="431.26" width="846.31" height="460.97" style="fill:none"/></g><path d="M428.73,306.21c-105.62,15.53-128.06,76.63-136.65,141.4-2.25,17-3.45,32.54-1.7,46.54l-.59-1.09c-35.12-4.33-61.83,18.76-70.2,19.48s-15.27-1.42-42.75-27.42,19.44,49.11,35.12,47.62c14.08-1.36,78.87-3,100.32,5.88,16.09,15.78,39.64,25.23,69.27,28,1.71,10.3,4.31,17.88,8.67,23.42q-7.59,5.14-15.5,15c-33.28,5.57-57.45,22.94-57.45,47,0,26.51,30.45,43.95,69.22,47a81.12,81.12,0,0,0,8.2.72,6.26,6.26,0,0,0,2.76.69,6.17,6.17,0,0,0,2.72-.67c2.5-.07,5-.24,7.37-.53C447.61,697,478,679.36,478,652.11c0-19.13-17.33-34.12-41.74-42.2-7.13-12.75-14.6-20.55-22.39-23.68a129.25,129.25,0,0,0,6.5-19.47c3-.23,6.06-.5,9.16-.83,27.88-3,52.14-8.46,72.58-16.47a1.86,1.86,0,0,0,.42-.07l-.1-.06a158.92,158.92,0,0,0,27.08-13.61c.13,2-23.13,12.72-27,13.67,3.15,2.08,18.11,27.52,28.21,26.51,10.85-1.08,6.13-28.44-1.19-40.2,31-19.76,48.47-48.76,51.14-88.09C584.58,389.84,583.79,283.39,428.73,306.21Z" style="fill:#0a0a0a;opacity:0.1"/><path d="M392.21,426.57l.22-14.15" style="fill:#fff;stroke:#000;stroke-miterlimit:10"/><path d="M574.2,448.13C569.39,519,516.7,556.3,423,566.45,361,573.17,315.6,558.8,294.52,525.11q-1.84-2.94-3.42-6c-10-19.58-9.14-43.31-5.47-71,8.58-64.77,31-125.86,136.64-141.4C577.33,283.92,578.12,390.37,574.2,448.13Z" style="fill:#cffff8;stroke:#000;stroke-miterlimit:10"/><path d="M283.34,493.58c-35.13-4.33-61.84,18.76-70.21,19.48s-15.27-1.42-42.75-27.42,19.44,49.11,35.12,47.62c14.75-1.42,85.1-3.18,103.06,7.21" style="fill:#cffff8;stroke:#000;stroke-miterlimit:10"/><path d="M495.54,549.86c1.35-1.89,17.84,27.65,28.71,26.57s6.12-28.55-1.23-40.28C524,538.12,494.41,551.47,495.54,549.86Z" style="fill:#cffff8;stroke:#000;stroke-miterlimit:10"/><ellipse cx="394.03" cy="416.03" rx="54.96" ry="58.08" style="fill:#fff;stroke:#000;stroke-miterlimit:10;stroke-width:4px"/><ellipse cx="504.73" cy="402.68" rx="48.09" ry="54.83" style="fill:#fff;stroke:#000;stroke-miterlimit:10;stroke-width:4px"/><polyline points="339.07 497.19 358.91 518.83 371.89 497.19 400.9 527.49 419.98 497.19 456.63 512.34 468.08 487.81 496.33 497.19 520.76 473.38 533.74 473.38 544.42 453.18" style="fill:none;stroke:#000;stroke-miterlimit:10;stroke-width:3px"/><path d="M471.52,652.63c0,29.24-34.93,47.43-79.31,47.43s-81.4-18.19-81.4-47.43c0-28.29,33.44-47.35,75.84-48.81,1.42-.05-1.42,0,0,0C431,603.82,471.52,623.39,471.52,652.63Z" style="fill:#ffe98a;stroke:#000;stroke-miterlimit:10"/><ellipse cx="391.34" cy="652.24" rx="63.35" ry="48.14" style="fill:#ffe98a;stroke:#000;stroke-miterlimit:10"/><ellipse cx="390.99" cy="652.24" rx="40.09" ry="48.14" style="fill:#ffe98a;stroke:#000;stroke-miterlimit:10"/><ellipse cx="390.99" cy="652.86" rx="16.47" ry="48.14" style="fill:#ffe98a;stroke:#000;stroke-miterlimit:10"/><polygon points="350.9 649.8 366.77 622.74 385.62 659.08 350.9 649.8" style="stroke:#000;stroke-miterlimit:10"/><polygon points="436.08 649.19 420.87 623.98 402.8 657.84 436.08 649.19" style="stroke:#000;stroke-miterlimit:10"/><polygon points="345.89 667.46 353.05 681.74 367.37 671.8 376.67 684.85 387.41 676.15 396 684.85 409.6 676.15 417.47 684.85 436.08 676.15 421.77 676.15 409.6 667.46 397.43 676.15 387.41 667.46 376.67 676.15 364.5 664.35 355.69 672.48 345.89 667.46" style="stroke:#000;stroke-miterlimit:10"/><path d="M373.15,550.15c2.07,26.38,6.1,40.42,19.09,47.61s20.64-25.74,24.43-41.83" style="fill:#cffff8;stroke:#000;stroke-miterlimit:10"/><path d="M365.76,608.86c24.11-32.1,46.1-32.51,65.48,4.26" style="fill:none;stroke:#000;stroke-miterlimit:10;stroke-width:2px"/><g style="opacity:0.9"><rect x="460.8" y="278.24" width="22" height="50" transform="translate(28.78 -40.69) rotate(5.09)" style="fill:#2b2b2b"/></g></svg>