<svg id="Lag_1" data-name="Lag 1" xmlns="http://www.w3.org/2000/svg" xmlns:xlink="http://www.w3.org/1999/xlink" viewBox="0 0 1920 1080"><title>Tegnebræt 31</title><rect width="1920" height="881" style="fill:#dbdbdb"/><g style="opacity:0.2"><rect y="876" width="1920" height="199" style="fill:#191919"/></g><rect y="881" width="1920" height="199" style="fill:#f4f4f4"/><path d="M1414,977l-209,16V635l205-6,24,248Q1424,927,1414,977Z" style="opacity:0.1"/><path d="M1409.89,981.26c-8.75,11.49-22.59,12.39-42.54,13.07-44.3,1.52-66.45,2.28-77.48.6-31.28-4.78-81.23-8.59-165.09-5.35V615.13c63.35-5,109.62-4.79,140.78-3.56,28.13,1.1,36.71,2.75,67.86,3,53.7.38,58.71-4.29,67.86,3,23.19,18.4,3.67,58.51,11.14,177.12,2.9,46-2.26,92.81,3.54,138.48C1417.48,945,1420.66,967.09,1409.89,981.26Z" style="fill:#efefef;stroke:#020202;stroke-miterlimit:10"/><path d="M1409.63,974.72c-5.67,12.06-18.66,17.46-42,21.12-47.58,7.46-77.48.6-77.48.6-31.27-4.78-81.22-8.59-165.09-5.35V616.64c60.11-.17,108.44-2,140.78-3.56,43.61-2.13,134.82-7.53,139.26,14.53.25,1.21,0,1.48.43,8.06a267.82,267.82,0,0,0,4.13,33.55c4.3,24.09,1,103.45-1,177.12-1.45,53.1-2.15,79.83-.51,88.56C1411,950.43,1415.19,962.9,1409.63,974.72Z" style="fill:#efefef;stroke:#020202;stroke-miterlimit:10"/><path d="M1400.9,978.12c-8.46,11.48-21.85,12.38-41.16,13.06-42.87,1.52-64.31,2.28-75,.59-30.27-4.76-78.61-8.57-159.77-5.34V612.3c61.31-5,106.09-4.79,136.24-3.57,27.23,1.11,35.53,2.75,65.67,3,52,.39,56.82-4.28,65.67,3,22.45,18.39,3.55,58.47,10.78,177,2.81,46-2.18,92.73,3.43,138.37C1408.25,941.92,1411.33,964,1400.9,978.12Z" style="fill:#efefef;stroke:#020202;stroke-miterlimit:10"/><path d="M1397.14,971.58c-5.42,12.06-17.83,17.45-40.15,21.11-45.46,7.45-74,.59-74,.59-29.88-4.77-77.6-8.58-157.72-5.34V613.72c57.42-.17,103.6-2,134.5-3.56,41.66-2.13,128.8-7.53,133,14.53.23,1.2,0,1.48.4,8a282.52,282.52,0,0,0,4,33.54c4.11,24.08,1,103.38-1,177-1.39,53.06-2,79.78-.49,88.5C1398.48,947.31,1402.45,959.77,1397.14,971.58Z" style="fill:#efefef;stroke:#020202;stroke-miterlimit:10"/><ellipse cx="1138.45" cy="631.18" rx="4.81" ry="5.65" style="fill:none;stroke:#020202;stroke-miterlimit:10"/><ellipse cx="1138.45" cy="665.06" rx="4.81" ry="5.65" style="fill:none;stroke:#020202;stroke-miterlimit:10"/><ellipse cx="1138.45" cy="695.37" rx="4.81" ry="5.65" style="fill:none;stroke:#020202;stroke-miterlimit:10"/><ellipse cx="1138.96" cy="959.86" rx="4.81" ry="5.65" style="fill:none;stroke:#020202;stroke-miterlimit:10"/><ellipse cx="1138.45" cy="927.17" rx="4.81" ry="5.65" style="fill:none;stroke:#020202;stroke-miterlimit:10"/><ellipse cx="1138.45" cy="894.48" rx="4.81" ry="5.65" style="fill:none;stroke:#020202;stroke-miterlimit:10"/><ellipse cx="1138.96" cy="862.38" rx="4.81" ry="5.65" style="fill:none;stroke:#020202;stroke-miterlimit:10"/><ellipse cx="1138.45" cy="829.1" rx="4.81" ry="5.65" style="fill:none;stroke:#020202;stroke-miterlimit:10"/><ellipse cx="1138.45" cy="794.63" rx="4.81" ry="5.65" style="fill:none;stroke:#020202;stroke-miterlimit:10"/><ellipse cx="1138.45" cy="762.53" rx="4.81" ry="5.65" style="fill:none;stroke:#020202;stroke-miterlimit:10"/><ellipse cx="1138.45" cy="730.44" rx="4.81" ry="5.65" style="fill:none;stroke:#020202;stroke-miterlimit:10"/><path d="M1136,632.05c1.26-2.37-.58-4.8-3-5.13a24.28,24.28,0,0,0-6.81.15,10.9,10.9,0,0,0-6,2.76c-1.59,1.54-2.59,4-1.68,6.14,1,2.32,3.49,2.84,5.76,2.74,1.92-.08,1.93-3.08,0-3-1.18,0-3,.13-3.12-1.35-.15-1.67,1.66-3,3-3.6a12.75,12.75,0,0,1,5.36-1,19.52,19.52,0,0,1,3.06.07,1.06,1.06,0,0,1,.78.34,1,1,0,0,1,.08.32c-.9,1.71,1.69,3.23,2.59,1.52Z" style="fill:#020202"/><path d="M1135.64,635.53a3.23,3.23,0,0,0,1.31-4.75c-1.2-2-3.79-1.79-5.78-1.67a12.5,12.5,0,0,0-6.42,1.87,8.18,8.18,0,0,0-3.77,5c-.46,2.51,1.11,5.38,4,5a1.5,1.5,0,0,0,1-1.84,1.53,1.53,0,0,0-1.84-1.05c.07,0,.18-.06.25,0-.17-.18-.06,0-.21-.18a1.69,1.69,0,0,1-.3-.73,2.86,2.86,0,0,1,.51-1.69,7.18,7.18,0,0,1,3.61-2.76,15.29,15.29,0,0,1,5.38-.63,2.43,2.43,0,0,1,.7.09,2.49,2.49,0,0,1,.32.2c-.2-.16,0,0,.07.14-.14-.32.06.35,0,.14s0,.42,0,.17,0-.08,0,.08,0,.17,0,.06.31-.25.38-.28a1.54,1.54,0,0,0-1,1.84,1.5,1.5,0,0,0,1.84,1Z" style="fill:#020202"/><path d="M1136,666.3c1.26-2.37-.58-4.8-3-5.13a24.66,24.66,0,0,0-6.81.14,11,11,0,0,0-6,2.77c-1.59,1.54-2.59,4-1.68,6.14,1,2.31,3.49,2.83,5.76,2.74,1.92-.08,1.93-3.09,0-3-1.17,0-3,.12-3.12-1.35-.15-1.67,1.66-3,3-3.61a12.91,12.91,0,0,1,5.36-1,19.53,19.53,0,0,1,3.06.08,1.06,1.06,0,0,1,.78.34.9.9,0,0,1,.08.32c-.9,1.71,1.69,3.22,2.59,1.52Z" style="fill:#020202"/><path d="M1135.68,669.78A3.24,3.24,0,0,0,1137,665c-1.2-2-3.79-1.78-5.78-1.66a12.5,12.5,0,0,0-6.42,1.87,8.16,8.16,0,0,0-3.77,5c-.46,2.51,1.11,5.39,4,5a1.51,1.51,0,0,0,1-1.84,1.55,1.55,0,0,0-1.85-1.05c.07,0,.18-.06.25,0-.17-.18-.06,0-.21-.18a1.69,1.69,0,0,1-.3-.73,2.86,2.86,0,0,1,.51-1.69,7.18,7.18,0,0,1,3.61-2.76,15.06,15.06,0,0,1,5.38-.63,2.43,2.43,0,0,1,.7.09,1.73,1.73,0,0,1,.32.2c-.2-.17,0,0,.07.14-.14-.32.06.34,0,.13s0,.43,0,.18,0-.08,0,.07,0,.17,0,.07.31-.25.39-.29a1.55,1.55,0,0,0-1.05,1.85,1.51,1.51,0,0,0,1.84,1Z" style="fill:#020202"/><path d="M1135.89,696.46c1.26-2.37-.58-4.8-3-5.13a24.66,24.66,0,0,0-6.81.14,11,11,0,0,0-6,2.77c-1.58,1.54-2.59,4-1.68,6.14,1,2.31,3.49,2.83,5.76,2.74,1.92-.08,1.94-3.08,0-3-1.17,0-3,.13-3.12-1.35-.15-1.67,1.66-3,3-3.6a12.59,12.59,0,0,1,5.36-1,18.38,18.38,0,0,1,3.06.07,1.06,1.06,0,0,1,.78.34,1,1,0,0,1,.08.32c-.9,1.71,1.69,3.23,2.59,1.52Z" style="fill:#020202"/><path d="M1135.57,699.94a3.24,3.24,0,0,0,1.31-4.76c-1.19-2-3.79-1.78-5.78-1.66a12.5,12.5,0,0,0-6.42,1.87,8.18,8.18,0,0,0-3.77,5c-.46,2.5,1.11,5.38,3.95,5a1.51,1.51,0,0,0,1.05-1.84,1.54,1.54,0,0,0-1.85-1.05c.07,0,.18-.06.25,0-.17-.18-.06,0-.21-.18a1.69,1.69,0,0,1-.3-.73,2.86,2.86,0,0,1,.51-1.69,7.18,7.18,0,0,1,3.61-2.76,15.29,15.29,0,0,1,5.38-.63,2.43,2.43,0,0,1,.7.09,1.73,1.73,0,0,1,.32.2c-.2-.17,0,0,.08.14-.15-.32,0,.35,0,.13s0,.43,0,.18,0-.08,0,.08-.05.17,0,.06a4.22,4.22,0,0,1,.38-.28,1.54,1.54,0,0,0-1,1.84,1.5,1.5,0,0,0,1.84,1.05Z" style="fill:#020202"/><path d="M1136.14,731.47c1.25-2.36-.58-4.79-3-5.12a24.28,24.28,0,0,0-6.81.14,10.9,10.9,0,0,0-6,2.76c-1.59,1.55-2.59,4-1.69,6.14,1,2.32,3.5,2.84,5.77,2.75,1.92-.09,1.93-3.09,0-3-1.18,0-3,.12-3.12-1.35-.15-1.68,1.65-3,3-3.61a12.91,12.91,0,0,1,5.36-1,20.82,20.82,0,0,1,3.06.07,1.13,1.13,0,0,1,.78.35,1.8,1.8,0,0,1,.08.32c-.9,1.71,1.68,3.22,2.59,1.51Z" style="fill:#020202"/><path d="M1135.82,735a3.24,3.24,0,0,0,1.31-4.76c-1.2-2-3.8-1.78-5.78-1.67a12.64,12.64,0,0,0-6.43,1.88,8.23,8.23,0,0,0-3.77,5c-.45,2.51,1.12,5.38,4,5a1.5,1.5,0,0,0,1-1.84,1.52,1.52,0,0,0-1.84-1c.07,0,.18-.07.25,0-.18-.17-.06,0-.21-.17a1.69,1.69,0,0,1-.3-.73,2.86,2.86,0,0,1,.51-1.69,7.14,7.14,0,0,1,3.61-2.76,15.06,15.06,0,0,1,5.38-.63,2.43,2.43,0,0,1,.7.09,1.82,1.82,0,0,1,.31.19c-.19-.16,0,0,.08.15-.15-.32.06.34,0,.13s0,.43,0,.18,0-.08,0,.07-.06.17,0,.07.31-.26.38-.29a1.54,1.54,0,0,0-1,1.85,1.51,1.51,0,0,0,1.84,1.05Z" style="fill:#020202"/><path d="M1135.75,763.15c1.25-2.36-.58-4.79-3-5.12a23.83,23.83,0,0,0-6.8.14,10.9,10.9,0,0,0-6,2.76c-1.59,1.55-2.59,4-1.69,6.14,1,2.32,3.5,2.84,5.77,2.74,1.92-.08,1.93-3.08,0-3-1.18.05-3,.13-3.12-1.35-.15-1.67,1.66-3,3-3.6a12.75,12.75,0,0,1,5.36-1,20.82,20.82,0,0,1,3.06.07,1.12,1.12,0,0,1,.78.34c.06.08.07.34.08.33-.9,1.7,1.68,3.22,2.59,1.51Z" style="fill:#020202"/><path d="M1135.43,766.63a3.22,3.22,0,0,0,1.31-4.75c-1.2-2-3.8-1.78-5.78-1.67a12.56,12.56,0,0,0-6.43,1.87,8.23,8.23,0,0,0-3.76,5c-.46,2.51,1.11,5.38,4,5a1.5,1.5,0,0,0-.8-2.89c.07,0,.18-.07.25,0-.17-.17-.06,0-.21-.18a1.59,1.59,0,0,1-.3-.73,2.88,2.88,0,0,1,.51-1.69,7.23,7.23,0,0,1,3.61-2.76,15.28,15.28,0,0,1,5.38-.62,2.43,2.43,0,0,1,.7.09,1.82,1.82,0,0,1,.31.19c-.19-.16,0,.05.08.15-.15-.33.06.34,0,.13s0,.42,0,.18,0-.08,0,.07,0,.17,0,.07.31-.26.38-.29a1.54,1.54,0,0,0-1,1.85,1.49,1.49,0,0,0,1.84,1Z" style="fill:#020202"/><path d="M1136.1,795.78c1.26-2.36-.58-4.79-3-5.12a24.28,24.28,0,0,0-6.81.14,11,11,0,0,0-6,2.76c-1.58,1.55-2.58,4-1.68,6.14,1,2.32,3.49,2.84,5.76,2.75,1.93-.09,1.94-3.09,0-3-1.17,0-3,.12-3.12-1.35-.15-1.68,1.66-3,3-3.61a12.91,12.91,0,0,1,5.36-1,20.82,20.82,0,0,1,3.06.07,1.11,1.11,0,0,1,.78.35.9.9,0,0,1,.08.32c-.9,1.71,1.69,3.22,2.59,1.51Z" style="fill:#020202"/><path d="M1135.79,799.27a3.24,3.24,0,0,0,1.31-4.76c-1.2-2-3.8-1.78-5.79-1.67a12.61,12.61,0,0,0-6.42,1.88,8.16,8.16,0,0,0-3.77,5c-.46,2.51,1.12,5.38,4,5a1.51,1.51,0,0,0,1-1.84,1.53,1.53,0,0,0-1.85-1c.08,0,.18-.07.25,0-.17-.17,0,0-.21-.17a1.69,1.69,0,0,1-.29-.73,2.78,2.78,0,0,1,.5-1.69,7.18,7.18,0,0,1,3.61-2.76,15.06,15.06,0,0,1,5.38-.63,2.43,2.43,0,0,1,.7.09,1.93,1.93,0,0,1,.32.19c-.2-.16,0,.05.08.15-.15-.32.05.34,0,.13s0,.43,0,.18,0-.08,0,.07,0,.17,0,.07a4,4,0,0,1,.38-.29,1.56,1.56,0,0,0-1,1.85,1.52,1.52,0,0,0,1.85,1Z" style="fill:#020202"/><path d="M1136.12,830.61c1.25-2.36-.58-4.79-3-5.12a23.91,23.91,0,0,0-6.81.14,10.9,10.9,0,0,0-6,2.76c-1.59,1.55-2.59,4-1.69,6.14,1,2.32,3.5,2.84,5.77,2.74,1.92-.08,1.93-3.08,0-3-1.18.05-3,.13-3.12-1.35-.15-1.67,1.66-3,3-3.6a12.75,12.75,0,0,1,5.36-1,20.82,20.82,0,0,1,3.06.07,1.12,1.12,0,0,1,.78.34,2.08,2.08,0,0,1,.08.33c-.9,1.7,1.68,3.22,2.59,1.51Z" style="fill:#020202"/><path d="M1135.8,834.09a3.22,3.22,0,0,0,1.31-4.75c-1.2-2-3.8-1.78-5.78-1.67a12.54,12.54,0,0,0-6.43,1.87,8.28,8.28,0,0,0-3.77,5c-.45,2.51,1.12,5.38,4,5a1.5,1.5,0,0,0-.8-2.89c.07,0,.18-.07.25,0-.18-.17-.06,0-.21-.18a1.59,1.59,0,0,1-.3-.73,2.88,2.88,0,0,1,.51-1.69,7.23,7.23,0,0,1,3.61-2.76,15.28,15.28,0,0,1,5.38-.62,2.43,2.43,0,0,1,.7.09,1.82,1.82,0,0,1,.31.19c-.19-.16,0,.05.08.15-.15-.33.06.34,0,.13s0,.42,0,.18,0-.08,0,.07-.05.17,0,.07.31-.26.38-.29a1.54,1.54,0,0,0-1,1.85,1.49,1.49,0,0,0,1.84,1Z" style="fill:#020202"/><path d="M1136.23,863.25c1.26-2.37-.58-4.8-3-5.13a24.66,24.66,0,0,0-6.81.14,11,11,0,0,0-6,2.77c-1.58,1.54-2.58,4-1.68,6.14,1,2.31,3.49,2.83,5.76,2.74,1.93-.08,1.94-3.09,0-3-1.17.05-3,.12-3.12-1.35-.15-1.67,1.66-3,3-3.61a13,13,0,0,1,5.37-1,19.43,19.43,0,0,1,3,.08,1.1,1.1,0,0,1,.79.34,1.09,1.09,0,0,1,.07.32c-.9,1.71,1.69,3.22,2.59,1.52Z" style="fill:#020202"/><path d="M1135.92,866.73a3.24,3.24,0,0,0,1.31-4.76c-1.2-2-3.8-1.78-5.79-1.66a12.5,12.5,0,0,0-6.42,1.87,8.16,8.16,0,0,0-3.77,5c-.46,2.51,1.12,5.39,4,5a1.51,1.51,0,0,0,1-1.84,1.54,1.54,0,0,0-1.85-1c.08,0,.18-.06.25,0-.17-.18-.05,0-.21-.18a1.69,1.69,0,0,1-.29-.73,2.78,2.78,0,0,1,.5-1.69,7.18,7.18,0,0,1,3.61-2.76,15.09,15.09,0,0,1,5.39-.63,2.4,2.4,0,0,1,.69.09,1.25,1.25,0,0,1,.32.2c-.2-.17,0,0,.08.14-.15-.32,0,.34,0,.13s0,.43,0,.18,0-.08,0,.07,0,.17,0,.07.3-.25.38-.29a1.56,1.56,0,0,0-1,1.85,1.52,1.52,0,0,0,1.85,1.05Z" style="fill:#020202"/><path d="M1136.12,896c1.25-2.37-.58-4.79-3-5.13a24.2,24.2,0,0,0-6.8.15,10.9,10.9,0,0,0-6,2.76c-1.59,1.55-2.59,4-1.69,6.14,1,2.32,3.5,2.84,5.77,2.74,1.92-.08,1.93-3.08,0-3-1.18.05-3,.13-3.12-1.35-.15-1.67,1.66-3,3-3.6a12.75,12.75,0,0,1,5.36-1,20.82,20.82,0,0,1,3.06.07,1.12,1.12,0,0,1,.78.34c.06.08.07.34.08.33-.9,1.7,1.68,3.22,2.59,1.51Z" style="fill:#020202"/><path d="M1135.8,899.46a3.23,3.23,0,0,0,1.31-4.75c-1.2-2-3.8-1.79-5.78-1.67a12.56,12.56,0,0,0-6.43,1.87,8.23,8.23,0,0,0-3.76,5c-.46,2.51,1.11,5.38,3.95,5a1.51,1.51,0,0,0,1-1.85,1.54,1.54,0,0,0-1.84-1c.07,0,.18-.06.25,0-.17-.18-.06,0-.21-.18a1.59,1.59,0,0,1-.3-.73,2.86,2.86,0,0,1,.51-1.69,7.23,7.23,0,0,1,3.61-2.76,15.05,15.05,0,0,1,5.38-.62,2.13,2.13,0,0,1,.7.09,1.82,1.82,0,0,1,.31.19c-.19-.16,0,0,.08.14-.15-.32.06.35,0,.14s0,.42,0,.17,0-.07,0,.08-.05.17,0,.07.31-.26.38-.29a1.54,1.54,0,0,0-1,1.85,1.5,1.5,0,0,0,1.84,1Z" style="fill:#020202"/><path d="M1135.84,928.36c1.25-2.36-.59-4.79-3-5.12a24.28,24.28,0,0,0-6.81.14,10.9,10.9,0,0,0-6,2.76c-1.59,1.55-2.59,4-1.69,6.14,1,2.32,3.49,2.84,5.77,2.75,1.92-.09,1.93-3.09,0-3-1.18.05-3,.12-3.12-1.35-.15-1.68,1.65-3,3-3.61a12.91,12.91,0,0,1,5.36-1,20.69,20.69,0,0,1,3.05.07,1.14,1.14,0,0,1,.79.35,1.8,1.8,0,0,1,.08.32c-.91,1.71,1.68,3.22,2.59,1.51Z" style="fill:#020202"/><path d="M1135.52,931.85a3.24,3.24,0,0,0,1.31-4.76c-1.2-2-3.8-1.78-5.79-1.67a12.64,12.64,0,0,0-6.42,1.88,8.23,8.23,0,0,0-3.77,5c-.45,2.51,1.12,5.38,4,5a1.5,1.5,0,0,0,1-1.84,1.52,1.52,0,0,0-1.84-1c.07,0,.18-.07.25,0-.18-.17-.06,0-.22-.17a1.83,1.83,0,0,1-.29-.73,2.72,2.72,0,0,1,.51-1.69,7.1,7.1,0,0,1,3.61-2.76,15,15,0,0,1,5.38-.63,2.31,2.31,0,0,1,.69.09,1.25,1.25,0,0,1,.32.2c-.19-.17,0,0,.08.14-.15-.32.05.34,0,.13s0,.43,0,.18,0-.08,0,.07-.06.17,0,.07a4,4,0,0,1,.38-.29,1.56,1.56,0,0,0-1,1.85,1.52,1.52,0,0,0,1.85,1.05Z" style="fill:#020202"/><path d="M1135.86,960c1.26-2.36-.58-4.79-3-5.12a23.91,23.91,0,0,0-6.81.14,11,11,0,0,0-6,2.76c-1.58,1.55-2.59,4-1.68,6.14,1,2.32,3.49,2.84,5.76,2.74,1.93-.08,1.94-3.08,0-3-1.17,0-3,.13-3.12-1.34-.15-1.68,1.66-3,3-3.61a12.75,12.75,0,0,1,5.36-1,20.82,20.82,0,0,1,3.06.07,1.1,1.1,0,0,1,.78.34,1,1,0,0,1,.08.33c-.9,1.7,1.69,3.22,2.59,1.51Z" style="fill:#020202"/><path d="M1135.54,963.52a3.22,3.22,0,0,0,1.31-4.75c-1.19-2-3.79-1.78-5.78-1.67a12.6,12.6,0,0,0-6.42,1.87,8.21,8.21,0,0,0-3.77,5c-.46,2.51,1.11,5.38,3.95,5a1.52,1.52,0,0,0,1.05-1.85,1.54,1.54,0,0,0-1.85-1c.08,0,.18-.07.25,0-.17-.17-.06,0-.21-.18a1.6,1.6,0,0,1-.3-.72,2.88,2.88,0,0,1,.51-1.7,7.16,7.16,0,0,1,3.61-2.75,15.06,15.06,0,0,1,5.38-.63,2.43,2.43,0,0,1,.7.09,2.46,2.46,0,0,1,.32.19c-.2-.16,0,0,.08.15-.15-.32.05.34,0,.13s0,.43,0,.18,0-.08,0,.07-.05.17,0,.07a4,4,0,0,1,.38-.29,1.54,1.54,0,0,0-1,1.85,1.5,1.5,0,0,0,1.84,1Z" style="fill:#020202"/><text transform="translate(1238.24 726.5)" style="font-size:31px;font-family:MyriadPro-Regular, Myriad Pro"><tspan style="letter-spacing:0.012002268145161293em">C</tspan><tspan x="18.35" y="0">V</tspan></text><path d="M103.13,788.66q1.53-11.34,3.07-22.7a8.77,8.77,0,0,0,.8-3.55,8.4,8.4,0,0,0-.13-1.41c0-.33.09-.65.13-1h-.37c-1-3.37-4.09-6.54-8.86-9.39.19-.76.39-1.52.58-2.28a4.32,4.32,0,0,0,.9-2.65,2.59,2.59,0,0,0-.07-.55l.07-.29h-.14C96.5,736,58.26,729,28.08,729c-31.16,0-70.81,7.41-71.18,16.71a3.9,3.9,0,0,0,.46,1.92l.42,1.72c-6.09,3.17-10,6.8-11.17,10.68h-.36l.2.68a8.14,8.14,0,0,0-.2,1.7,10,10,0,0,0,2.58,6.38L-45,789.62c1,.49,2.07,1,3.21,1.55q1.06,9.27,2.14,18.53h-3l.22.49-.11-.06Q-36.8,857.87-31,905.61l2.53,1.32q2.13,18.44,4.25,36.86a106.8,106.8,0,0,0,108.46-.95q2-18.12,3.92-36.23l1.89-1,14-97.85-.31.18.13-.26-5-.21q.94-8.82,1.9-17.62Z" style="fill:#050505;stroke:#000;stroke-miterlimit:10;opacity:0.1"/><path d="M97.31,804.42l-3.56,7.17L87.47,804Z" style="fill:#fff;stroke:#000;stroke-miterlimit:10"/><path d="M77,946a109.42,109.42,0,0,1-56,16,109.48,109.48,0,0,1-56-15q-9.49-83.5-19-167l149-3Z" style="fill:#a0a0a0;stroke:#000;stroke-miterlimit:10"/><path d="M83,907a130.78,130.78,0,0,1-65,16,130.52,130.52,0,0,1-60-16L-54,807a152.63,152.63,0,0,0,78,19,152.37,152.37,0,0,0,73.5-21.5Q90.26,855.75,83,907Z" style="fill:#e0e0e0;stroke:#000;stroke-miterlimit:10"/><path d="M96.5,784.5a168.41,168.41,0,0,1-80,19,168,168,0,0,1-73-18l-9-31h166Q98.51,769.5,96.5,784.5Z" style="fill:#232323;stroke:#000;stroke-miterlimit:10"/><ellipse cx="17.5" cy="757" rx="83" ry="26.5" style="fill:#232323;stroke:#000;stroke-miterlimit:10"/><path d="M86.5,762.26a181.71,181.71,0,0,1-71,12.25,180.09,180.09,0,0,1-65-14q-2.51-10.5-5-21l147-.87Z" style="fill:#545454;stroke:#000;stroke-miterlimit:10"/><path d="M92.5,739.5c.38,9.61-38.74,21.11-74,21-34.7-.1-73.38-11.45-73-21,.39-9.74,41.32-17.5,73.5-17.5S92.11,729.76,92.5,739.5Z" style="fill:#545454;stroke:#000;stroke-miterlimit:10"/><ellipse cx="19" cy="739.94" rx="55" ry="11.38" style="fill:#a5a5a5;stroke:#000;stroke-miterlimit:10"/><path d="M62.32,748.27a80.69,80.69,0,0,1-8.2,2.12c-2.93.6-5.65,1-8.12,1.25.24,1.18.48,2.37.71,3.55A70.52,70.52,0,0,0,55.83,754a72.72,72.72,0,0,0,8.2-2.12Z" style="fill:#f7f7f7;stroke:#000;stroke-miterlimit:10"/><path d="M1.25,884.26s.1-.13.23-.3a.92.92,0,0,0,.2-.3v-.34a1.32,1.32,0,0,0,0-.35v-.45a5,5,0,0,1,0-.5s0-.1,0-.23a.77.77,0,0,1,.07-.25s0,0-.12-.07a.5.5,0,0,1-.18-.1.28.28,0,0,1-.06-.2.47.47,0,0,0,0-.19,1.74,1.74,0,0,1,0-.46,1.75,1.75,0,0,0,0-.46s0,0-.07-.08l-.07-.13s0-.05-.05-.14a1.49,1.49,0,0,0,0-.19s0,0-.07-.08-.08-.06-.08-.07H.9a0,0,0,0,1,0,0l-.21.07c-.09,0-.15,0-.17,0a.21.21,0,0,1-.09,0s-.05-.07,0-.1c.15-.78.22-1.18.37-2a1.69,1.69,0,0,1,.25-.38,3.31,3.31,0,0,1,.41-.45.8.8,0,0,1,.18-.14l.18-.12,0-.05v-.09a.68.68,0,0,0-.05-.22.92.92,0,0,1,0-.22.77.77,0,0,0-.1-.37,1,1,0,0,1-.11-.31,1,1,0,0,0,0-.36,2.37,2.37,0,0,1,0-.45.9.9,0,0,1,0-.15,1,1,0,0,0,0-.19,1.37,1.37,0,0,0,0-.3c0-.16,0-.34,0-.54v-.53c0-.16,0-.27,0-.33a1.5,1.5,0,0,1,0-.18c0-.11,0-.18,0-.22a.3.3,0,0,1,0-.1.24.24,0,0,0,0-.09.49.49,0,0,0,0-.12l.33-.26a1.55,1.55,0,0,1,.38-.25h.12l.06,0h0l.2.17.21.21a1.61,1.61,0,0,1,.28-.25,3.23,3.23,0,0,0,.3-.28.54.54,0,0,0,.13-.21l.06-.21H4l.26.1a.72.72,0,0,1,.26.14,1,1,0,0,0-.22.2c-.11.11-.19.17-.22.17L4,871s0,.05,0,.09l.08.09s.05.07,0,.09a.76.76,0,0,1,.17.11.5.5,0,0,0,.17.12s.07,0,.08.08a.14.14,0,0,1,0,.1l-.19.18a.51.51,0,0,0-.14.2v.14a.32.32,0,0,0,0,.2c0,.1,0,.15.07.15a.05.05,0,0,0,0,0h.27l.07,0,0,0,0,0a.34.34,0,0,0,.12-.12.94.94,0,0,1,.08-.15l.15.18a1.07,1.07,0,0,0,.16.18,1,1,0,0,0,.23.11.76.76,0,0,0,.24.07l0,0-.64.21L5,873v.09a0,0,0,0,0,0,0s0,.05.06.11l.1.08s0,0-.09.07l-.13.08a1.21,1.21,0,0,1-.26.1q-.24.06-.24.12s0,0-.07.11a1.64,1.64,0,0,0,0,.23s0,.1,0,.2a.39.39,0,0,0,0,.2,1,1,0,0,1,.24-.19l.28-.2H5l.15,0a.78.78,0,0,0,.19-.13.34.34,0,0,1,.19-.1.07.07,0,0,0,.06,0l.06,0-.06.49c0,.24-.06.41-.07.48a3.32,3.32,0,0,0,0,.46c0,.23,0,.42,0,.49a1.49,1.49,0,0,1,0,.19c0,.09,0,.13.06.14a0,0,0,0,0,0,0h.18s0-.09.08-.14a.28.28,0,0,1,.06-.09l0-.07s.06,0,.13-.08l.06-.06a1.09,1.09,0,0,0,.29,0,.92.92,0,0,1,.26,0,.34.34,0,0,1,.06.06l.08.09a.45.45,0,0,0,0,.17.47.47,0,0,1,0,.18,1.56,1.56,0,0,1,.27-.14l.27-.12h.09s0,0,0,0h.06L8,876l.32.15h.42a3.81,3.81,0,0,0,.53,0l.28-.06.28-.06H10l.12,0a.18.18,0,0,1,.11.18s0,.08,0,.19,0,.22,0,.35,0,.24,0,.36a.38.38,0,0,0,0,.2s0,.05.06.09a.09.09,0,0,1,0,.06c.14,0,.21,0,.22-.11a1.41,1.41,0,0,1,.07-.34,1.92,1.92,0,0,0,.08-.31h0l.05,0s.07.08.08.18a.53.53,0,0,1,0,.2,2.11,2.11,0,0,0-.06.37,1.37,1.37,0,0,1-.06.34l.13-.12c.06-.07.1-.12.1-.16a1.27,1.27,0,0,1,.11-.19l.15-.2a.41.41,0,0,1,.09-.18,1,1,0,0,1,.11-.15.92.92,0,0,1,0-.22,1.72,1.72,0,0,0,0-.21l.09,0s0,.16,0,.36a1.7,1.7,0,0,0,.08.42,2.73,2.73,0,0,0,.3.46,1.23,1.23,0,0,0,.4.37.76.76,0,0,0,.19,0,.28.28,0,0,0,.15-.05.1.1,0,0,1,.13,0q.09,0,.06.06a4.07,4.07,0,0,1,.44-.37,2.17,2.17,0,0,1,.5-.31.93.93,0,0,0,.1-.16.68.68,0,0,0,.06-.15l.1-.09a.19.19,0,0,1,.09,0s0,.15,0,.33a.68.68,0,0,0,.08.33l.06.09s0,0,0,0,0,0,0,0a0,0,0,0,0,0,0,.2.2,0,0,1,.19-.14h.11a.1.1,0,0,1,.07,0l.05,0,0,0,.06,0,.19.18h.12s.08-.06.11-.14a.59.59,0,0,0,.05-.14l.36.18,1-.53c0-.2,0-.31,0-.51l.09,0s.06,0,.06.06l.08.16a.37.37,0,0,1,0,.15,1.69,1.69,0,0,1,.06.39c0,.22,0,.35,0,.39a.77.77,0,0,1,.07.19.44.44,0,0,0,.08.16l0,0h.09l.06,0,.16,0a.54.54,0,0,1,.18,0s-.05,0-.11.11a.55.55,0,0,1-.1.14,2.52,2.52,0,0,1-.38.32c-.18.13-.31.2-.34.22a.49.49,0,0,1-.16,0l-.26,0H16.2l-.32.13a.85.85,0,0,0-.25.15l-.11.18a.74.74,0,0,0-.08.22,2.18,2.18,0,0,1-.18.22,1.22,1.22,0,0,1-.23.23,1.26,1.26,0,0,1-.16.15.38.38,0,0,1-.19.1.71.71,0,0,0-.19.05c-.1,0-.16.06-.16.08s-.08.05-.17.14a.68.68,0,0,1-.18.14,1.29,1.29,0,0,1-.28.05.54.54,0,0,0-.25,0l-.19.08a.27.27,0,0,1-.19,0s-.09,0-.16-.14a1.08,1.08,0,0,1-.14-.19l-1.58-.23-.17-.2c-.08-.08-.14-.13-.18-.13l-.07,0a.07.07,0,0,0-.06,0s-.11.06-.21.18a1.85,1.85,0,0,1-.21.23h-.16l-.1,0-.11,0-.19-.18a1.62,1.62,0,0,0-.23-.19h0a.09.09,0,0,1-.06,0,0,0,0,0,0,0,0l-.11,0c-.06,0-.08,0-.09.07a.41.41,0,0,0-.14.15.54.54,0,0,0-.09.16l-.09,0a.05.05,0,0,1,0,0s0,0,0,0,0-.22,0-.42a2.21,2.21,0,0,0,0-.36s-.05,0-.07-.15a.84.84,0,0,1,0-.18.21.21,0,0,1,0-.12.35.35,0,0,0,0-.13A.16.16,0,0,1,8.6,879s-.07,0-.1,0a1.58,1.58,0,0,1-.2.14.41.41,0,0,0-.18.13,3.34,3.34,0,0,0-.14.41,3.23,3.23,0,0,0-.1.44.66.66,0,0,0-.26,0,.71.71,0,0,0-.27,0l-.12.06a.32.32,0,0,1-.13.07s-.07,0-.15.06a.38.38,0,0,1-.17.06H6.72l-.06,0a0,0,0,0,1,0,0,.39.39,0,0,1-.07-.23.43.43,0,0,0,0-.21l-.12,0-.11,0-.08,0-.18,0a.54.54,0,0,0-.15.08l-.24.17-.26.17-.16.08-.25.14a.63.63,0,0,1-.24.08.21.21,0,0,1-.18,0l-.16,0-.15.76.59.1a.6.6,0,0,1-.06.23.9.9,0,0,1-.1.2l-.19.14a1.59,1.59,0,0,1-.2.11s-.06.1-.11.18-.08.14-.11.15a.12.12,0,0,0,0,.09.26.26,0,0,0,0,.14c0,.09,0,.14,0,.23a.53.53,0,0,0,.05.15l0,.11v.21a3,3,0,0,1,0,.31c0,.12,0,.23,0,.34V884l.52-.19c-.07.48-.11.72-.18,1.2l-.1.06s-.07.06-.07.1a.9.9,0,0,0-.19.34l-.15.38-.06,0h-.1l-.15-.13a.44.44,0,0,0-.15-.09s-.05,0-.09-.14a.29.29,0,0,0-.11-.17s-.11,0-.19.12-.13.12-.15.11l-.07.06-.1.07a1,1,0,0,0-.13.14,1.59,1.59,0,0,0-.12.16.71.71,0,0,1,0-.14l-.14-.06-.25-.13a1.74,1.74,0,0,0-.26-.15.41.41,0,0,0-.15-.07,1.41,1.41,0,0,1-.23-.27,1.07,1.07,0,0,1-.17-.29,2.15,2.15,0,0,1-.05-.32A1.16,1.16,0,0,1,1.25,884.26ZM1,878.61s-.06,0-.08,0a.09.09,0,0,0,0,.12.13.13,0,0,0,.11-.07S1.06,878.62,1,878.61Zm-.41,7.26s.06,0,.06,0,0,.06-.07.1-.06,0-.06-.11S.55,885.83.59,885.87ZM1,883.72c.07,0,.11.09.09.2S1,884.05,1,884s-.15-.06-.13-.17A.16.16,0,0,1,1,883.72Zm.74-7.2s-.11,0-.14.14,0,.19.08.17.07-.06.09-.14S1.78,876.54,1.75,876.52Zm-.65,8.62c.08,0,.12.07.09.18s-.1.17-.18.16-.14-.1-.11-.21A.16.16,0,0,1,1.1,885.14ZM2.4,870.2a.14.14,0,0,1,.1.2c0,.1-.09.13-.16.11s-.11-.06-.09-.16S2.33,870.19,2.4,870.2Zm.05,10.36c-.07,0-.17,0-.27.21s-.1.25,0,.25a.25.25,0,0,0,.18,0l.14-.15a.58.58,0,0,0,.06-.17C2.54,880.59,2.5,880.57,2.45,880.56Zm0,.84c-.06,0-.09,0-.1.12s0,.13.08.13.13,0,.14-.09A.14.14,0,0,0,2.47,881.4Zm.58,4.65-.08.14H2.81l0-.14Zm.55-5,.1-.4-.22,0Zm.93-10a1.35,1.35,0,0,0,.24-.11l.34-.2.32-.24a1.85,1.85,0,0,0,.2-.2s.06,0,.12-.17a1.82,1.82,0,0,0,.13-.3v-.12s0,0-.12.07l-.18,0a.58.58,0,0,0-.2.15c-.1.09-.17.13-.2.1s-.11,0-.21-.16a.73.73,0,0,1-.18-.24,0,0,0,0,1,0,0v-.06a.17.17,0,0,1,0-.11.27.27,0,0,0,0-.08s0,0,.08-.1a.34.34,0,0,1,.12-.12.38.38,0,0,1,.19-.16.21.21,0,0,1,.15-.07.41.41,0,0,0,.15,0s.06,0,.11-.11.09-.12.12-.16l.12-.22a.92.92,0,0,1,.11-.2,1,1,0,0,1,.19-.14l.22-.15h.29c0,.2-.06.3-.09.51,0,0,0,0,0,0h.06l.06,0,.28-.2L7.3,868l1.22.19a.14.14,0,0,0,.09-.05.14.14,0,0,1,.09,0,.35.35,0,0,1,.18,0c.1,0,.15,0,.15-.05a.29.29,0,0,0,.12-.14.64.64,0,0,1,.1-.13s0,0,.09-.08l.09-.06.23,0,.26.05a.35.35,0,0,0,.07-.09c0-.07.07-.11.09-.11s.08,0,.18,0a.34.34,0,0,1,.2.08s0,.07,0,.08a.09.09,0,0,0,0,.06,0,0,0,0,1,0,0,.48.48,0,0,0-.16,0l-.17.05s-.07,0-.1,0a.15.15,0,0,0,0,.08v.12a.26.26,0,0,1,.13,0l.13.05a.53.53,0,0,1,.17-.08.48.48,0,0,1,.16,0h.27a.66.66,0,0,0,.23.07l.11.12a.21.21,0,0,0,.14.09.3.3,0,0,0,.18-.05l.18-.07.14,0c.08,0,.13,0,.15,0a4.75,4.75,0,0,1,.51-.17l.53-.17a.19.19,0,0,0,.08.14.25.25,0,0,0,.14.07.58.58,0,0,0,.2-.06.44.44,0,0,1,.19-.07l.06,0h.23A.64.64,0,0,1,14,868l.17,0a.18.18,0,0,0,.08.06l.09.08s0,.08,0,.16,0,.14,0,.16a.84.84,0,0,0,.11.2h.15a.49.49,0,0,1,.16-.1l.13,0a.68.68,0,0,0,.14-.21.83.83,0,0,1,.14-.21,0,0,0,0,0,0,0,.09.09,0,0,1,0-.06l.06-.05.17,0,.18,0a.21.21,0,0,0,.09-.05.11.11,0,0,0,.06-.09l1.86.17a1.5,1.5,0,0,1-.19.23c-.09.09-.13.16-.13.2a.26.26,0,0,0,0,.08.07.07,0,0,0,0,0s0,0,0,0a.9.9,0,0,0,.16.26l.27.36.29.35.21.22a.8.8,0,0,0,.34.12l.34.09s0,0,0,.07a.34.34,0,0,0,0,.1.5.5,0,0,1,.08.19c0,.1,0,.16.07.16l.12,0h.25l.1,0h.15a.82.82,0,0,0,.37,0l.28-.09a.46.46,0,0,0,0-.23c0-.13,0-.21,0-.23l.1-.21a.76.76,0,0,1,.11-.19l.14.11c-.05.66-.08,1-.14,1.64l-.25-.06a.58.58,0,0,1-.26-.11s-.11,0-.22-.14a1.42,1.42,0,0,0-.22-.18l-.06,0-.06,0h0s-.06,0-.12.1a.92.92,0,0,0-.12.16l-.35,0-.42,0-.15,0c-.08,0-.13,0-.14.07s0,.05-.1.09a.27.27,0,0,0-.11.08s0,0-.06,0h-.09l0-.38-.25.22-.26.18a2.21,2.21,0,0,0-.14.24.63.63,0,0,0-.07.22,4.58,4.58,0,0,0-.54-.07l-.82-.09-.81-.09-.54,0h-.35l-.58,0h-1a.17.17,0,0,0-.06-.11.21.21,0,0,1-.05-.09h-.06l-.06,0h-.09a.53.53,0,0,1-.17.08c-.09,0-.13.06-.13.08l-.3.05-.21,0-.33-.06a.7.7,0,0,0-.33,0,.48.48,0,0,0-.25,0l-.22.06a4.58,4.58,0,0,1-.63,0l-.63,0-.22,0-.35-.06a1.63,1.63,0,0,0-.36,0h-1l-.32,0-.49-.08-.47-.09-.31-.05a.64.64,0,0,1-.12.15c-.05.06-.08.1-.08.12l0,.14-.1.1a.17.17,0,0,1-.12.06s-.06,0-.11-.15a2.28,2.28,0,0,0-.1-.21l-.16-.12Zm.5,3.87a1,1,0,0,1,0-.17l-.18,0Zm-.58,10.88s0,.08-.06.08-.06,0-.1-.1,0,0,.1,0S4.46,885.76,4.45,885.79ZM5.94,869.3l.18,0c0-.07,0-.11,0-.17l-.18,0Zm.35,10a.21.21,0,0,0,.09,0s.07-.07.07-.11,0,0,.07,0a.23.23,0,0,0,0-.09s0,0-.1,0a.19.19,0,0,0-.11,0,.16.16,0,0,0-.13,0,.09.09,0,0,1-.06,0Zm.43-.55h.16s0-.08,0-.14H6.73A.61.61,0,0,1,6.72,878.74Zm2.47-10.53c-.09,0-.15,0-.16.12a.15.15,0,0,0,.12.2c.07,0,.12,0,.14-.15S9.26,868.22,9.19,868.21Zm.23.65a.93.93,0,0,0-.1.45q0,.32.09.33l.12-.24a.64.64,0,0,1,.14-.21.36.36,0,0,1,.22-.06.72.72,0,0,0,.26,0V869l0-.06v0a.82.82,0,0,0,0-.18c0-.08-.05-.12-.07-.12h0l-.06,0H9.94l-.31.13C9.5,868.81,9.42,868.84,9.42,868.86Zm.05,8.29.15,0a1.42,1.42,0,0,1,0-.2Zm.09-.66s0,0,.06.1.06.08.08.08l.2-.13-.15-.16a.24.24,0,0,1-.18-.06Zm.56,1.81c-.1,0-.16,0-.18.12a.16.16,0,0,0,.13.2c.07,0,.13,0,.15-.16S10.19,878.31,10.12,878.3Zm.36-9.3c.06.14.09.21.16.35a.28.28,0,0,1,.06-.08l.09-.08v-.09l0-.06a.32.32,0,0,1-.08-.13c0-.07-.05-.12,0-.16s0,0-.08-.1a1.08,1.08,0,0,1-.11-.11.78.78,0,0,1,0,.14.35.35,0,0,0,0,.12Zm.3,10.31a.34.34,0,0,0,0,.09.07.07,0,0,1,0,.08s0,0,.06.08l.09.07,0-.31Zm.5-.87h.19a2.34,2.34,0,0,1,0-.26Zm.29,1.13c-.07,0-.12,0-.13.14a.13.13,0,0,0,.12.15.12.12,0,0,0,.15-.11A.16.16,0,0,0,11.57,879.57Zm1-11.83-.35.1v-.14a.43.43,0,0,1,.1-.1c.06-.05.11-.06.14,0A1.74,1.74,0,0,1,12.58,867.74Zm-.53,8.32a.13.13,0,0,1,.13.17c0,.12-.08.18-.17.17s-.12-.09-.1-.21S12,876.05,12.05,876.06Zm.59-7.51.18-.17-.17,0C12.65,868.43,12.64,868.47,12.64,868.55Zm-.16,10.83h.15s0-.06,0-.11h-.16S12.49,879.33,12.48,879.38Zm1-.2a2.17,2.17,0,0,0,0-.25l-.15.11Zm1.14.32a.3.3,0,0,0-.19,0c-.08,0-.13,0-.15.08a1.21,1.21,0,0,1-.07.24,1.91,1.91,0,0,1-.1.24h.31l.09-.05a.14.14,0,0,0,.07-.06.66.66,0,0,1,0-.13.63.63,0,0,0,0-.12,0,0,0,0,1,0,0v-.18Zm-.26-.69c-.06,0-.1.05-.11.17s0,.17.07.17a.15.15,0,0,0,.17-.15A.15.15,0,0,0,14.35,878.81Zm.56-.1c-.1,0-.16,0-.18.16s0,.17.14.18a.14.14,0,0,0,.17-.14C15.05,878.8,15,878.72,14.91,878.71Zm.34-.28s-.06,0-.08.07,0,.1.05.1.1,0,.11-.06S15.31,878.47,15.25,878.43ZM16,878l-.08,0h-.07l-.11.07c-.06,0-.08,0-.08.07a.21.21,0,0,0-.07.15v.13l.37,0C15.94,878.31,16,878.21,16,878Zm.13-9.36c0-.14,0-.21,0-.35l-.15.14A1.39,1.39,0,0,0,16.1,868.65Zm.68-.42-.1,0-.11.07a.5.5,0,0,0,0,.14.64.64,0,0,0,0,.2c0,.13,0,.19,0,.32l.11-.07.1-.07.12-.17.09-.14v-.17S16.88,868.29,16.78,868.23Zm.88,9.55a.07.07,0,0,1,.06.07s0,.07-.06.07a.09.09,0,0,1-.12-.08C17.54,877.78,17.59,877.76,17.66,877.78Zm.44-.74s.08.08.07.19-.05.13-.11.12a.13.13,0,0,1-.13-.16C17.94,877.09,18,877,18.1,877Zm.6-7.67-.17,0,.2-.11Zm.94.09s0,0,.09-.08l.09-.06c0,.18,0,.28-.06.46l-.06-.06a.15.15,0,0,1-.06-.11v-.15Zm.71-.4c.07,0,.11.06.1.16s-.08.17-.16.16-.08-.08-.07-.19S20.28,869.05,20.35,869.06Z" style="fill:#c9c9c9"/><path d="M22.62,885.08l.2-.32a.86.86,0,0,0,.17-.32s0-.13,0-.34a1.31,1.31,0,0,0-.07-.35s0-.2,0-.44,0-.41,0-.5,0-.1,0-.23a.76.76,0,0,1,.05-.26s0,0-.13-.06a.47.47,0,0,1-.19-.08.31.31,0,0,1-.08-.19.35.35,0,0,0,0-.18,1.76,1.76,0,0,1,0-.46,1.55,1.55,0,0,0,0-.46s0,0-.08-.07l-.07-.13s-.05-.05-.07-.13a.85.85,0,0,0-.06-.19s0,0-.08-.07-.08,0-.08-.07h-.12a0,0,0,0,1,0,0l-.2.09c-.1,0-.15.05-.18,0a.16.16,0,0,1-.09,0,.07.07,0,0,1,0-.1c.07-.8.1-1.19.17-2a1.66,1.66,0,0,1,.22-.4,2.69,2.69,0,0,1,.36-.49.66.66,0,0,1,.17-.16l.16-.13,0-.06v-.09a.77.77,0,0,0-.06-.21.77.77,0,0,1-.06-.21.94.94,0,0,0-.15-.36,1.51,1.51,0,0,1-.14-.3s0-.16,0-.36a2.32,2.32,0,0,1-.05-.45,1.36,1.36,0,0,1,0-.16c0-.08,0-.14,0-.18s0-.14,0-.3,0-.34-.06-.53,0-.37,0-.54,0-.27,0-.33,0-.08,0-.18,0-.18,0-.22a.31.31,0,0,1,0-.1.3.3,0,0,0,0-.1v-.11l.3-.29a2.06,2.06,0,0,1,.35-.3h.09s0,0,0,0l.06,0h0a1.4,1.4,0,0,1,.23.16l.22.18a2.59,2.59,0,0,1,.25-.28,2.76,2.76,0,0,0,.28-.3.65.65,0,0,0,.1-.22.85.85,0,0,0,0-.22H24a1.31,1.31,0,0,0,.27.08.72.72,0,0,1,.27.11.87.87,0,0,0-.21.22c-.09.13-.16.19-.2.19l0,.09v.08l.09.09c.05,0,.06.07,0,.08a.91.91,0,0,1,.18.1.55.55,0,0,0,.18.1.09.09,0,0,1,.09.07.33.33,0,0,1,0,.1l-.17.2a.46.46,0,0,0-.12.21v.14a.3.3,0,0,0,0,.2c0,.1.06.14.08.14l.06,0h.27l.06,0a.09.09,0,0,0,0,0s0,0,0,0a.28.28,0,0,0,.1-.13l.07-.16.17.16a.88.88,0,0,0,.17.17l.24.08a.82.82,0,0,0,.24.05l0,0-.62.28-.09,0v.09s0,0,0,0,0,.06.08.1a.2.2,0,0,0,.11.07s0,0-.09.09l-.12.09a1.11,1.11,0,0,1-.25.12c-.15.06-.22.11-.22.15s0,0-.06.11a1.29,1.29,0,0,0,0,.24,1.92,1.92,0,0,0,0,.2.49.49,0,0,0,0,.2,1.06,1.06,0,0,1,.22-.22l.26-.23h.18a.33.33,0,0,1,.15,0,.85.85,0,0,0,.18-.15c.07-.08.13-.12.17-.12a.09.09,0,0,0,.06,0l.06,0c0,.07,0,.24,0,.49s0,.41,0,.48,0,.23,0,.46,0,.42.05.49a.8.8,0,0,1,.05.19c0,.08,0,.12.08.12a0,0,0,0,0,0,0h.18l.06-.15a.33.33,0,0,1,.06-.1.09.09,0,0,0,0-.08s.06,0,.12-.09l.06-.06a1,1,0,0,0,.29,0l.26,0,.06.06.09.08a.7.7,0,0,0,.06.17.58.58,0,0,1,0,.17,1.64,1.64,0,0,1,.25-.17l.26-.14h.06s0,0,0,0h.09a1.8,1.8,0,0,1,.31.08l.34.12.41,0a2.8,2.8,0,0,0,.53-.07,2,2,0,0,1,.27-.08l.27-.09h.18l.13,0a.21.21,0,0,1,.13.17,1,1,0,0,0,0,.19c0,.1,0,.22.05.34s0,.24.05.36,0,.18.05.19,0,0,.07.09,0,0,0,.05c.15,0,.22-.05.21-.12a2.26,2.26,0,0,1,0-.35,1.63,1.63,0,0,0,.05-.32h0a0,0,0,0,0,.05,0,.25.25,0,0,1,.1.17.74.74,0,0,1,0,.2,2.58,2.58,0,0,0,0,.38,1.06,1.06,0,0,1,0,.34l.12-.13a.36.36,0,0,0,.08-.17,1,1,0,0,1,.1-.2,1.17,1.17,0,0,1,.12-.21.44.44,0,0,1,.07-.19.66.66,0,0,1,.1-.17.83.83,0,0,1,0-.21,1.13,1.13,0,0,0,0-.22l.09,0s0,.16.06.36a1.33,1.33,0,0,0,.11.41,2.15,2.15,0,0,0,.35.43,1.22,1.22,0,0,0,.44.33l.18,0a.52.52,0,0,0,.15-.07s.06,0,.12,0,.08,0,.06,0a3.51,3.51,0,0,1,.41-.42,2.56,2.56,0,0,1,.46-.36.44.44,0,0,0,.08-.16c0-.09.06-.15,0-.17a.38.38,0,0,0,.09-.09l.09-.06s0,.15,0,.33a.55.55,0,0,0,.12.32.28.28,0,0,0,.06.08s0,0,0,0,0,0,0,0,0,0,0,0,.09-.15.17-.15h.07l0,0,.08,0h0a0,0,0,0,0,0,0l.06,0,.2.16H36a.3.3,0,0,0,.1-.15.9.9,0,0,0,0-.15l.38.14,1-.63c0-.2,0-.31,0-.51a.14.14,0,0,1,.1,0s.06,0,.06.05a1,1,0,0,1,.09.15.33.33,0,0,1,.06.15,1.38,1.38,0,0,1,.1.38,3.75,3.75,0,0,1,.06.39,1,1,0,0,1,.09.18.69.69,0,0,0,.09.15l0,0h.09l.06,0,.15-.05a.42.42,0,0,1,.18-.06s-.06,0-.1.12l-.09.15a1.86,1.86,0,0,1-.35.35l-.31.26a.41.41,0,0,1-.15,0l-.26.05-.26,0H37l-.3.16a1,1,0,0,0-.23.17,1.5,1.5,0,0,0-.09.2.41.41,0,0,0-.06.22,1.85,1.85,0,0,1-.16.24,28.08,28.08,0,0,0-.35.42c-.08.07-.14.11-.18.11l-.18.07c-.1,0-.15.08-.15.1s-.08,0-.16.15-.14.16-.16.16l-.28.08a1,1,0,0,0-.24.07l-.18.1a.25.25,0,0,1-.19,0s-.1,0-.18-.12a1.35,1.35,0,0,1-.15-.17l-1.59-.08-.2-.18c-.09-.08-.15-.12-.19-.12l-.07,0-.06,0s-.1.07-.19.2a2.11,2.11,0,0,1-.19.25h-.16l-.1,0c-.06,0-.09,0-.11,0l-.21-.17a1.31,1.31,0,0,0-.25-.16h0s0,0-.06,0a0,0,0,0,0,0,0l-.11,0c-.05,0-.07.05-.07.07a.35.35,0,0,0-.13.17.5.5,0,0,0-.07.16l-.1,0s0,0,0,0l-.05,0c0-.08,0-.22,0-.42a1.48,1.48,0,0,0-.08-.35s-.05,0-.08-.14a.85.85,0,0,1-.06-.17.35.35,0,0,1,0-.13.34.34,0,0,0,0-.13s-.05,0-.09-.06-.08,0-.1,0a1.25,1.25,0,0,1-.19.15c-.09.06-.15.11-.16.15s-.05.2-.1.42a1.89,1.89,0,0,0-.05.45.91.91,0,0,0-.27,0,.92.92,0,0,0-.26,0s-.06,0-.12.08a.26.26,0,0,1-.12.07s-.07,0-.14.08a.36.36,0,0,1-.17.08h-.06l-.07,0s0,0,0,0a.38.38,0,0,1-.08-.23.51.51,0,0,0-.06-.2l-.12,0H27.2l-.08,0h-.18s-.07,0-.14.09l-.23.19-.24.2a.37.37,0,0,1-.16.09,1.4,1.4,0,0,1-.22.16.69.69,0,0,1-.23.11.25.25,0,0,1-.19,0l-.16,0c0,.31,0,.47-.07.78l.59,0a.74.74,0,0,1,0,.23,1.22,1.22,0,0,1-.07.21l-.18.16-.19.13a1.84,1.84,0,0,0-.09.19.61.61,0,0,1-.09.16.12.12,0,0,0,0,.09.32.32,0,0,0,0,.14,1.77,1.77,0,0,1,0,.23.37.37,0,0,0,.07.14.67.67,0,0,0,.06.12s0,.1,0,.2,0,.2,0,.31,0,.23,0,.33,0,.17,0,.19l.5-.24-.06,1.21-.1.07a.12.12,0,0,0-.06.1,1.07,1.07,0,0,0-.15.37c-.06.2-.1.33-.11.39a.09.09,0,0,1-.07,0h-.09l-.17-.11a.36.36,0,0,0-.16-.08s-.05,0-.1-.13-.09-.14-.13-.15-.1,0-.17.13-.12.13-.14.13l-.07.06-.09.09-.11.14-.11.18v-.15l-.14,0a1.33,1.33,0,0,1-.26-.11l-.27-.12-.16-.06A1.06,1.06,0,0,1,23,886a1,1,0,0,1-.2-.27,2.55,2.55,0,0,1-.08-.31A2.84,2.84,0,0,1,22.62,885.08Zm-.81-5.6s-.06,0-.07,0,0,.1,0,.12.1,0,.11-.09S21.87,879.48,21.81,879.48Zm.32,7.27s.06,0,.06,0a.14.14,0,0,1-.06.1c-.05,0-.07,0-.07-.1S22.08,886.71,22.13,886.75Zm.2-2.18c.07,0,.12.08.11.18s-.06.14-.14.13-.15,0-.14-.16A.14.14,0,0,1,22.33,884.57Zm0-7.25c-.05,0-.11,0-.12.16s0,.19.09.16.07-.07.07-.14A.23.23,0,0,0,22.35,877.32Zm.21,8.65c.08,0,.12.06.1.17s-.08.18-.16.18a.16.16,0,0,1-.13-.2C22.4,886,22.47,886,22.56,886Zm-.19-15c.09,0,.14.08.12.18s-.08.14-.15.13-.11,0-.1-.16S22.3,871,22.37,871Zm1.08,10.3c-.08,0-.17.06-.25.23s-.08.26,0,.26a.25.25,0,0,0,.17-.08.61.61,0,0,0,.12-.16.33.33,0,0,0,0-.17C23.54,881.3,23.5,881.28,23.45,881.28Zm.11.83c-.07,0-.1,0-.1.13s0,.13.1.13.12,0,.12-.11A.14.14,0,0,0,23.56,882.11Zm1,4.58a.59.59,0,0,0-.06.14h-.16a.89.89,0,0,1,0-.14Zm.05-5.06.05-.41-.21,0C24.54,881.37,24.57,881.46,24.64,881.63Zm-.06-10,.22-.13.32-.24.29-.27a1.52,1.52,0,0,0,.19-.22s0-.06.1-.17a3.29,3.29,0,0,0,.09-.32v-.12s0,0-.12.08l-.18,0a.63.63,0,0,0-.18.17c-.09.1-.15.14-.19.12a.46.46,0,0,1-.23-.14.62.62,0,0,1-.2-.22,0,0,0,0,1,0,0v-.06a.26.26,0,0,1,0-.11.23.23,0,0,0,0-.09s0,0,.07-.1a.24.24,0,0,1,.1-.13.37.37,0,0,1,.17-.18.22.22,0,0,1,.15-.09.38.38,0,0,0,.14-.06s0,0,.1-.12l.1-.17.1-.24a.78.78,0,0,1,.09-.2.66.66,0,0,1,.17-.16,1,1,0,0,0,.2-.17l.15,0h.15l-.05.51s0,0,0,0h.05l.06,0a1.61,1.61,0,0,0,.26-.23l.25-.25,1.24.07s0,0,.08-.06.07-.06.09-.06a.6.6,0,0,1,.17-.07q.15,0,.15-.06s.07-.07.11-.15a.47.47,0,0,1,.08-.15s0-.05.08-.09l.09-.06.23,0,.27,0,.05-.09c0-.08.06-.12.08-.12a.31.31,0,0,1,.18,0,.34.34,0,0,1,.2.07.08.08,0,0,1,0,.08.09.09,0,0,0,0,.06,0,0,0,0,1,0,0l-.15.07-.16.06a.17.17,0,0,0-.1.07s0,.06,0,.08a.49.49,0,0,0,0,.12l.13,0,.13,0a.61.61,0,0,1,.16-.09l.16-.07.11,0,.15,0a.7.7,0,0,0,.24,0l.12.11a.22.22,0,0,0,.15.08.32.32,0,0,0,.17-.07l.17-.09.15,0c.08,0,.13,0,.15,0l.48-.21.52-.22s0,.08.09.12a.29.29,0,0,0,.15.06.51.51,0,0,0,.19-.08l.18-.09a.09.09,0,0,0,.06,0h.24l.15-.08.16-.05.09.05.1.08a1.36,1.36,0,0,1,0,.16V868a.81.81,0,0,0,.13.19h.15a.37.37,0,0,1,.15-.11l.13-.06a.87.87,0,0,0,.11-.22.79.79,0,0,1,.12-.23,0,0,0,0,0,0,0,.07.07,0,0,1,0-.06l.06-.06h.35a.1.1,0,0,0,.08,0s.06-.06,0-.1h1.88l-.17.25a.46.46,0,0,0-.12.21.37.37,0,0,1,0,.09.05.05,0,0,0,0,0,.05.05,0,0,1,0,0,.73.73,0,0,0,.18.24l.31.34.32.31.23.2a.75.75,0,0,0,.35.08,2.2,2.2,0,0,1,.34.06s0,0,.06.07a.15.15,0,0,0,0,.09.69.69,0,0,1,.09.18q.06.15.09.15a.25.25,0,0,0,.12,0h.5a.91.91,0,0,0,.37-.06l.27-.12s0-.1,0-.23,0-.21,0-.23,0-.12.08-.23a.65.65,0,0,1,.09-.19l.16.1c0,.65,0,1,0,1.64l-.25,0a.91.91,0,0,1-.27-.09.6.6,0,0,1-.23-.12,1,1,0,0,0-.24-.15l-.06,0-.06,0h0s0,0-.11.11l-.1.17h-.77l-.15,0-.14.09s0,0-.08.09l-.11.1s0,0-.06,0h-.09v-.37l-.23.23a1.37,1.37,0,0,1-.24.21,2.54,2.54,0,0,0-.11.26.73.73,0,0,0-.06.22l-.54,0H34.5l-.35,0-.58,0-.58.05a2.51,2.51,0,0,1-.39,0,.17.17,0,0,0-.06-.11s-.07-.06-.07-.08h0a.06.06,0,0,1-.07,0h-.09a.61.61,0,0,1-.15.1c-.09,0-.13.08-.13.09l-.3.08a.88.88,0,0,1-.2,0l-.33,0a1,1,0,0,0-.33,0,.46.46,0,0,0-.25,0,.72.72,0,0,0-.22.09,5.17,5.17,0,0,1-.62.07l-.63,0a.76.76,0,0,1-.22,0l-.36,0a2.22,2.22,0,0,0-.36,0H28l-.42,0-.38,0h-.33l-.49,0-.48,0a2.16,2.16,0,0,0-.31,0l-.1.16a.32.32,0,0,0-.07.13l0,.14-.09.11a.14.14,0,0,1-.11.07s-.07,0-.13-.14-.1-.18-.12-.2l-.17-.09Zm.87,3.8a1,1,0,0,0,0-.17l-.18,0Zm.5,10.88s0,.09,0,.09-.07,0-.12-.09,0,0,.1-.06S26,886.25,26,886.28Zm-.15-16.55H26c0-.06,0-.1,0-.17h-.18Zm1.34,9.9s.05,0,.09-.06a.17.17,0,0,0,.06-.11s0,0,.06-.06,0-.07,0-.09-.05,0-.11,0a.19.19,0,0,0-.1.05.17.17,0,0,0-.12.06l-.06,0A1.46,1.46,0,0,0,27.14,879.63Zm.38-.58h.15v-.14h-.16A.76.76,0,0,1,27.52,879.05Zm1.41-10.73c-.09,0-.15,0-.16.14s.05.18.14.18.12-.06.13-.16S29,868.33,28.93,868.32Zm.29.62a.87.87,0,0,0,0,.46c0,.21.06.32.12.32a2.1,2.1,0,0,1,.09-.25.54.54,0,0,1,.12-.22.35.35,0,0,1,.22-.09.81.81,0,0,0,.25,0v-.06l0-.06v0a.68.68,0,0,0,0-.17c0-.07-.06-.11-.08-.11h0a.07.07,0,0,1-.06,0h-.06a2.19,2.19,0,0,1-.29.16C29.29,868.88,29.22,868.92,29.22,868.94Zm.87,8.24.15,0c0-.08,0-.13,0-.21Zm0-.66s0,.05.06.1.08.07.1.07l.17-.16-.16-.13a.24.24,0,0,1-.18,0A1,1,0,0,0,30.12,876.52Zm.73,1.75c-.1,0-.16,0-.16.14a.15.15,0,0,0,.14.18c.08,0,.13-.06.13-.17S30.92,878.27,30.85,878.27ZM30.28,869l.2.33a.19.19,0,0,1,.05-.09l.08-.09v-.08l0-.06a.58.58,0,0,1-.1-.13.19.19,0,0,1,0-.15s0-.05-.09-.1l-.12-.09a.76.76,0,0,1,0,.14c0,.06,0,.1,0,.12A1.34,1.34,0,0,1,30.28,869Zm1.33,10.23a.45.45,0,0,0,0,.08s0,.07,0,.09,0,0,.06.07l.1.06c0-.12,0-.19,0-.31Zm.41-.92h.19c0-.1,0-.15,0-.26Zm.4,1.1c-.07,0-.12.06-.11.15a.13.13,0,0,0,.13.14c.08,0,.13,0,.13-.13A.14.14,0,0,0,32.42,879.39Zm-.16-11.88-.35.14v-.14s0-.06.09-.11.1-.07.14,0Zm.29,8.33a.15.15,0,0,1,.15.17.16.16,0,0,1-.16.18c-.07,0-.12-.08-.12-.2S32.48,875.84,32.55,875.84Zm-.16-7.53.17-.18-.18,0A1.34,1.34,0,0,1,32.39,868.31Zm.92,10.8h.15l0-.12h-.15Zm1-.3c0-.1,0-.15,0-.26l-.14.13Zm1.16.21a.32.32,0,0,0-.19,0c-.08,0-.13.06-.14.1a1.7,1.7,0,0,1,0,.25c0,.13-.06.21-.07.25l.31,0a.23.23,0,0,1,.09-.07s0,0,0-.06,0-.06,0-.13a.66.66,0,0,0,0-.13s0,0,0,0V879Zm-.33-.67q-.09,0-.09.18c0,.12,0,.17.09.17a.15.15,0,0,0,.15-.17A.15.15,0,0,0,35.11,878.35Zm.55-.15a.16.16,0,0,0-.16.18c0,.12.06.16.15.16s.16,0,.16-.15S35.75,878.2,35.66,878.2Zm.31-.32s-.06,0-.07.08,0,.1.06.1.09,0,.1-.07S36,877.92,36,877.88Zm.68-.48-.08,0-.07,0-.11.08s-.07.06-.07.08a.25.25,0,0,0,0,.16.85.85,0,0,1,0,.13h.37Zm-.8-9.33v-.35l-.14.16C35.77,868,35.79,868,35.85,868.07Zm.63-.48a.17.17,0,0,0-.1,0l-.09.08a.39.39,0,0,0,0,.14.66.66,0,0,0,0,.2c0,.13,0,.19,0,.32l.1-.08.1-.08.1-.18.08-.15v-.17S36.58,867.63,36.48,867.59ZM38.31,877a.1.1,0,0,1,.07.07s0,.06-.06.08a.11.11,0,0,1-.13-.08C38.19,877,38.23,877,38.31,877Zm.36-.78s.09.07.09.18,0,.14-.09.14-.16,0-.16-.15S38.58,876.21,38.67,876.22Zm-.16-7.69h-.18l.2-.13C38.52,868.44,38.52,868.47,38.51,868.53Zm1,0s0,0,.08-.1a.18.18,0,0,1,.08-.06c0,.18,0,.28,0,.46l-.07-.05a.19.19,0,0,1-.07-.11v-.14Zm.66-.47c.07,0,.12,0,.12.15a.15.15,0,0,1-.15.17c-.05,0-.09-.07-.09-.18S40.05,868.06,40.12,868.06Z" style="fill:#c9c9c9"/><path d="M52.57,884.27l-.3.18-.05-.36a.35.35,0,0,0-.17.06.43.43,0,0,1-.17.07s-.05,0-.08-.12-.06-.13-.09-.14h-.19l-.16.09-.17.11-.12,0-.16,0s0,0-.09.07l-.08.1a1.55,1.55,0,0,1,0,.15.09.09,0,0,0,0,.05l0,0a.13.13,0,0,0,0,.07l-.31,0-.32.06-.4,0-.3,0-.36-.14a1.23,1.23,0,0,1-.37-.2l.06.43-.94,0,0-.43-.08,0-.1-.07h-.19a1,1,0,0,0-.25.11l-.21.09a.38.38,0,0,0-.09.15c-.05.09-.07.14-.06.16l-.06.1-.05.06h-.19l-.17,0-.1-.05a.11.11,0,0,0-.07,0h-.16a1.08,1.08,0,0,0-.22.17c-.13.11-.21.17-.25.17l-.16,0-.16,0-.41-.08a2.17,2.17,0,0,1-.45-.11,1.36,1.36,0,0,1,0-.2c0-.09,0-.14,0-.23l0,0,.06-.06s0-.05.09-.07l0-.17,0-.15a.27.27,0,0,1-.12-.06l-.09-.06a.42.42,0,0,0-.16,0h-.19a1.62,1.62,0,0,1,0-.25.39.39,0,0,1,0-.27.71.71,0,0,1,0-.21,1.9,1.9,0,0,0,0-.34v-.49l0-.21c0-.13,0-.26,0-.39s0-.26,0-.37a1.88,1.88,0,0,0,0-.23,3.2,3.2,0,0,1,0-.36,3.32,3.32,0,0,0,0-.4,3.3,3.3,0,0,1,0-.4c0-.23,0-.42,0-.57s0-.07,0-.16,0-.17,0-.27a2.74,2.74,0,0,1,0-.28l0-.2a.54.54,0,0,1-.17-.13l-.14-.13a.07.07,0,0,1,0,0,.1.1,0,0,1,0-.08.14.14,0,0,1,0-.12.07.07,0,0,1,0-.06.6.6,0,0,0,.06-.22c0-.13,0-.21,0-.25v-.12s0-.06-.15-.08a.53.53,0,0,0-.2,0l-.25.6h-.15s0,0-.07-.07-.07,0-.07-.06a.71.71,0,0,1-.19,0c-.11,0-.16-.07-.16-.09l0-.2c0-.09,0-.13,0-.22a1,1,0,0,1,.12-.23,2.28,2.28,0,0,1,.17-.27s0-.06.12-.14.13-.12.13-.14a1,1,0,0,1,.09-.19.69.69,0,0,1,.09-.15.07.07,0,0,1,0-.06s0,0,0-.07c-.06-.48-.08-.71-.14-1.19,0-.06.06-.22.14-.48a2.6,2.6,0,0,0,.1-.48.09.09,0,0,1,0,0,.13.13,0,0,0,0-.06,1,1,0,0,0-.16-.28,1.41,1.41,0,0,0-.23-.28,1.64,1.64,0,0,0-.07-.21.82.82,0,0,1-.07-.21,1,1,0,0,0-.06-.24c0-.12-.07-.25-.11-.39a3.71,3.71,0,0,1-.12-.41,1.08,1.08,0,0,1-.06-.28,2.3,2.3,0,0,1,0-.26l0-.17.12-.13a2,2,0,0,0,.19-.21l.17-.2c.05-.07.08-.11.08-.13a.27.27,0,0,0,0-.14c0-.08,0-.13,0-.14s.1.11.24.16a.9.9,0,0,0,.26.07s.07,0,.14-.12a.8.8,0,0,0,.15-.2,1.16,1.16,0,0,0,.06-.15.31.31,0,0,0,0-.15.29.29,0,0,0,.06.15c0,.06.08.11.12.12a.25.25,0,0,0,.2-.07.34.34,0,0,1,.17-.09s0-.14,0-.31a.92.92,0,0,0,0-.36,1.67,1.67,0,0,0-.15-.25.83.83,0,0,0-.21-.28v-.12l.06-.24a1,1,0,0,1,.06-.23.93.93,0,0,0,0-.31,1.72,1.72,0,0,0,0-.34l.17-.1c0-.06,0-.14,0-.25a1.52,1.52,0,0,0,0-.22l.18,0v.11a0,0,0,0,0,0,0,.34.34,0,0,1,.12.16c0,.07.06.12.07.14a1,1,0,0,1,.3.07,1.84,1.84,0,0,1,.34.14h.06l.12,0,.13-.11.22-.18.2-.15c.06,0,.09-.08.09-.1a.54.54,0,0,0,.17-.1l.13-.09h.15l.27.12a.77.77,0,0,1,.21.13s.08,0,.12.11a.33.33,0,0,0,.12.15.51.51,0,0,0,.14.08.38.38,0,0,0,.17,0s.08-.06.13-.16l0-.29a.35.35,0,0,1,0-.18.54.54,0,0,0,0-.15l.09,0,.09,0,.26.19c.13.1.22.15.26.14l.06,0,.05,0,.14-.07a.43.43,0,0,1,.17-.06.52.52,0,0,1,.22-.14.48.48,0,0,0,.19-.1l.15,0,.17,0-.13.18a.32.32,0,0,1-.15.13s0,0,0,0a.05.05,0,0,0,0,.05l.21,0q.15,0,.18,0s.09,0,.15-.09l.14-.15h0s0,0,.05,0l0-.06a1.6,1.6,0,0,0,0-.25.57.57,0,0,1,0-.23l0,0H50s0,0,.07,0a.29.29,0,0,0,.07.08,1.54,1.54,0,0,1,.24-.36l.28-.3s0,0,.08,0l.15,0H51c.06,0,.09,0,.09,0s.11,0,.21.17a1.47,1.47,0,0,0,.18.2l.25.2.26.19a1,1,0,0,0,.09-.18.26.26,0,0,0,0-.16s0,0-.07-.08a.21.21,0,0,0-.12,0s0,0,.06-.08a.21.21,0,0,0,.08-.11h.06l.09,0s.1.06.23.07a.72.72,0,0,1,.26,0l.11,0,.18,0a.14.14,0,0,0,.06-.07.69.69,0,0,0,.05-.13h.12L54,866l1-.7.53,1.75-.66.52s0,.09-.07.22l-.15.26a0,0,0,0,1,0,0h-.11s0,0,0,0a.41.41,0,0,0-.16-.05h-.18l-.1.14,0,.13c0,.08,0,.13,0,.15a.15.15,0,0,1,0,.12c0,.05-.06.07-.08.07l-.14,0-.18.05h-.33l-.15-.12-.16-.12-.39-.12-.27-.06s-.1.08-.19.22a1.14,1.14,0,0,1-.19.25H51.8a1.22,1.22,0,0,1-.27.12l-.47.17-.47.18a1.44,1.44,0,0,1-.28.08l-.44.07a.36.36,0,0,0-.14.09c-.07.06-.11.09-.13.09a.73.73,0,0,1-.22.08l-.33.09-.34.09-.19,0-.13.05-.22.09-.25.09-.14,0a.48.48,0,0,1-.19,0l-.27,0-.3-.07a.44.44,0,0,1-.17-.06c0-.23-.05-.34-.08-.57a.11.11,0,0,0-.07-.09l-.1-.06s0,0-.07,0a.18.18,0,0,1-.1,0c0,.37.07.55.12.91l-.3,0a.81.81,0,0,1-.3,0l-.1,0a.11.11,0,0,1-.07-.08c0,.13-.06.2-.11.33l-2,.25-.14.07a.13.13,0,0,1-.09,0,.07.07,0,0,0,0,0s0,.08,0,.14l0,.17.1.06.07.07.26,0H44c0,.25,0,.38.08.63,0,0,0,0,0,0h.15l.16-.09.12-.08.12,0h0l.13.05.07.07c0,.29,0,.44.09.74l.15,0c.09,0,.14.05.16.09v.11c0,.06,0,.17-.07.34a1.68,1.68,0,0,0,0,.31s0,0,.09.1l.12.13a.2.2,0,0,0,.09.09l.08.07v.05a.28.28,0,0,0,0,.09l-.16.16c-.1.09-.14.15-.13.19,0,.23,0,.34.07.57a1,1,0,0,1-.12.22,1.51,1.51,0,0,0-.13.25l0,.17a.41.41,0,0,0,0,.11l.29-.15a.52.52,0,0,0,.09.21.74.74,0,0,0,.14.2l.13,0,.21,0,.3-.09a1.06,1.06,0,0,0,.29-.11.14.14,0,0,1,0-.1,1.09,1.09,0,0,1,.06-.11.64.64,0,0,0,.1-.16,1.16,1.16,0,0,1,.07-.15l.06.09s.07.06.09.06l.48-.06.07.05.07,0H48s0,0,0,0,.1-.05.17-.15a.6.6,0,0,1,.16-.18l.06,0,.06,0,.27.13c.13.06.21.1.23.09s.08,0,.16,0l.17,0,.11.14a.42.42,0,0,1,.09.15l1.27-.19s0,0,.07-.14a.7.7,0,0,0,0-.19l-.09-.57.07.07a.17.17,0,0,0,.11,0l.26.13.24.11.1.06.09,0a1.39,1.39,0,0,0,.1.23.59.59,0,0,0,.13.2s0,0,.13,0a.66.66,0,0,1,.2.07v.14a.17.17,0,0,0-.07.06l-.06.08a.35.35,0,0,0,0,.18c0,.1,0,.15-.06.16a.14.14,0,0,1-.14,0l-.12,0a.42.42,0,0,1,0,.19.38.38,0,0,0,0,.22l.18.1a.6.6,0,0,0,.2.1l-.15.13a.43.43,0,0,1-.16.1.48.48,0,0,1-.21,0l-.25,0a.36.36,0,0,0-.14.09A.44.44,0,0,1,51,877l-.64.1a1.59,1.59,0,0,0-.3.1l-.32.13-.28.16-.46.25-.47.26a1.2,1.2,0,0,0-.25.14,1,1,0,0,1-.32.12,1.38,1.38,0,0,0-.33.12c-.09,0-.27.1-.49.21l-.4.19a.47.47,0,0,0-.17.2s0,.06,0,.18a.6.6,0,0,1,0,.23,1.27,1.27,0,0,1,0,.31,1.43,1.43,0,0,1-.07.31l-.08.1s-.06.08-.05.09a.34.34,0,0,0,0,.15c0,.08,0,.12,0,.2a.54.54,0,0,0,0,.18,1,1,0,0,1,0,.19.31.31,0,0,1,.18,0l.19.07.52.36.13,0,.09,0,.06,0s.05,0,.1-.07.08-.07.1-.07h.13l.21.06.39.13.38.14.25.08a.49.49,0,0,0,.17,0c.08,0,.13.05.14.09s.09.07.15.19a1.36,1.36,0,0,1,.1.24.85.85,0,0,1,.11-.21c.06-.09.1-.14.13-.15a.84.84,0,0,1,.34,0,1.29,1.29,0,0,0,.29,0,1.91,1.91,0,0,1,0-.21l-.22-.14-.27-.11a.74.74,0,0,0-.26-.08.4.4,0,0,1,.13-.15.36.36,0,0,1,.18-.09s.08,0,.17.06l.2.09h.07l.09,0,.19-.11a.84.84,0,0,0,.19-.14c0,.21,0,.32.08.54l.1,0a.15.15,0,0,0,.16,0,1.36,1.36,0,0,0,.11-.19c.06-.1.11-.16.15-.16l.16,0,.16,0a.1.1,0,0,1,.1,0,.29.29,0,0,0,.07.08l-.06.08a.67.67,0,0,0-.07.11l-.07.14c0,.07,0,.12,0,.14a1.38,1.38,0,0,0,0,.2V882l.18.12h.16l.08-.1.08-.07a.77.77,0,0,0,0-.31,1.14,1.14,0,0,1,0-.28.44.44,0,0,1,.17-.13q.15-.06.15-.09s0-.13.05-.27a1.21,1.21,0,0,0,0-.27l1.43-.23.28-.42,1.31-.22a.69.69,0,0,0,.06.21.49.49,0,0,0,.13.2.66.66,0,0,0,.25.11l.27.12.35-.06s0,0,.08,0a.46.46,0,0,0,.1.07s0,.07,0,.17,0,.15,0,.14h.24l.25,0a1.87,1.87,0,0,1,.15.28,2.17,2.17,0,0,0,.14.28.67.67,0,0,0,.17.13l.2.13.13-.17a1.17,1.17,0,0,1-.21-.2A1,1,0,0,0,58,881v-.11a3.14,3.14,0,0,0,0-.48.73.73,0,0,1,0-.32l.12-.19.13-.18a.33.33,0,0,1,.12-.06l.15,0s0,.08.06.17a1.2,1.2,0,0,1,.07.19s0,0,.06.06l.09.06.09,0,.13,0c0-.09.08-.21.15-.38a2.64,2.64,0,0,1,.23-.42c.07-.12.14-.15.19-.11s0,.22,0,.54l.17.87c.12-.16.22-.23.29-.23s.13.06.15.16a1,1,0,0,1-.05.42,2.27,2.27,0,0,1-.23.5c0,.06,0,.16,0,.31a.48.48,0,0,1-.06.29,1.19,1.19,0,0,1-.1.2c-.06.08-.13.18-.21.27a2.35,2.35,0,0,0-.22.26l-.12.15,0,.14.35-.06c-.1.26-.15.39-.24.65l-1.33.24a.41.41,0,0,0-.18-.15.65.65,0,0,0-.19-.1l-.64.11s-.11,0-.21-.11-.16-.12-.18-.11l-.16,0c.05.26.07.39.11.65l-.32,0-.39,0a2.19,2.19,0,0,1-.44-.05l-.56-.1a.16.16,0,0,1-.09,0l-.06-.08s0,0,0-.13a1.26,1.26,0,0,1,0-.16s-.09-.09-.25-.1a.35.35,0,0,1-.17,0l-.13,0-.1,0h-.09a2.16,2.16,0,0,1,0,.31,2.6,2.6,0,0,1-.05.28.31.31,0,0,0,0,.1.14.14,0,0,1-.06.07l-.34.22a2.27,2.27,0,0,1-.28.19.56.56,0,0,1-.11-.13,1.88,1.88,0,0,1-.12-.15l-.08-.06a.19.19,0,0,0-.07-.06l-.13,0ZM41.71,869.86s0-.12.09-.24a.59.59,0,0,1,.15-.22s.09.12.14.27a.69.69,0,0,0,.14.3c0,.07,0,.11,0,.17a.51.51,0,0,1-.24,0,.66.66,0,0,1-.19-.12C41.75,869.92,41.71,869.88,41.71,869.86Zm.77-1.1a.17.17,0,0,1,0-.12.51.51,0,0,0,0-.09,2.08,2.08,0,0,0,.31.2l.32.19a1.52,1.52,0,0,1,.12.21.63.63,0,0,1,.08.21l0,.22h-.12a0,0,0,0,1,0,0,.26.26,0,0,0-.06-.08l-.08-.1s-.06,0-.12-.11l-.12-.13s-.05-.06-.15-.14-.15-.12-.15-.14a0,0,0,0,1,0,0A.09.09,0,0,1,42.48,868.76Zm2.12,13.75s0-.08-.11-.07-.12,0-.11.1a.09.09,0,0,0,.11,0A.12.12,0,0,0,44.6,882.51Zm.55,2.31A.13.13,0,0,0,45,885c0,.09.06.14.14.13s.12-.06.11-.16S45.23,884.81,45.15,884.82Zm-.45-10.68c-.08,0-.11.07-.1.17s.06.16.14.15.12-.07.1-.18S44.78,874.13,44.7,874.14Zm.68-6a1.1,1.1,0,0,1,0-.18l-.18,0Zm0,1.19.08-.1a.42.42,0,0,0,.07-.13V869l0-.14-.1-.06a.45.45,0,0,1-.1-.09C45.3,868.94,45.32,869.07,45.35,869.32Zm.43-2.93s.06,0,.06.05a.1.1,0,0,1,0,.1c-.08,0-.12,0-.13,0S45.7,866.4,45.78,866.39Zm.57,1c-.1,0-.14.06-.13.15s.07.12.17.11.11-.06.1-.15S46.43,867.38,46.35,867.39Zm4.36,14.33c-.08,0-.12.07-.1.18s.06.15.15.14.08-.07.07-.17S50.77,881.71,50.71,881.72Zm-.64-5.3.18,0c0-.1,0-.15,0-.26l-.19,0A2,2,0,0,1,50.07,876.42Zm.45-9.83a.15.15,0,0,0,.08.1.26.26,0,0,0,.1.07.65.65,0,0,0,.11-.22s0-.06,0-.11v-.09a.13.13,0,0,0,0-.06l-.17,0-.08.09a.09.09,0,0,0,0,.1v.09Zm1.78,9.49a.15.15,0,0,1,.18.13c0,.11,0,.17-.13.18s-.13,0-.15-.13S52.22,876.09,52.3,876.08ZM52,874.64a1.14,1.14,0,0,0,0-.15.81.81,0,0,0,0-.17,2.93,2.93,0,0,1,.38.16l.33.17a2.13,2.13,0,0,1,.14.34,2.38,2.38,0,0,1,.12.34h-.23a.8.8,0,0,1-.27,0,.61.61,0,0,1-.1-.15.81.81,0,0,1-.07-.14l-.1,0c-.06,0-.1,0-.1,0a.73.73,0,0,0,0-.16C52.06,874.73,52.05,874.68,52,874.64Zm-.66-6.21a0,0,0,0,0,0,0s0,0,.07,0l.09,0a.36.36,0,0,0,.1-.15.34.34,0,0,0,0-.19.14.14,0,0,0-.19-.09l0,0a.05.05,0,0,0,0,0l0,.07v.17Zm.19-2s0,0-.08,0-.09,0-.07.07,0,.08.07.07S51.55,866.48,51.57,866.42ZM52.91,874l-.12,0,0-.15Zm-.85-5.28a.13.13,0,0,1,.17.13q0,.17-.12.18c-.06,0-.1,0-.11-.14S52,868.77,52.06,868.76Zm1.2,5.36c.05,0,.07,0,.07.06s0,.06,0,.09-.06,0-.08-.07S53.22,874.11,53.26,874.12Zm.12.74a.21.21,0,0,1,.09.15.17.17,0,0,1,0,.16s-.06,0-.08-.14S53.35,874.85,53.38,874.86Zm-1-8.66c-.06,0-.08.06-.07.15s0,.14.11.13.14-.07.12-.16A.12.12,0,0,0,52.43,866.2ZM54.08,874s.07,0,.09.15,0,.15,0,.16a.14.14,0,0,1-.18-.13A.15.15,0,0,1,54.08,874Zm1.65,9.92.16,0a.2.2,0,0,0-.09-.13l-.12-.12Zm1.39-2.48s0,0,.07-.09,0-.08.06-.08v0s0,0,0,0,0,0,0,0v-.06l-.19,0Zm.41,1.44c-.08,0-.11.07-.1.16s.07.14.15.12.12-.06.1-.16A.12.12,0,0,0,57.53,882.87Zm-.22-3.11a.07.07,0,0,1,0,.11s-.09,0-.16,0-.06,0,0-.1S57.28,879.73,57.31,879.76ZM55,867.65a1.41,1.41,0,0,0,.28-.24,1.07,1.07,0,0,0,.23-.29.11.11,0,0,0,.09-.07l.06-.1a.33.33,0,0,0,.08-.17,1.49,1.49,0,0,0,0-.17l-.22-.22-.16-.21a.24.24,0,0,1-.06-.19c-.25.16-.31.17-.18,0a3.36,3.36,0,0,1,.57-.5l-.5-.11s0,0,.14-.08l.15-.12a.83.83,0,0,1,.09-.25,1.94,1.94,0,0,1,.13-.23.42.42,0,0,1,0-.16v-.16l.43-.08,0,.11c0,.05,0,.13-.07.25a.63.63,0,0,0-.05.24c0,.08.09.12.24.14h0l.09,0,.06-.08a.37.37,0,0,0,0-.11,1.38,1.38,0,0,0,.06-.16.31.31,0,0,0,0-.12l.11.09a.53.53,0,0,1,.11.13c0,.08.07.16.15.15a1,1,0,0,0,.23-.13.61.61,0,0,1,.2-.13.54.54,0,0,0,.09.16.44.44,0,0,0,.11.12l.15,0,.11,0a2,2,0,0,0,.3-.23,1,1,0,0,1,.28-.2l.5.12a2.27,2.27,0,0,1,.48.15l-.75.15a2.78,2.78,0,0,1,0,.3c0,.14,0,.29.05.44s0,.3,0,.44,0,.23,0,.29a.37.37,0,0,0,0,.17.34.34,0,0,1-.07.17.14.14,0,0,0-.08-.06.11.11,0,0,1-.07-.09s-.05-.08-.06-.2,0-.21,0-.25-.07-.09-.14-.23a2.43,2.43,0,0,1-.11-.27l-.13-.17a.27.27,0,0,0-.14-.13h-.09a1.26,1.26,0,0,0,0,.26.46.46,0,0,1-.07.23,1.71,1.71,0,0,1-.17.28c-.1.15-.16.22-.18.22l0,.29c0,.13,0,.2.07.34l.09.07a.12.12,0,0,0,.08,0,.54.54,0,0,1-.12.18l-.14.19-.09,0h0a1,1,0,0,0-.19-.14l-.19-.11-.14.07c-.07,0-.1.08-.1.09a1.53,1.53,0,0,0-.13.28,1.67,1.67,0,0,0-.1.26l-.09,0-.09,0s0,0-.09-.08-.07-.07-.09-.07a.87.87,0,0,0-.31.06.64.64,0,0,1-.27,0h-.15a.47.47,0,0,1-.2-.06l-.1-.07A.19.19,0,0,1,55,867.65Zm.06-1.35s0,0,0,.11,0,.08.07.06.08-.06.08-.1S55.14,866.31,55.07,866.3Zm2.7,13.38a.16.16,0,1,1,.06.31c-.06,0-.1,0-.12-.14S57.71,879.69,57.77,879.68Zm-1.72-13.12a.24.24,0,0,0,.09.08l.12.09c0-.05.05-.15.1-.31s.08-.29.11-.38v-.11l-.12,0-.11,0-.08.3a1.85,1.85,0,0,1-.1.34v.09Zm2.85,14.55.1-.17-.15-.11Zm.47-.09.13-.17-.24.25Zm.78,1.38c.06,0,.1,0,.12.12s0,.15-.07.16a.13.13,0,0,1-.18-.11C60,882.47,60,882.42,60.15,882.4Zm.13-2.75a.46.46,0,0,0-.11-.12.5.5,0,0,1-.11-.16.52.52,0,0,1-.09-.22l-.06-.22.33,0,.33,0,.16-.08c.07,0,.1,0,.11,0q.18.29,0,.42c-.14.09-.23.12-.25.11s0,.05,0,.09l.05.1.38.11a1.5,1.5,0,0,1,.27.07l.15.08-.2.15L61,880v.06a1.36,1.36,0,0,1-.07.22c0,.08-.07.13-.09.13a.74.74,0,0,1-.25,0l-.21,0C60.36,880.11,60.33,880,60.28,879.65Zm-2.42-13.43c.09,0,.15,0,.17.13a.13.13,0,0,1-.11.18c-.08,0-.13,0-.15-.13S57.78,866.24,57.86,866.22Zm.18-.47c.09,0,.15,0,.17.14s0,.18-.11.2S58,866,58,865.93,58,865.76,58,865.75Zm3.77,12.37a.51.51,0,0,0,0,.09.57.57,0,0,1,0,.12.56.56,0,0,0,0,.12s0,0,0,.09,0,0,0,.06a.63.63,0,0,1,0,.13c0,.07,0,.14,0,.23a2,2,0,0,1,0,.24.7.7,0,0,1,0,.14.67.67,0,0,1-.12.2.66.66,0,0,1-.16.17,1,1,0,0,0-.1-.25c0-.12-.12-.24-.19-.38s-.13-.25-.18-.37a1,1,0,0,0-.13-.22c0-.08,0-.12,0-.2Z" style="fill:#c9c9c9"/><path d="M73.63,880l-.28.22c0-.14,0-.22-.09-.36l-.16.08a.54.54,0,0,1-.16.09s0,0-.1-.11a.55.55,0,0,0-.09-.14l-.1,0-.09,0a.56.56,0,0,0-.16.1.89.89,0,0,0-.15.12l-.13,0-.15,0a.19.19,0,0,0-.08.08l-.08.11a.61.61,0,0,1,0,.15s0,0,0,0a.09.09,0,0,1,0,0s0,.05,0,.07l-.31.09-.31.09-.4.08-.3.05-.37-.1a1.28,1.28,0,0,1-.39-.16l.1.42-.94.07-.1-.42-.07,0-.11-.06-.1,0-.09,0a1,1,0,0,0-.24.13l-.2.12s-.05,0-.08.15,0,.15,0,.17l0,.1,0,.07-.09,0-.1,0-.17,0-.1,0h-.13l-.1,0a1.07,1.07,0,0,0-.2.2.89.89,0,0,1-.24.2l-.16,0-.15,0-.42,0a3,3,0,0,1-.46-.06,1.42,1.42,0,0,1,0-.2l0-.22,0,0,0-.07a.35.35,0,0,1,.09-.07,1,1,0,0,1,0-.17l0-.14a.33.33,0,0,1-.12,0l-.1-.05s-.08,0-.16,0l-.19,0s0-.12-.06-.25a.41.41,0,0,1,0-.26,1.16,1.16,0,0,1,0-.22c0-.11,0-.22,0-.33s0-.22,0-.32a.92.92,0,0,0,0-.17s0-.09,0-.21-.06-.25-.08-.38-.06-.26-.08-.37,0-.19,0-.22a2,2,0,0,1,0-.37,2.46,2.46,0,0,0,0-.4s0-.17-.07-.39-.07-.42-.1-.57l0-.15c0-.09,0-.17-.07-.27a2.68,2.68,0,0,1-.07-.27c0-.1,0-.16,0-.2a.65.65,0,0,1-.18-.11l-.15-.11s0,0,0-.05a.11.11,0,0,1-.05-.08c0-.06,0-.1,0-.12a.07.07,0,0,1,0-.06.5.5,0,0,0,0-.23,1,1,0,0,0,0-.25l0-.08v0s-.06-.06-.16-.07h-.21l-.18.63h0l-.12,0a.14.14,0,0,0-.08-.06.14.14,0,0,1-.08-.06.42.42,0,0,1-.19,0c-.11,0-.17,0-.17-.07l0-.19-.05-.23s0-.1.09-.24l.15-.28s0-.07.11-.15.11-.14.11-.16a1.2,1.2,0,0,1,.07-.19,1.65,1.65,0,0,1,.07-.16s0,0,0-.07a.09.09,0,0,0,0-.06l-.25-1.18c0-.06,0-.23.09-.49a2.54,2.54,0,0,0,0-.48v-.06l0-.06a.94.94,0,0,0-.19-.26,1.49,1.49,0,0,0-.26-.26.57.57,0,0,0-.09-.2.53.53,0,0,1-.08-.2s0-.12-.08-.23-.1-.25-.16-.38-.11-.26-.16-.39a1.66,1.66,0,0,1-.09-.28l0-.25,0-.17.11-.14a2.29,2.29,0,0,0,.17-.23l.15-.22c0-.07.07-.11.06-.13s0-.07,0-.15,0-.12-.06-.13a.51.51,0,0,0,.26.14.92.92,0,0,0,.27,0s.06,0,.13-.13a.89.89,0,0,0,.13-.22l0-.16a.4.4,0,0,0,0-.15.37.37,0,0,0,.08.15.19.19,0,0,0,.13.1.25.25,0,0,0,.19-.08.37.37,0,0,1,.16-.11s0-.14,0-.31a1.17,1.17,0,0,0-.06-.35,1.57,1.57,0,0,0-.18-.24,1.28,1.28,0,0,0-.24-.26v-.11s0-.12,0-.24a.9.9,0,0,1,0-.25,1.34,1.34,0,0,0,0-.31,2.6,2.6,0,0,0,0-.33l.16-.12a1,1,0,0,0,0-.25c0-.11,0-.18,0-.22l.17,0v.11s0,0,0,0a.46.46,0,0,1,.14.14.57.57,0,0,1,.07.13,1,1,0,0,1,.31.05,2.61,2.61,0,0,1,.36.1l.06,0,.11,0,.12-.13.2-.2.19-.17c.06-.06.08-.09.08-.11a.5.5,0,0,0,.16-.11c.06-.06.1-.1.12-.1l.09,0,.06,0,.28.1a.61.61,0,0,1,.22.11s.08,0,.13.1a.31.31,0,0,0,.14.13.3.3,0,0,0,.15.07h.17s.07-.07.11-.17l-.07-.28a.42.42,0,0,1,0-.18.37.37,0,0,0,0-.16l.08,0h.09l.29.17c.14.08.23.12.27.11h.06l0,0,.14-.07a.54.54,0,0,1,.16-.09.6.6,0,0,1,.2-.15l.19-.12.14,0,.17,0-.12.19c0,.08-.09.13-.13.14s0,0,0,.05l0,0h.22c.1,0,.17,0,.18,0a.38.38,0,0,0,.14-.11,1.29,1.29,0,0,0,.13-.17h0a.05.05,0,0,0,0,0l0-.07a1.49,1.49,0,0,0,0-.25c0-.13,0-.21,0-.23l0,0h.15s0,0,.07,0l.08.07a1.24,1.24,0,0,1,.21-.38,3.36,3.36,0,0,1,.25-.34s0,0,.07-.05l.15,0,.11,0c.06,0,.09,0,.09,0s.11,0,.22.15a1.84,1.84,0,0,0,.21.19L71,862l.27.17a.75.75,0,0,0,.08-.18.34.34,0,0,0,0-.17s0,0-.08-.07a.16.16,0,0,0-.13,0,.21.21,0,0,1,.06-.08.28.28,0,0,0,.07-.13h.06l.08,0s.11,0,.24,0h.26l.12,0,.17-.05s0,0,0-.07a.38.38,0,0,0,0-.13l.06,0,.06,0,.81.5.94-.8.7,1.68-.61.59s0,.09,0,.22l-.12.28a0,0,0,0,1,0,0l0,0H74s0,0,0,0l-.16,0h-.19l-.08.14a.59.59,0,0,0,.05.14.22.22,0,0,1,0,.14.17.17,0,0,1,0,.13.3.3,0,0,1-.07.08l-.14.05-.17.06-.18,0-.15,0-.17-.1-.17-.11-.41-.08a.86.86,0,0,0-.27,0s-.09.09-.17.24a.9.9,0,0,1-.16.26l-.08,0-.06,0a1.3,1.3,0,0,1-.26.14l-.45.22-.46.22a1.51,1.51,0,0,1-.26.12l-.44.11s-.06,0-.13.1a.46.46,0,0,1-.12.11.72.72,0,0,1-.21.09l-.33.13-.32.12-.19.06-.12.06-.22.12-.23.11-.14.07h-.19l-.28,0-.3,0a.59.59,0,0,1-.18,0l-.13-.56a.13.13,0,0,0-.09-.09.23.23,0,0,1-.1-.05.07.07,0,0,0-.07,0,.19.19,0,0,1-.1,0c.09.36.13.54.21.9l-.29.05a1,1,0,0,1-.3,0l-.1,0a.09.09,0,0,1-.08-.07c0,.14,0,.21-.08.34-.79.19-1.19.28-2,.45a.48.48,0,0,0-.13.09l-.08,0a.07.07,0,0,0-.06,0l0,.14,0,.17.1.05a.21.21,0,0,1,.08,0h.26l.2,0c.05.25.08.37.13.62,0,0,0,0,0,0h.06l.09,0,.14-.11a.32.32,0,0,0,.12-.1l.12,0h0l.13,0a.14.14,0,0,1,.08.06c.06.29.09.44.16.73a.49.49,0,0,1,.16,0,.3.3,0,0,1,.17.06v0l0,.08c0,.06,0,.18,0,.35a1.83,1.83,0,0,0,0,.31.43.43,0,0,0,.1.1l.14.11a.32.32,0,0,0,.09.08l.09.06,0,0a.29.29,0,0,0,0,.09l-.15.18c-.08.09-.12.16-.11.2,0,.22.07.34.12.56,0,0,0,.09-.09.23a2.24,2.24,0,0,0-.11.26l0,.17s0,.06,0,.11l.28-.18a.57.57,0,0,0,.11.19.54.54,0,0,0,.16.19l.12,0,.21,0a1.71,1.71,0,0,0,.29-.11,1.27,1.27,0,0,0,.29-.14.15.15,0,0,1,0-.11,1,1,0,0,0,0-.11.43.43,0,0,0,.09-.17.44.44,0,0,1,.06-.16s0,.05.07.09.07.06.09,0l.48-.11.07,0,.07,0h.28s0,0,0,0,.09-.07.15-.17a.75.75,0,0,1,.14-.19l.06-.05.06,0,.28.09a1,1,0,0,0,.24.08.33.33,0,0,0,.17,0l.16-.05.13.13a.33.33,0,0,1,.09.14l1.26-.32s0-.05.06-.14a.48.48,0,0,0,0-.2c0-.22-.08-.33-.14-.56a.19.19,0,0,0,.08.07s.09,0,.11,0a1,1,0,0,0,.28.11,1.36,1.36,0,0,1,.24.09l.11,0a.14.14,0,0,0,.1,0,1,1,0,0,0,.12.22.86.86,0,0,0,.14.19s0,0,.14,0a.54.54,0,0,1,.21.05v0l0,.09s0,0-.06.06a.24.24,0,0,0-.06.09.31.31,0,0,0,0,.18c0,.1,0,.16,0,.16a.14.14,0,0,1-.14,0,.25.25,0,0,0-.12,0,1.16,1.16,0,0,1,0,.2q0,.16,0,.21l.18.09.21.08-.14.14a.4.4,0,0,1-.15.11s-.08,0-.2.07l-.25,0s-.06,0-.13.1-.11.11-.13.11l-.64.16-.29.13a3,3,0,0,0-.31.17l-.26.18-.44.3-.44.3a1.11,1.11,0,0,0-.23.17,1.63,1.63,0,0,1-.32.15l-.32.15-.47.25a4.05,4.05,0,0,0-.37.24.36.36,0,0,0-.15.21s0,.06,0,.18a1.36,1.36,0,0,1,0,.24,1.83,1.83,0,0,1,0,.31,2,2,0,0,1,0,.32l-.07.1a.17.17,0,0,0,0,.1.38.38,0,0,0,0,.15l0,.19.06.18a1.32,1.32,0,0,1,0,.18.48.48,0,0,1,.19,0l.18,0,.56.32h.13l.09,0a.13.13,0,0,0,.06,0s0,0,.09-.08l.1-.08h.06l.06,0,.22,0,.4.1.4.1.26.05a.37.37,0,0,0,.17,0c.08,0,.13,0,.14.06s.11.07.18.18a1.28,1.28,0,0,1,.12.23,1,1,0,0,1,.09-.22.43.43,0,0,1,.11-.16.91.91,0,0,1,.34-.07,1.48,1.48,0,0,0,.29,0,1.55,1.55,0,0,0,0-.21l-.22-.13a1.54,1.54,0,0,1-.28-.07.66.66,0,0,0-.27-.06s0-.09.12-.16a.34.34,0,0,1,.17-.11s.07,0,.17,0l.21.07.06,0,.1,0,.17-.13a1,1,0,0,0,.18-.16l.13.53.11,0a.17.17,0,0,0,.16,0l.09-.21c0-.11.1-.17.14-.18l.15,0,.16,0s.07,0,.1,0l.08.07,0,.08a1.33,1.33,0,0,0-.06.12l-.06.15a.87.87,0,0,0,0,.14l0,.2,0,.11.19.1.09,0h.06l.08-.11s.06,0,.07-.08a.8.8,0,0,0,0-.31,1.5,1.5,0,0,1,0-.28.43.43,0,0,1,.17-.14c.09-.06.13-.09.13-.11a2.06,2.06,0,0,0,0-.27,2.24,2.24,0,0,0,0-.27l1.41-.37c.09-.18.14-.27.24-.45l1.28-.35a1.27,1.27,0,0,0,.09.2.28.28,0,0,0,.15.18.71.71,0,0,0,.25.1,1.21,1.21,0,0,1,.29.08l.34-.09s0,0,.09,0l.1.06s0,.07,0,.17,0,.14,0,.14l.24,0c.15,0,.23,0,.25,0a2.29,2.29,0,0,1,.18.26,1.92,1.92,0,0,0,.17.27,1,1,0,0,0,.18.11l.22.1.11-.18a1,1,0,0,1-.23-.17,1.67,1.67,0,0,0-.23-.18l0,0v-.06a4.29,4.29,0,0,0,0-.47.65.65,0,0,1,0-.32s.06-.12.11-.2l.11-.2s0,0,.11-.07l.15-.06a1,1,0,0,0,.07.16.73.73,0,0,1,.09.18s0,0,.07.06l.09,0,.09,0,.13,0c0-.08.06-.21.11-.39a2.06,2.06,0,0,1,.19-.44c.06-.12.12-.16.18-.13s.07.21,0,.54.15.51.26.85c.1-.17.19-.26.27-.26s.13.05.16.15a1,1,0,0,1,0,.42,2.47,2.47,0,0,1-.18.52,1.79,1.79,0,0,0,0,.31.52.52,0,0,1,0,.29,1,1,0,0,1-.09.21,3.31,3.31,0,0,1-.18.29l-.19.28c0,.09-.09.14-.1.16s0,.09,0,.14l.34-.1-.17.68-1.31.37s-.07-.08-.19-.14-.19-.08-.21-.07L78,879a.35.35,0,0,1-.22-.09c-.11-.07-.18-.1-.2-.09l-.15,0,.17.64-.32.06a3,3,0,0,0-.38.07,2.33,2.33,0,0,1-.45,0l-.57,0a.16.16,0,0,1-.09,0l-.07-.07s0,0,0-.12,0-.14,0-.16-.1-.08-.26-.08a.29.29,0,0,1-.17,0,.22.22,0,0,0-.14,0l-.1,0-.09,0a1.25,1.25,0,0,1,0,.3,1.48,1.48,0,0,1,0,.29.3.3,0,0,0,0,.1s0,.07-.05.07l-.32.26-.26.22a.42.42,0,0,1-.12-.12l-.14-.14-.08,0-.08-.06-.13,0ZM61.36,866.75a.48.48,0,0,1,.07-.25c0-.13.09-.21.13-.23a.54.54,0,0,1,.16.26.8.8,0,0,0,.17.28c0,.07,0,.1.06.17a.66.66,0,0,1-.24,0l-.21-.1C61.41,866.81,61.36,866.77,61.36,866.75Zm.66-1.17a.17.17,0,0,1,0-.12.34.34,0,0,0,0-.09,1.85,1.85,0,0,0,.34.16,2.13,2.13,0,0,1,.33.17.75.75,0,0,1,.14.19.71.71,0,0,1,.1.2l0,.22h-.06l-.06,0a0,0,0,0,1,0,0l-.06-.07-.1-.1s-.06,0-.13-.09l-.13-.12a.56.56,0,0,0-.16-.12.62.62,0,0,1-.17-.13s0,0,0,0A.11.11,0,0,1,62,865.58Zm3.47,13.48c0-.06,0-.08-.11-.07s-.13.08-.11.11a.13.13,0,0,0,.22,0Zm.78,2.24c-.08,0-.11.07-.09.17s.07.13.15.11a.14.14,0,0,0-.06-.28Zm-1.5-10.59c-.08,0-.1.08-.08.19s.07.14.15.12.11-.07.09-.18S64.85,870.7,64.77,870.71Zm.09-6.05a1,1,0,0,1,0-.17l-.18,0Zm.08,1.19.07-.11a.38.38,0,0,0,.06-.13l0-.11,0-.14-.11-.05-.11-.08C64.86,865.48,64.89,865.6,64.94,865.85Zm.14-3s.07,0,.07,0a.08.08,0,0,1,0,.09c-.07.06-.11.06-.13,0A.09.09,0,0,1,65.08,862.9Zm.68.93c-.1,0-.14.07-.12.16s.08.11.18.09a.11.11,0,0,0,.08-.15C65.88,863.84,65.83,863.81,65.76,863.83Zm5.76,13.83c-.08,0-.11.08-.08.18s.08.15.16.12.08-.07.05-.17S71.58,877.64,71.52,877.66Zm-1.16-5.22.18,0c0-.1,0-.15-.06-.26l-.18.05C70.32,872.29,70.34,872.34,70.36,872.44Zm-.52-9.83a.17.17,0,0,0,.09.1l.11.06a.92.92,0,0,0,.09-.23l0-.11a.34.34,0,0,1,0-.09.06.06,0,0,0,0-.06l-.17.05-.06.09a.11.11,0,0,0,0,.11l0,.06Zm2.72,9.27a.16.16,0,1,1,.07.31q-.12,0-.15-.12C72.45,872,72.48,871.9,72.56,871.88Zm-.4-1.41a.71.71,0,0,1,0-.14,1.39,1.39,0,0,0,0-.17l.4.12a2,2,0,0,1,.33.13,1.75,1.75,0,0,1,.18.33,1.62,1.62,0,0,1,.15.33l-.23,0a.63.63,0,0,1-.27,0,.56.56,0,0,1-.11-.15.44.44,0,0,1-.08-.12.23.23,0,0,1-.11,0c-.06,0-.1,0-.1,0a.77.77,0,0,0-.06-.15Zm-1.28-6.11s0,0,0,0,0,0,.07,0a.23.23,0,0,1,.1,0,.27.27,0,0,0,.08-.16.25.25,0,0,0,0-.19A.14.14,0,0,0,71,864s0,0,0,0l0,0a.25.25,0,0,0,0,.07v.17Zm0-2s0-.06-.09,0-.07,0-.06.07,0,.08.08.07S70.87,862.4,70.88,862.35ZM73,869.79l-.11,0,0-.14Zm-1.36-5.17c.1,0,.16,0,.18.12a.13.13,0,0,1-.1.19c-.06,0-.1,0-.13-.13S71.54,864.64,71.6,864.62Zm1.73,5.22s.07,0,.08,0a.11.11,0,0,1,0,.09s-.06,0-.07-.06S73.28,869.83,73.33,869.84Zm.19.72a.22.22,0,0,1,.1.14.2.2,0,0,1,0,.17s-.07,0-.1-.14S73.48,870.55,73.52,870.56ZM71.71,862c-.06,0-.07.07,0,.17s.07.13.12.11a.13.13,0,0,0,.11-.18C71.87,862,71.81,862,71.71,862Zm2.42,7.59s.07,0,.1.14,0,.16,0,.17-.16,0-.19-.11S74,869.65,74.13,869.62Zm2.62,9.71.16,0a.18.18,0,0,0-.1-.12l-.13-.12A2.86,2.86,0,0,1,76.75,879.33Zm1.15-2.61s0,0,.06-.09a.17.17,0,0,1,.06-.09v0s0,0,0,0,0,0,0,0l0-.06-.18.05C77.86,876.55,77.87,876.61,77.9,876.72Zm.56,1.4c-.08,0-.11.08-.09.17s.08.13.17.1.11-.08.08-.17S78.54,878.09,78.46,878.12ZM77.93,875s.06.07,0,.11a.14.14,0,0,1-.15.05c-.06,0-.07,0,0-.1S77.9,875,77.93,875Zm-3.49-11.82a1.24,1.24,0,0,0,.25-.26,1.17,1.17,0,0,0,.21-.32.11.11,0,0,0,.08-.08l0-.1a.31.31,0,0,0,.06-.18v-.17l-.24-.2a1.66,1.66,0,0,1-.18-.19.21.21,0,0,1-.08-.18c-.24.18-.3.2-.18,0a4.15,4.15,0,0,1,.52-.55l-.51-.06s0,0,.13-.1a.57.57,0,0,0,.14-.13.69.69,0,0,1,.07-.26l.1-.24a.57.57,0,0,1,0-.16.71.71,0,0,0,0-.16l.42-.12c0,.05,0,.07,0,.11s0,.13-.05.26a.62.62,0,0,0,0,.24c0,.08.11.11.25.11h0l.08,0,.05-.09a.31.31,0,0,0,0-.12s0-.1,0-.16a.66.66,0,0,0,0-.13l.11.09a.52.52,0,0,1,.13.11c0,.07.09.15.16.13a.82.82,0,0,0,.22-.15l.19-.15a.35.35,0,0,0,.1.15.49.49,0,0,0,.13.11l.14,0,.11,0a2,2,0,0,0,.28-.27.84.84,0,0,1,.26-.22l.51.06a2.12,2.12,0,0,1,.5.11l-.74.22c0,.06,0,.16.07.3a3,3,0,0,1,.09.43c0,.16,0,.3.07.43a2.14,2.14,0,0,1,.05.29.92.92,0,0,0,0,.17c0,.09,0,.15-.06.18s0,0-.07,0-.08,0-.09-.08,0-.08-.08-.2,0-.2,0-.24-.08-.08-.16-.22a1.14,1.14,0,0,1-.14-.26l-.14-.15a.36.36,0,0,0-.16-.12l-.06,0h0v.25a.4.4,0,0,1,0,.24,2.39,2.39,0,0,1-.14.3,1.2,1.2,0,0,1-.16.24l.08.27.1.33.09.07s.07,0,.09,0a.58.58,0,0,1-.1.19c0,.09-.1.16-.12.21l-.09,0h0a.83.83,0,0,0-.21-.12l-.19-.09a.42.42,0,0,0-.14.08c-.06.05-.1.09-.09.1a1.51,1.51,0,0,0-.1.29,2.44,2.44,0,0,0-.08.27l-.09,0-.08,0s-.05,0-.1-.06-.08-.07-.1-.06a.7.7,0,0,0-.3.09c-.16.06-.25.09-.27.07l-.15,0a.37.37,0,0,1-.2,0l-.11-.06A.13.13,0,0,1,74.44,863.22Zm-.07-1.35s-.05,0,0,.11,0,.08.08,0,.07-.07.06-.1S74.43,861.87,74.37,861.87Zm4,13c.1,0,.16,0,.19.11a.15.15,0,0,1-.11.2c-.06,0-.1,0-.13-.13S78.32,874.93,78.39,874.91Zm-3-12.88s0,0,.09.08l.13.06.07-.31c0-.17,0-.3.07-.39v-.05l0-.06-.12,0a.24.24,0,0,1-.12,0c0,.05,0,.15,0,.32a2.33,2.33,0,0,1-.07.35l0,0Zm4.28,14.19.08-.17-.16-.1A2.76,2.76,0,0,0,79.66,876.22Zm.46-.13.11-.18-.22.27Zm.91,1.29c.06,0,.1,0,.13.11s0,.15,0,.17a.14.14,0,0,1-.2-.1Q80.88,877.43,81,877.38Zm-.14-2.74-.12-.12a.72.72,0,0,1-.13-.14.91.91,0,0,1-.11-.21c0-.11-.07-.18-.08-.22l.33-.08.32-.08a.42.42,0,0,0,.15-.09c.07-.05.1-.05.11,0,.15.18.15.32,0,.42s-.21.15-.24.13v.09a.39.39,0,0,0,.06.11c.14,0,.27.05.38.06a1,1,0,0,1,.28,0l.16.06-.18.17-.15.17v0a.74.74,0,0,1,0,.23c0,.09,0,.14-.07.14a.83.83,0,0,1-.25,0h-.21C81,875.08,81,874.93,80.89,874.64Zm-3.74-13.13c.09,0,.15,0,.18.11a.13.13,0,0,1-.09.19c-.08,0-.13,0-.16-.11S77.07,861.53,77.15,861.51Zm.13-.49c.1,0,.16,0,.19.12a.14.14,0,0,1-.09.21s-.07,0-.11-.15S77.24,861,77.28,861Zm5,11.94a.34.34,0,0,1,0,.08.24.24,0,0,1,0,.12l0,.13a.14.14,0,0,0,0,.09.07.07,0,0,1,0,.06,1.11,1.11,0,0,1,0,.13c0,.06,0,.14.07.22s0,.16.07.23a1.19,1.19,0,0,1,0,.14.88.88,0,0,1-.1.21,1,1,0,0,1-.14.19,1.55,1.55,0,0,0-.13-.24c-.06-.11-.14-.23-.22-.36s-.16-.24-.22-.35a1.49,1.49,0,0,0-.15-.21,1.06,1.06,0,0,0-.06-.19Z" style="fill:#c9c9c9"/><path d="M762,938,708.5,877.5l-44.61,1.69a3,3,0,0,0,0-.52v-.25a3,3,0,0,0-.22-1.12h33.5l1.29.2a40.45,40.45,0,0,0,11,0L697.74,706.41a.52.52,0,0,0-.53-.51H455.41a.52.52,0,0,0-.53.51V876.79a.52.52,0,0,0,.53.51h31.42a3,3,0,0,0-.22,1.12v.25a3,3,0,0,0,.26,1.23l-35.89.15-62.92,58c.08,2.19.61,9.2,6.24,14.49a19.59,19.59,0,0,0,5.2,3.5H751a17.58,17.58,0,0,0,4.68-3C761.59,947.73,761.93,940,762,938ZM529,877.3h92.48a3,3,0,0,0-.22,1.12v.25a2.61,2.61,0,0,0,.09.69l-92.33.37a2.89,2.89,0,0,0,.2-1.06v-.25A3,3,0,0,0,529,877.3Z" style="stroke:#050505;stroke-miterlimit:10;opacity:0.1"/><path d="M1834.31,957.87,1792,888.05a25.06,25.06,0,0,0-34.58-8.42l-154.69,95a25.41,25.41,0,0,0-8.37,34.8l42.33,69.82a25.07,25.07,0,0,0,34.58,8.43l154.69-95A25.41,25.41,0,0,0,1834.31,957.87Z" style="fill:#2b2b2b;stroke:#444;stroke-miterlimit:10;opacity:0.1"/><rect x="443.6" y="695" width="243.86" height="179.11" rx="1.02" style="fill:#ccbbb4;stroke:#050505;stroke-miterlimit:10"/><rect x="466.58" y="712.23" width="195.82" height="145.17" rx="13.93" style="fill:#a8a8a8;stroke:#050505;stroke-miterlimit:10"/><path d="M690.34,875.94l-250.65,1L376.5,937.56H752Z" style="fill:#ccbbb4;stroke:#050505;stroke-miterlimit:10"/><path d="M741,956.36H388a19.77,19.77,0,0,1-5.22-3.66c-5.66-5.53-6.19-12.86-6.27-15.14H753c-.22,2.63-1.21,10.22-7.31,15.66A20.46,20.46,0,0,1,741,956.36Z" style="fill:#ccbbb4;stroke:#050505;stroke-miterlimit:10"/><ellipse cx="464.75" cy="922.15" rx="42.3" ry="12.27" style="fill:#afa5a0;stroke:#050505;stroke-miterlimit:10"/><ellipse cx="569.45" cy="894.48" rx="38.9" ry="12.79" style="fill:#a08377;stroke:#050505;stroke-miterlimit:10"/><ellipse cx="572.32" cy="923.2" rx="42.3" ry="12.27" style="fill:#dbccc6;stroke:#050505;stroke-miterlimit:10"/><ellipse cx="477.81" cy="894.74" rx="38.12" ry="10.97" style="fill:#7f685e;stroke:#050505;stroke-miterlimit:10"/><ellipse cx="674.67" cy="921.63" rx="42.3" ry="12.27" style="fill:#c9c9c9;stroke:#050505;stroke-miterlimit:10"/><ellipse cx="660.83" cy="893.95" rx="37.86" ry="12.27" style="fill:#b79586;stroke:#050505;stroke-miterlimit:10"/><rect x="475.46" y="872.02" width="42.82" height="6.79" rx="3.39" style="fill:#c9c9c9;stroke:#050505;stroke-miterlimit:10"/><rect x="610.7" y="872.02" width="42.82" height="6.79" rx="3.39" style="fill:#c9c9c9;stroke:#050505;stroke-miterlimit:10"/><path d="M1596.18,977.9l154.69-95a25.07,25.07,0,0,1,34.58,8.43l42.33,69.81a25.41,25.41,0,0,1-8.37,34.8l-154.69,95a25.07,25.07,0,0,1-34.58-8.42l-42.33-69.82A25.41,25.41,0,0,1,1596.18,977.9Z" style="fill:#2b2b2b"/><ellipse cx="1619.27" cy="1041.29" rx="8.01" ry="7.51" transform="translate(-305.52 1080.04) rotate(-33.9)" style="fill:none;stroke:#f9f9f9;stroke-miterlimit:10"/><ellipse cx="1800.76" cy="929.96" rx="1.84" ry="2.03" transform="translate(-224.13 1015.94) rotate(-29.74)" style="fill:#2b2b2b;stroke:#444;stroke-miterlimit:10"/><polygon points="1659.68 1082.63 1601.82 987.15 1764.46 887.33 1822.32 982.81 1659.68 1082.63" style="fill:#5b5b5b"/><path d="M1815,604c-56.75-5.89-119.35-9.77-187-10a1876.64,1876.64,0,0,0-200,10q5.74-109.17,8-225,2.36-126.83,0-246l369-3q-2.12,125,1,259Q1808.72,499.6,1815,604Z" style="fill:#0a0a0a;opacity:0.1"/><image width="2126" height="2809" transform="translate(1441 116) scale(0.17)" xlink:href="../cv_img/IMG_2152.jpg"/><g style="opacity:0.9"><rect x="1772.34" y="87.65" width="22" height="50" transform="translate(80.02 -427.45) rotate(13.98)" style="fill:#2b2b2b"/></g><g style="opacity:0.9"><rect x="1445.23" y="91.09" width="22" height="50" transform="matrix(0.99, -0.14, 0.14, 0.99, -2.01, 203.4)" style="fill:#2b2b2b"/></g></svg>