<svg id="Lag_1" data-name="Lag 1" xmlns="http://www.w3.org/2000/svg" xmlns:xlink="http://www.w3.org/1999/xlink" viewBox="0 0 1920 1080"><title>Tegnebræt 2</title><rect width="1920" height="881" style="fill:#dddbdd"/><rect y="876" width="1920" height="199" style="fill:#191919;opacity:0.1"/><rect y="881" width="1920" height="199" style="fill:#f7f7f7"/><path d="M492,251H472V202h22Q493,226.5,492,251Z" style="opacity:0.1"/><path d="M360,241H350c4.53,65.32,7.94,140.55,8.57,224,.68,90.67-2.07,172.11-6.19,242H360Z" style="opacity:0.1"/><path d="M360,710l.26,4,238,1,.77-5Z" style="opacity:0.1"/><image width="708" height="1372" transform="translate(359 237) scale(0.35)" xlink:href="../../../../../../Desktop/Sk%C3%A6rmbillede%202020-01-02%20kl.%2018.38.16.png"/><image width="375" height="901" transform="translate(1106 333) scale(0.52)" xlink:href="../../../../03_ux/03.04.01/Landingpage.png"/><image width="375" height="1322" transform="translate(1429 145) scale(0.41)" xlink:href="../../../../03_ux/03.04.01/Profilside%20-%20Josefine.png"/><image width="375" height="549" transform="translate(730 190) scale(0.66)" xlink:href="../../../../03_ux/03.03.01/Menu%20view.png"/><rect x="472" y="201" width="22" height="50" transform="translate(-11.69 26.88) rotate(-3.15)" style="fill:#2b2b2b;opacity:0.9"/><rect x="830.96" y="164.51" width="22" height="50" transform="translate(29.31 -101.02) rotate(6.99)" style="fill:#2b2b2b;opacity:0.9"/><rect x="1109.69" y="307.8" width="22" height="50" transform="translate(-16.59 62.08) rotate(-3.15)" style="fill:#2b2b2b;opacity:0.9"/><rect x="1275.58" y="296.54" width="22" height="50" transform="translate(28.94 -99.21) rotate(4.47)" style="fill:#2b2b2b;opacity:0.9"/><rect x="1499.22" y="105.77" width="22" height="50" transform="translate(78.17 -366.33) rotate(14.19)" style="fill:#2b2b2b;opacity:0.9"/></svg>