<svg id="Lag_1" data-name="Lag 1" xmlns="http://www.w3.org/2000/svg" xmlns:xlink="http://www.w3.org/1999/xlink" viewBox="0 0 714.24 1010.16"><defs><filter id="AI_Skygge_1" name="AI_Skygge_1"><feGaussianBlur result="blur" stdDeviation="2" in="SourceAlpha"/><feOffset result="offsetBlurredAlpha" dx="4" dy="4" in="blur"/><feMerge><feMergeNode in="offsetBlurredAlpha"/><feMergeNode in="SourceGraphic"/></feMerge></filter></defs><title>Tegnebræt 31</title><g style="opacity:0.27;filter:url(#AI_Skygge_1)"><polyline points="88.35 84.19 654.8 926.08 654.8 84.19 654.8 84.19 654.8 926.08 654.8 84.19 90.77 84.19"/></g><g style="filter:url(#AI_Skygge_1)"><rect x="59.53" y="84.19" width="595.28" height="841.89" style="fill:#fefada"/></g><text transform="translate(164.84 262.77)" style="font-size:34px;fill:#646463;font-family:Lato-Regular, Lato">G<tspan x="24.84" y="0" style="letter-spacing:-0.003992417279411764em">R</tspan><tspan x="46" y="0">UNDL</tspan><tspan x="140.28" y="0" style="letter-spacing:-0.015495749080882353em">Æ</tspan><tspan x="171.39" y="0">GGENDE</tspan><tspan x="312.15" y="0" style="letter-spacing:-0.013499540441176471em"> </tspan><tspan x="320.4" y="0">WEB</tspan></text><text transform="translate(162.98 262.12)" style="font-size:34px;fill:#1d1d1b;font-family:Lato-Regular, Lato">G<tspan x="24.84" y="0" style="letter-spacing:-0.003992417279411764em">R</tspan><tspan x="46" y="0">UNDL</tspan><tspan x="140.28" y="0" style="letter-spacing:-0.015495749080882353em">Æ</tspan><tspan x="171.39" y="0">GGENDE</tspan><tspan x="312.15" y="0" style="letter-spacing:-0.013499540441176471em"> </tspan><tspan x="320.4" y="0">WEB</tspan></text><rect x="133.1" y="277.61" width="463.19" height="2.61" style="fill:#1d1d1b"/><rect x="88.35" y="84.19" width="6.63" height="841.89" style="fill:#e2daba"/><rect x="90.77" y="84.19" width="2.29" height="841.89" style="fill:#c9c1a7"/><polygon points="654.8 926.08 715 858.28 654.8 84.19 654.8 926.08" style="opacity:0.2"/></svg>
